<svg width="130" height="130" viewBox="0 0 130 130" fill="none" xmlns="http://www.w3.org/2000/svg">
<path d="M122.378 58.7809L101.727 64.2519L112.235 68.5399L117.164 79.4959L122.378 58.7809Z" fill="white"/>
<path d="M116.046 62.4129C116.182 62.49 116.232 62.7407 116.18 63.1295C116.155 63.3359 116.107 63.5677 116.037 63.8248C116.008 63.9591 115.967 64.106 115.915 64.2656L115.843 64.4987C115.812 64.5848 115.792 64.6583 115.76 64.7444C115.634 65.0889 115.484 65.4588 115.313 65.8541C115.27 65.9529 115.227 66.0517 115.172 66.1632C115.129 66.262 115.075 66.3735 115.021 66.4849C114.923 66.6952 114.802 66.9068 114.682 67.1424C114.44 67.5896 114.201 68.085 113.89 68.5842C113.735 68.8337 113.592 69.0947 113.425 69.357C113.348 69.4938 113.258 69.6193 113.181 69.7561C113.104 69.8929 113.014 70.0184 112.913 70.1565C111.495 72.2952 109.549 74.7154 107.082 77.0792C106.921 77.2325 106.784 77.3846 106.611 77.5265L106.128 77.9626C105.794 78.2579 105.484 78.5519 105.126 78.8485C104.779 79.1325 104.421 79.4291 104.074 79.713C103.901 79.855 103.716 80.0096 103.542 80.1516C103.356 80.2822 103.172 80.4368 102.986 80.5674C102.8 80.698 102.615 80.8526 102.429 80.9832C102.231 81.1265 102.058 81.2685 101.848 81.4003C101.464 81.6742 101.068 81.9366 100.673 82.2231C100.568 82.289 100.476 82.3664 100.371 82.4323L100.104 82.6275C99.8937 82.7594 99.695 82.8786 99.4849 83.0105C99.2748 83.1423 99.0647 83.2742 98.866 83.3934C98.6559 83.5253 98.4331 83.6458 98.2344 83.765C98.0243 83.8968 97.7661 84.0313 97.5092 84.1898C97.3687 84.2697 97.2282 84.3496 97.0763 84.4421C96.9244 84.5347 96.7598 84.6159 96.5953 84.697C96.2548 84.8721 95.8915 85.0725 95.5042 85.2741C95.4105 85.3274 95.3169 85.3806 95.1991 85.4352C95.0928 85.4771 94.9877 85.543 94.8814 85.5849C94.67 85.6927 94.446 85.7891 94.2232 85.9096C92.4004 86.7912 90.0889 87.7833 87.3139 88.6796C86.6138 88.898 85.9023 89.129 85.1414 89.3386C84.7742 89.4668 84.3932 89.5596 84.0007 89.665C83.6196 89.7578 83.2145 89.8518 82.8093 89.9458C82.6067 89.9928 82.4042 90.0399 82.2016 90.0869C82.1067 90.1161 81.999 90.1339 81.8914 90.1517C81.7838 90.1695 81.6888 90.1987 81.5812 90.2165C81.1634 90.2992 80.7456 90.3819 80.3164 90.4772C80.1138 90.5242 79.8859 90.5485 79.6706 90.5841C79.4554 90.6197 79.2401 90.6554 79.0249 90.691C78.5817 90.7509 78.1398 90.8348 77.684 90.8833C77.2282 90.9318 76.7736 91.0043 76.3064 91.0655C76.1988 91.0833 76.0785 91.0897 75.9582 91.0962C75.8379 91.1026 75.7303 91.1204 75.61 91.1269C75.3694 91.1397 75.1415 91.1639 74.8895 91.1895C74.6489 91.2023 74.4096 91.2393 74.169 91.2521C73.9284 91.265 73.6878 91.2778 73.4472 91.2907C73.2066 91.3036 72.966 91.3164 72.7128 91.3179C72.5925 91.3243 72.4722 91.3308 72.3392 91.3258L72.1467 91.3361L71.9657 91.3337C71.4718 91.348 70.9653 91.351 70.4587 91.3539C70.3258 91.349 70.2055 91.3554 70.0725 91.3505C69.9396 91.3455 69.8193 91.3519 69.6863 91.347C69.433 91.3484 69.1785 91.3259 68.9126 91.3159C68.6466 91.306 68.3934 91.3075 68.1388 91.2849C67.8843 91.2623 67.6183 91.2524 67.3638 91.2298C67.1092 91.2072 66.8433 91.1973 66.576 91.1633C66.4431 91.1584 66.3101 91.1534 66.1885 91.1358C66.0556 91.1308 65.9213 91.1018 65.7883 91.0969C65.2539 91.0289 64.7208 90.9851 64.1863 90.9171C63.9191 90.8831 63.6519 90.8492 63.372 90.8038C63.1047 90.7698 62.8362 90.7118 62.569 90.6778C61.4862 90.5065 60.3881 90.2757 59.276 90.0094C58.164 89.7431 57.062 89.4401 55.9436 89.0535C54.8377 88.6783 53.7294 88.255 52.6285 87.7468C52.3448 87.6293 52.0838 87.4864 51.8114 87.3562C51.5391 87.226 51.2781 87.0831 50.993 86.9415C50.7321 86.7986 50.4584 86.6444 50.1974 86.5015C50.0606 86.4243 49.9364 86.3586 49.7996 86.2814C49.6628 86.2043 49.526 86.1272 49.4005 86.0374C48.3528 85.3937 47.3265 84.7006 46.3444 83.9327C46.1049 83.7404 45.8414 83.5494 45.6019 83.3572C45.3738 83.1522 45.1216 82.9485 44.8935 82.7436C44.4019 82.3476 43.9558 81.901 43.4983 81.467C43.2575 81.2506 43.0522 81.0203 42.8228 80.7913C42.6061 80.5737 42.388 80.332 42.1586 80.103C41.9533 79.8727 41.7353 79.631 41.5287 79.3766L41.208 79.0198L41.1307 78.9274L41.0534 78.835L40.8987 78.6503C40.6921 78.3959 40.4982 78.1529 40.2916 77.8986L40.1369 77.7138C40.0849 77.6442 40.0456 77.586 39.9937 77.5164L39.7071 77.1215C39.5246 76.8659 39.3294 76.5988 39.1468 76.3432C38.9756 76.0749 38.7918 75.7952 38.6206 75.5268L38.3582 75.1307C38.2783 74.9902 38.1984 74.8497 38.1185 74.7092C37.9587 74.4282 37.7989 74.1472 37.6391 73.8662C37.5592 73.7257 37.4793 73.5852 37.4108 73.4321L37.1825 72.9979L36.9542 72.5637L36.8464 72.3524C36.8185 72.2815 36.7779 72.1992 36.75 72.1283C36.613 71.8219 36.4773 71.5397 36.3402 71.2333C36.2717 71.0802 36.1919 70.9397 36.1474 70.7852L35.9659 70.3244C35.853 70.0168 35.7286 69.7218 35.603 69.4028C35.4901 69.0952 35.3771 68.7876 35.2755 68.4673C34.8706 67.2102 34.5479 65.9125 34.3315 64.5729C34.1278 63.2447 34.0304 61.8746 34.1129 60.4828C34.1953 59.0911 34.4348 57.703 34.8934 56.3514C34.9249 56.2653 34.9565 56.1792 34.9767 56.1057L35.0715 55.8473C35.1347 55.675 35.1991 55.5268 35.2623 55.3545C35.4013 55.0214 35.5758 54.6743 35.7743 54.3259C35.9728 53.9775 36.2309 53.6138 36.551 53.283C36.8584 52.9409 37.2393 52.6189 37.6963 52.3653C38.1178 52.1256 38.6026 51.9429 39.128 51.8424C39.6421 51.7546 40.1613 51.763 40.6489 51.8576C41.1365 51.9522 41.5672 52.1101 41.9637 52.3061C42.3602 52.502 42.7099 52.7246 43.0368 52.9726C43.678 53.457 44.1901 54.0087 44.6553 54.5871C45.0964 55.1667 45.4907 55.7729 45.8154 56.4312C45.8966 56.5957 45.9778 56.7603 46.059 56.9248L46.1135 57.0426L46.1554 57.1489L46.2518 57.3729L46.4333 57.8337L46.6021 58.2831C46.6579 58.4249 46.715 58.5908 46.7709 58.7325L46.9283 59.1946C47.0412 59.5022 47.1301 59.8112 47.219 60.1201C47.5873 61.3671 47.8846 62.642 48.0744 63.9348C48.2641 65.2276 48.3576 66.5255 48.3181 67.8184C48.2464 73.0218 46.0117 78.1598 42.1052 81.3605C40.164 82.9602 37.8411 83.965 35.5127 84.4152C34.3428 84.6466 33.1766 84.721 32.042 84.7093C30.9073 84.6975 29.7789 84.5769 28.7189 84.3802C26.5633 84.0008 24.548 83.3123 22.7188 82.4932C20.8768 81.6627 19.1842 80.6916 17.6676 79.6266C17.4801 79.5039 17.2913 79.3572 17.1038 79.2345C17.0037 79.1675 16.9276 79.0991 16.8275 79.0321C16.7388 78.9524 16.6514 78.8967 16.5627 78.817C16.3866 78.6817 16.2104 78.5463 16.0343 78.411C15.8582 78.2756 15.682 78.1403 15.5173 77.9923C15.1764 77.7089 14.8482 77.4369 14.52 77.1649C14.2032 76.8802 13.8864 76.5956 13.5696 76.3109C12.3391 75.1823 11.2402 74.0347 10.2642 72.9287C10.0323 72.6516 9.78765 72.3631 9.55569 72.0859C9.32373 71.8088 9.11581 71.5304 8.89652 71.2646C8.79257 71.1254 8.67725 70.9989 8.57329 70.8597C8.46934 70.7205 8.37805 70.5926 8.27409 70.4534C8.07886 70.1864 7.88363 69.9193 7.70107 69.6637C6.96955 68.617 6.32674 67.6501 5.80679 66.7248C5.67363 66.4907 5.54177 66.2806 5.42129 66.0578C5.30081 65.835 5.19299 65.6236 5.07379 65.4249C4.96598 65.2135 4.85947 65.0262 4.76433 64.8262C4.65781 64.6389 4.56267 64.4389 4.48021 64.2503C4.38636 64.0743 4.30387 63.8857 4.22269 63.7212C4.14151 63.5566 4.06034 63.392 4.00322 63.2262C3.86621 62.9199 3.74188 62.6249 3.6315 62.3654C3.52112 62.1059 3.43606 61.8692 3.36498 61.6679C3.2939 61.4666 3.23678 61.3007 3.19234 61.1463C3.1174 60.8728 3.08563 60.7298 3.11979 60.6917C3.15523 60.6778 3.25791 60.7929 3.41513 61.0258C3.49373 61.1423 3.58628 61.2941 3.69281 61.4815C3.79933 61.6688 3.90715 61.8802 4.06436 62.1131C4.19752 62.3472 4.36869 62.6155 4.54115 62.9079C4.63371 63.0598 4.72629 63.2117 4.81885 63.3636C4.91142 63.5155 5.01664 63.6787 5.12317 63.866C5.22841 64.0293 5.33493 64.2166 5.45284 64.3913C5.57075 64.566 5.68995 64.7647 5.82053 64.9507C5.95111 65.1368 6.07032 65.3355 6.20219 65.5456C6.34545 65.743 6.47731 65.9531 6.63324 66.1619C7.2215 67.0111 7.90987 67.9274 8.68566 68.8993C8.8796 69.1423 9.08494 69.3726 9.29156 69.6269C9.39422 69.7421 9.49817 69.8813 9.60084 69.9965C9.71618 70.123 9.81884 70.2381 9.93417 70.3647C10.1649 70.6178 10.3715 70.8721 10.6148 71.1366C10.8455 71.3897 11.1002 71.6414 11.3436 71.9059C12.3398 72.9384 13.4575 73.9886 14.6829 75.0209C14.9984 75.2815 15.3013 75.5307 15.6295 75.8027C15.9564 76.0506 16.296 76.3099 16.6229 76.5579C17.3008 77.0524 18.004 77.5698 18.7401 78.0251C20.2022 78.9724 21.8289 79.8385 23.5669 80.5297C25.3061 81.245 27.1693 81.7969 29.1146 82.079C31.0599 82.361 33.0873 82.3733 35.0548 81.9424C36.0322 81.7213 36.9918 81.3925 37.8969 80.946C38.1323 80.8369 38.3425 80.7051 38.5652 80.5846C38.6829 80.53 38.788 80.4641 38.8931 80.3982C38.9981 80.3322 39.1031 80.2663 39.2196 80.1877C39.4411 80.0431 39.6385 79.8999 39.8473 79.744C40.0435 79.5766 40.2523 79.4207 40.4484 79.2534C42.0049 77.9035 43.2609 76.1233 44.0836 74.137C44.5007 73.1375 44.819 72.0951 45.0271 71.0224C45.2351 69.9496 45.333 68.8466 45.3333 67.7246C45.3227 65.4934 44.9232 63.2105 44.2021 61.0052C44.1031 60.733 44.0281 60.4595 43.9165 60.1759C43.8175 59.9038 43.7185 59.6316 43.6081 59.3721L43.4419 58.9708L43.2757 58.5695L43.1806 58.3695L43.1387 58.2632L43.0981 58.1809C43.0435 58.0632 42.989 57.9455 42.9231 57.8404C42.6821 57.3949 42.393 56.9519 42.0711 56.571C41.7605 56.1774 41.4044 55.8345 41.0407 55.5765C40.6771 55.3184 40.3312 55.168 40.0754 55.1214C39.9538 55.1038 39.8449 55.0975 39.75 55.1267C39.6881 55.3231 39.5817 55.3649 39.4767 55.4309C39.383 55.4841 39.2793 55.5741 39.1768 55.6882C39.0743 55.8022 38.963 55.9771 38.8517 56.1519C38.7531 56.3381 38.6444 56.5611 38.5483 56.7955L38.4119 57.1767L38.3373 57.3617C38.3044 57.4237 38.2956 57.4845 38.2754 57.558C37.6363 59.5948 37.5888 61.8653 37.9844 64.076C38.1765 65.1877 38.4763 66.2815 38.8482 67.3715C38.9472 67.6437 39.0462 67.9159 39.1325 68.1767C39.2429 68.4362 39.366 68.7071 39.465 68.9793L39.6312 69.3806C39.687 69.5223 39.7542 69.6514 39.8088 69.7692C39.9432 70.0274 40.0536 70.2869 40.188 70.5451C40.216 70.616 40.2553 70.6742 40.2832 70.7451L40.4125 70.9071L40.6255 71.2818L40.8386 71.6564C40.9058 71.7855 40.973 71.9146 41.0516 72.0311C41.1974 72.2766 41.3433 72.5222 41.4891 72.7677C41.5677 72.8841 41.6349 73.0133 41.7135 73.1297L41.9494 73.479C42.1066 73.7119 42.2638 73.9448 42.4337 74.189C42.5909 74.4219 42.7722 74.6535 42.9408 74.8737L43.1639 75.2116C43.2032 75.2698 43.2425 75.328 43.2932 75.3736L43.4225 75.5356C43.6038 75.7672 43.7724 75.9874 43.9524 76.1949L44.0817 76.3569L44.1463 76.4379L44.211 76.5189L44.4936 76.8416C44.6736 77.0491 44.8776 77.2553 45.0576 77.4629C45.249 77.6577 45.4531 77.864 45.6444 78.0588C45.8358 78.2537 46.0398 78.4599 46.2426 78.6421C46.6608 79.0179 47.0549 79.3949 47.4832 79.7339C47.6974 79.9034 47.9001 80.0856 48.1143 80.2551C48.3284 80.4246 48.554 80.5815 48.7681 80.751C49.6361 81.4164 50.5597 81.9943 51.4694 82.5368C51.5821 82.6153 51.6936 82.6696 51.8178 82.7354C51.9419 82.8011 52.0534 82.8555 52.1662 82.9339C52.4018 83.054 52.6261 83.1868 52.8617 83.3069C53.0973 83.427 53.3443 83.5344 53.58 83.6545C53.8156 83.7747 54.0513 83.8948 54.297 83.9781C55.2724 84.3965 56.2452 84.7667 57.2269 85.0762C58.2212 85.397 59.2117 85.6457 60.2135 85.8817C61.2027 86.1063 62.202 86.2941 63.1987 86.4339C63.4419 86.4691 63.685 86.5044 63.9522 86.5383C64.1954 86.5736 64.45 86.5962 64.6931 86.6315C65.1782 86.6779 65.6632 86.7244 66.1482 86.7708C66.2698 86.7884 66.3914 86.8061 66.5117 86.7997C66.6333 86.8173 66.7536 86.8108 66.8752 86.8285C67.117 86.8397 67.3589 86.8509 67.5894 86.8748C67.8313 86.886 68.0732 86.8971 68.3036 86.921C68.5328 86.9208 68.7747 86.932 69.0039 86.9318C69.2331 86.9317 69.475 86.9429 69.7042 86.9427C69.8131 86.9489 69.9334 86.9425 70.055 86.9601C70.1639 86.9664 70.2842 86.9599 70.4045 86.9535C70.8743 86.9405 71.32 86.9287 71.7784 86.9283L71.9469 86.9193L72.1153 86.9103C72.2356 86.9039 72.3318 86.8987 72.4521 86.8923C72.6686 86.8807 72.9092 86.8679 73.1257 86.8563C73.3423 86.8447 73.5702 86.8205 73.7867 86.8089C74.0147 86.7847 74.2185 86.7617 74.4464 86.7374C74.663 86.7259 74.8782 86.6903 75.0947 86.6787C75.2024 86.6609 75.3113 86.6671 75.4189 86.6493C75.5265 86.6315 75.6354 86.6377 75.743 86.6199C76.1621 86.5613 76.5813 86.5027 77.0004 86.4441C77.4195 86.3855 77.8259 86.3155 78.2323 86.2456C78.4235 86.2112 78.6388 86.1756 78.83 86.1412C79.0211 86.1069 79.2364 86.0713 79.4149 86.0255C79.8087 85.9442 80.1898 85.8514 80.5721 85.7827C80.6671 85.7535 80.7633 85.7484 80.8583 85.7192C80.9532 85.69 81.0494 85.6848 81.1444 85.6556C81.3229 85.6099 81.5255 85.5629 81.704 85.5171C82.061 85.4257 82.4421 85.3329 82.7992 85.2414C83.1435 85.1386 83.5005 85.0471 83.8449 84.9443C84.5349 84.7626 85.1856 84.5227 85.8262 84.3196C88.3619 83.4602 90.4594 82.5278 92.1291 81.7147C92.3404 81.6069 92.5404 81.5118 92.7404 81.4166C92.8341 81.3634 92.9404 81.3215 93.0341 81.2682C93.1278 81.2149 93.2214 81.1617 93.3037 81.1211C93.667 80.9207 93.9961 80.7584 94.3125 80.5846C94.4644 80.4921 94.6176 80.4236 94.7581 80.3437C94.8986 80.2638 95.0277 80.1965 95.1441 80.1179C95.3897 79.9721 95.6238 79.839 95.8112 79.7324C96.0099 79.6132 96.1972 79.5067 96.3959 79.3875C96.5946 79.2683 96.7693 79.1504 96.968 79.0312C97.1667 78.912 97.3414 78.7941 97.5401 78.6749L97.8198 78.4911C97.9135 78.4378 98.0059 78.3605 98.0995 78.3072C98.4729 78.0701 98.8336 77.8216 99.1943 77.5731C99.3689 77.4552 99.555 77.3246 99.7297 77.2067C99.9043 77.0888 100.09 76.9582 100.252 76.8289C100.427 76.711 100.602 76.5931 100.764 76.4638C100.938 76.3459 101.1 76.2166 101.262 76.0873C101.599 75.8401 101.923 75.5815 102.259 75.3343C102.583 75.0757 102.896 74.8298 103.22 74.5712L103.695 74.196C103.857 74.0667 103.994 73.9387 104.145 73.822C106.571 71.8104 108.612 69.8193 110.255 68.0667C110.358 67.9526 110.473 67.8499 110.564 67.7486C110.667 67.6345 110.758 67.5331 110.86 67.4191C111.042 67.2163 111.236 67.0009 111.431 66.8095C111.808 66.4154 112.137 66.0238 112.467 65.6563C112.626 65.4789 112.786 65.3015 112.934 65.1367C113.014 65.048 113.082 64.972 113.15 64.896C113.219 64.8199 113.287 64.7439 113.367 64.6552C113.64 64.351 113.902 64.0596 114.142 63.8175C114.199 63.7542 114.256 63.6908 114.326 63.6388C114.383 63.5755 114.428 63.5248 114.485 63.4614C114.587 63.3473 114.703 63.2447 114.794 63.1433C114.989 62.9519 115.173 62.7973 115.324 62.6807C115.661 62.4334 115.909 62.3357 116.046 62.4129Z" fill="white"/>
<path d="M109.323 74.7638C108.617 75.5495 107.874 76.3251 107.082 77.0792C107.036 77.1299 106.967 77.1819 106.921 77.2326C106.83 77.3339 106.715 77.4366 106.611 77.5266L106.128 77.9626C106.035 78.04 105.932 78.1299 105.852 78.2186C105.622 78.424 105.38 78.642 105.15 78.8473C104.803 79.1312 104.456 79.4152 104.109 79.6991C104.04 79.7511 103.983 79.8145 103.913 79.8664C103.798 79.9691 103.67 80.0604 103.566 80.1504C103.38 80.281 103.196 80.4356 103.01 80.5662C102.859 80.6828 102.708 80.7994 102.558 80.9161L102.465 80.9934C102.419 81.02 102.396 81.0454 102.349 81.072C102.198 81.1886 102.048 81.3052 101.885 81.4105L101.407 81.7376C101.175 81.8948 100.93 82.0647 100.697 82.2219C100.662 82.2359 100.628 82.2739 100.592 82.2878C100.534 82.3271 100.464 82.3791 100.395 82.4311L100.104 82.6276C99.9051 82.7468 99.719 82.8774 99.5089 83.0093L99.4861 83.0346C99.276 83.1665 99.066 83.2983 98.8672 83.4175C98.7267 83.4974 98.5862 83.5773 98.4457 83.6572C98.3761 83.7092 98.3053 83.7371 98.223 83.7777L97.4977 84.2025C97.4041 84.2558 97.3104 84.309 97.2053 84.375L97.0648 84.4549C96.9712 84.5081 96.8535 84.5627 96.7598 84.6159C96.7016 84.6552 96.6421 84.6705 96.5838 84.7098C96.3838 84.8049 96.1851 84.9241 95.9624 85.0446L95.4814 85.2995C95.4459 85.3135 95.4105 85.3274 95.3763 85.3655C95.3181 85.4048 95.2472 85.4327 95.1763 85.4606C95.07 85.5025 94.9649 85.5684 94.8586 85.6103C94.6472 85.7181 94.4231 85.8145 94.2004 85.935C93.1535 86.4373 92.1522 86.8889 91.1015 87.3191C89.8495 87.8203 88.5722 88.2988 87.3037 88.7164C87.1733 88.7596 87.0429 88.8027 86.8999 88.8345C86.3302 89.0097 85.7491 89.1976 85.1426 89.3628L84.7628 89.4796C84.5134 89.5532 84.2513 89.6155 84.0019 89.6891C83.6804 89.7666 83.3588 89.8441 83.0372 89.9216L82.8106 89.9699C82.7156 89.9992 82.608 90.017 82.513 90.0462C82.4181 90.0754 82.3104 90.0932 82.2155 90.1224C82.1205 90.1516 82.0129 90.1694 81.9053 90.1872C81.7977 90.205 81.7027 90.2342 81.5951 90.2521L81.2001 90.3094C80.9139 90.3729 80.6151 90.4251 80.329 90.4886C80.1619 90.5217 79.9947 90.5548 79.8149 90.5764C79.7668 90.579 79.7314 90.593 79.6833 90.5955C79.5997 90.6121 79.4921 90.6299 79.4085 90.6464C79.2768 90.6655 79.1451 90.6846 79.0135 90.7037C78.9058 90.7215 78.7982 90.7394 78.6779 90.7458C78.355 90.7992 78.0081 90.854 77.6726 90.896C77.4092 90.9342 77.1332 90.9611 76.8698 90.9993L76.295 91.0782C76.1873 91.0961 76.0797 91.1139 75.9468 91.1089C75.8265 91.1154 75.7188 91.1332 75.5985 91.1396C75.5023 91.1447 75.3947 91.1625 75.2984 91.1677C75.1541 91.1754 75.0224 91.1945 74.878 91.2022L74.1576 91.2649C73.9891 91.2739 73.8081 91.2715 73.6283 91.2932L73.4358 91.3034L72.7013 91.3306C72.581 91.3371 72.4608 91.3435 72.3278 91.3385L72.1353 91.3488L71.9542 91.3464L71.701 91.3479C71.2907 91.3457 70.869 91.3562 70.4346 91.3553C70.3865 91.3579 70.3384 91.3604 70.3017 91.3503C70.2295 91.3542 70.1333 91.3593 70.0484 91.3518L69.9522 91.3569C69.8559 91.3621 69.7711 91.3546 69.6622 91.3483L69.4824 91.37C69.2886 91.3562 69.0962 91.3665 68.9024 91.3527C68.6365 91.3428 68.3832 91.3443 68.1287 91.3217L68.0197 91.3155C67.8019 91.303 67.5714 91.2791 67.3422 91.2793L67.0155 91.2606C66.8585 91.2569 66.7002 91.2292 66.5431 91.2255L66.1556 91.198C66.0708 91.1904 65.9859 91.1829 65.9011 91.1754C65.8529 91.1779 65.8162 91.1678 65.7554 91.159C65.4768 91.1377 65.1969 91.0924 64.9183 91.0711C64.6638 91.0485 64.3965 91.0145 64.1534 90.9793L63.339 90.8659C63.1807 90.8382 63.0351 90.8219 62.8768 90.7942C62.7552 90.7765 62.6577 90.7576 62.5361 90.74C61.4165 90.5585 60.307 90.3404 59.2558 90.0829C58.1298 89.7812 57.0025 89.4554 55.9461 89.1017C54.8036 88.7164 53.6939 88.269 52.631 87.795C52.3967 87.699 52.1611 87.5788 51.9254 87.4587C51.876 87.4372 51.8507 87.4145 51.8013 87.393C51.5289 87.2628 51.2806 87.1313 51.0082 87.0011L50.9829 86.9783C50.822 86.9025 50.6358 86.8038 50.4736 86.7039C50.3862 86.6483 50.2874 86.6053 50.1999 86.5497L50.0137 86.451C49.939 86.4068 49.8642 86.3625 49.8021 86.3296C49.7654 86.3195 49.7274 86.2854 49.6907 86.2753C49.6032 86.2196 49.4918 86.1653 49.4043 86.1096C48.1437 85.3205 47.2048 84.683 46.3482 84.005C46.2722 83.9366 46.1848 83.881 46.1088 83.8127C45.9453 83.6887 45.7692 83.5534 45.6171 83.4167L44.8847 82.8044C44.5311 82.5097 44.1877 82.1782 43.8582 81.8821C43.7315 81.7683 43.6161 81.6417 43.5021 81.5392C43.3373 81.3912 43.1713 81.2191 43.0179 81.0584C42.9673 81.0129 42.9153 80.9433 42.8519 80.8863C42.633 81.079 42.4027 81.2843 42.1838 81.477C41.2359 82.2515 40.1741 82.9235 39.031 83.431C37.936 83.9359 36.7852 84.299 35.5913 84.5317C35.0304 84.6461 34.4429 84.7137 33.8427 84.7699C33.2906 84.8236 32.7119 84.8304 32.1205 84.8258C31.034 84.8115 29.9183 84.7022 28.7974 84.4967C27.7741 84.3101 26.7228 84.0527 25.6791 83.7103C24.7342 83.411 23.7487 83.0294 22.7846 82.5983C21.0175 81.8121 19.3249 80.841 17.7335 79.7317C17.5827 79.6191 17.4332 79.5306 17.2824 79.418C17.2444 79.3839 17.195 79.3624 17.157 79.3282L17.0936 79.2713C17.0189 79.227 16.9555 79.1701 16.8807 79.1259C16.792 79.0461 16.7046 78.9905 16.6159 78.9108C16.4651 78.7982 16.3017 78.6742 16.1623 78.549L16.0989 78.4921C16.0609 78.4579 16.0229 78.4237 15.9735 78.4022C15.8353 78.3011 15.7086 78.1872 15.5705 78.086C15.4691 77.9949 15.3437 77.9051 15.2423 77.814C15.0155 77.6331 14.8 77.4395 14.5732 77.2586L13.6228 76.4046C12.481 75.3558 11.3708 74.2208 10.3175 73.0225C10.0855 72.7453 9.84088 72.4568 9.60891 72.1797C9.45427 71.9949 9.31229 71.8215 9.18171 71.6355C9.10438 71.5431 9.02706 71.4507 8.94974 71.3584L8.62649 70.9534L8.60116 70.9306C8.50988 70.8028 8.4186 70.675 8.31593 70.5598L8.14732 70.3396C8.00406 70.1422 7.87349 69.9562 7.73152 69.7828C6.90872 68.6083 6.30392 67.6755 5.83724 66.8439C5.77002 66.7148 5.69141 66.5984 5.62419 66.4693L5.45174 66.1769C5.37185 66.0364 5.29066 65.8719 5.22344 65.7427C5.18414 65.6845 5.15621 65.6136 5.11562 65.5313L4.80614 64.9326C4.73892 64.8035 4.6717 64.6744 4.60448 64.5453C4.57656 64.4744 4.54994 64.4276 4.52202 64.3567C4.4548 64.2276 4.40026 64.1099 4.34571 63.9921L4.26453 63.8276C4.18335 63.663 4.10218 63.4985 4.04506 63.3326C3.90805 63.0263 3.78369 62.7313 3.67331 62.4718C3.56421 62.2364 3.49186 62.011 3.43345 61.8211L3.40682 61.7743C3.33574 61.573 3.27862 61.4072 3.23417 61.2527C3.14785 60.9919 3.12746 60.8362 3.15024 60.8108C3.18568 60.7969 3.28834 60.912 3.44555 61.1449C3.52416 61.2613 3.61673 61.4132 3.72326 61.6006C3.76256 61.6588 3.79048 61.7297 3.84246 61.7993C3.90968 61.9284 4.00224 62.0803 4.09481 62.2321C4.22796 62.4663 4.39914 62.7346 4.5716 63.027C4.65149 63.1675 4.74406 63.3194 4.8493 63.4827C4.94187 63.6346 5.04709 63.7978 5.15362 63.9851C5.19292 64.0434 5.23223 64.1016 5.27282 64.1839C5.33875 64.2889 5.41735 64.4053 5.4719 64.5231L5.60377 64.7332C5.68238 64.8496 5.76099 64.966 5.83959 65.0825C5.89157 65.1521 5.93215 65.2344 5.98413 65.304C6.06274 65.4204 6.12997 65.5495 6.22125 65.6773L6.6523 66.2937C7.16324 67.0505 7.79964 67.8972 8.70472 69.0311C8.89866 69.274 9.104 69.5044 9.31062 69.7587C9.41328 69.8739 9.50327 69.9776 9.59454 70.1054L9.63257 70.1396L9.9659 70.5078C10.0205 70.6256 10.1092 70.7053 10.1865 70.7976C10.3272 70.9469 10.4691 71.1203 10.6225 71.281C10.8532 71.5341 11.1079 71.7859 11.3513 72.0503C12.4361 73.1626 13.5539 74.2127 14.6906 75.1653L15.6371 75.9471C15.8386 76.1052 16.0401 76.2634 16.253 76.4088C16.3784 76.4986 16.5165 76.5998 16.6306 76.7023C17.2958 77.1855 17.999 77.7028 18.7478 78.1695C20.2846 79.161 21.91 80.0031 23.5872 80.6855C24.4879 81.0596 25.3973 81.3729 26.2789 81.6154C27.2466 81.8894 28.199 82.1039 29.135 82.2348C31.2626 82.5433 33.2507 82.4974 35.0752 82.0982C36.0766 81.8758 37.0236 81.5357 37.9172 81.1018C38.0704 81.0333 38.2223 80.9408 38.3869 80.8596C38.4451 80.8203 38.5273 80.7797 38.5982 80.7518C38.6919 80.6985 38.7855 80.6453 38.8665 80.5806C38.8779 80.5679 38.902 80.5667 38.9248 80.5413L39.0653 80.4614C39.1235 80.4221 39.1817 80.3828 39.2526 80.3549C39.3804 80.2636 39.5083 80.1723 39.6247 80.0937C39.7057 80.0291 39.7993 79.9758 39.8803 79.9112L39.9499 79.8592C40.1233 79.7172 40.2967 79.5753 40.4814 79.4206C40.6776 79.2533 40.8724 79.0619 41.0673 78.8705L40.938 78.7086L40.8087 78.5466C40.6541 78.3618 40.4981 78.153 40.3435 77.9683L40.1889 77.7835C40.1622 77.7367 40.1242 77.7025 40.0976 77.6557C40.0722 77.6329 40.0709 77.6088 40.0456 77.5861L39.7591 77.1912C39.6944 77.1102 39.6285 77.0052 39.5638 76.9242C39.4459 76.7495 39.3166 76.5875 39.1987 76.4129L38.6725 75.5965L38.3974 75.189C38.3442 75.0953 38.2909 75.0017 38.2376 74.908C38.211 74.8612 38.1844 74.8143 38.1577 74.7675L37.9586 74.4283C37.8534 74.265 37.7722 74.1005 37.667 73.9372C37.601 73.8321 37.5465 73.7144 37.4933 73.6208C37.4793 73.5853 37.4653 73.5499 37.4387 73.503L37.2104 73.0689L36.8743 72.4233C36.8477 72.3765 36.821 72.3297 36.8058 72.2702C36.8045 72.2461 36.7792 72.2233 36.7652 72.1879C36.6282 71.8815 36.4925 71.5993 36.3554 71.2929C36.3288 71.2461 36.3136 71.1866 36.2869 71.1397C36.2337 71.0461 36.2045 70.9511 36.1626 70.8448L35.9811 70.384C35.9101 70.1827 35.8149 69.9827 35.7312 69.77L35.6182 69.4624C35.589 69.3675 35.5598 69.2725 35.5192 69.1902C35.4355 68.9776 35.3631 68.7522 35.2907 68.5269C35.0876 67.8863 34.8959 67.233 34.7421 66.6139C34.5744 65.9594 34.4422 65.2908 34.3467 64.6324C34.2372 63.9386 34.1645 63.2548 34.1298 62.6052C34.0925 61.9075 34.0792 61.2085 34.1281 60.5424C34.2193 59.0898 34.4829 57.7005 34.9086 56.411C34.9401 56.3249 34.9717 56.2387 34.9919 56.1653L35.0867 55.9069C35.1082 55.8575 35.1297 55.8081 35.1398 55.7713C35.1814 55.6485 35.2358 55.537 35.2775 55.4141C35.4608 55.0062 35.6125 54.6844 35.7895 54.3854C36.0108 54.0117 36.2588 53.6848 36.5093 53.406C36.5206 53.3933 36.5434 53.368 36.5548 53.3553C36.885 52.9878 37.2786 52.6772 37.7001 52.4375C38.157 52.1839 38.6419 52.0012 39.1319 51.9147C39.6219 51.8281 40.1524 51.8239 40.6527 51.9299C41.0909 52.003 41.5457 52.1596 41.9789 52.3657C42.3387 52.5515 42.6998 52.7614 43.052 53.0321C43.6311 53.4838 44.1659 54.0101 44.6704 54.6466C45.1243 55.2376 45.5059 55.8325 45.8306 56.4907C45.9258 56.6907 45.9943 56.8439 46.0742 56.9844L46.1287 57.1021L46.267 57.4325L46.4599 57.8806L46.6287 58.3301C46.6439 58.3896 46.6705 58.4364 46.6858 58.4959C46.715 58.5908 46.7569 58.6972 46.7987 58.8035L46.9561 59.2656C47.0399 59.4783 47.0996 59.6922 47.1593 59.9062C47.1885 60.0011 47.2177 60.0961 47.2469 60.191C47.6278 61.4494 47.9138 62.7371 48.1022 64.0058C48.2932 65.3226 48.3754 66.6332 48.346 67.8894C48.3429 68.734 48.2676 69.5825 48.1315 70.4222C48.2562 69.5952 48.3188 68.7353 48.346 67.8894C48.3754 66.6332 48.2932 65.3226 48.1022 64.0058C47.9138 62.7371 47.6278 61.4494 47.2469 60.191C47.2177 60.0961 47.1885 60.0011 47.1593 59.9062C47.0996 59.6922 47.0272 59.4669 46.9561 59.2656L46.7987 58.8035C46.7695 58.7086 46.7277 58.6022 46.6858 58.4959C46.6705 58.4364 46.6439 58.3896 46.6287 58.3301L46.4599 57.8806L46.1287 57.1021L46.0742 56.9844C46.0184 56.8426 45.9372 56.6781 45.8306 56.4907C45.4945 55.8452 45.1243 55.2376 44.6704 54.6466C44.1659 54.0101 43.6539 53.4584 43.0634 53.0195C42.7112 52.7488 42.3615 52.5262 41.9903 52.353C41.5571 52.1469 41.115 52.0017 40.6755 51.9045C40.1638 51.8112 39.6446 51.8028 39.1546 51.8893C38.6646 51.9758 38.1912 52.1459 37.7229 52.4122C37.3014 52.6519 36.9078 52.9625 36.5776 53.33C36.3043 53.6341 36.0336 53.9864 35.7895 54.3854C35.6125 54.6844 35.4494 55.0189 35.2775 55.4141C35.2358 55.537 35.1814 55.6485 35.1398 55.7713C35.1297 55.8081 35.1082 55.8575 35.0867 55.9069L34.9919 56.1653C34.9603 56.2514 34.9401 56.3249 34.9199 56.3983C34.4702 57.6891 34.2079 59.1025 34.1281 60.5424C34.0792 61.2085 34.0925 61.9075 34.1298 62.6052C34.1645 63.2548 34.2372 63.9386 34.3467 64.6324C34.4536 65.2782 34.5858 65.9467 34.7421 66.6139C34.8959 67.233 35.0876 67.8863 35.2907 68.5269C35.3631 68.7522 35.4469 68.9649 35.5192 69.1902C35.5598 69.2725 35.589 69.3675 35.6182 69.4624L35.7312 69.77C35.8023 69.9713 35.9088 70.1587 35.9799 70.36L36.1613 70.8207C36.2032 70.9271 36.2438 71.0094 36.2857 71.1157C36.3123 71.1625 36.3275 71.222 36.3542 71.2689C36.4785 71.5638 36.6269 71.8575 36.7639 72.1638C36.7652 72.1879 36.7905 72.2106 36.8045 72.2461C36.8311 72.2929 36.8464 72.3524 36.873 72.3993L36.9808 72.6107L37.2091 73.0448L37.4387 73.503C37.4653 73.5499 37.4793 73.5853 37.4933 73.6208C37.5592 73.7258 37.601 73.8321 37.667 73.9372C37.7722 74.1005 37.8534 74.265 37.9586 74.4283L38.1577 74.7675C38.1844 74.8143 38.211 74.8612 38.2376 74.908C38.2909 75.0017 38.3442 75.0953 38.3974 75.189L38.6599 75.5851L39.186 76.4015C39.304 76.5761 39.4345 76.7622 39.5638 76.9242C39.6285 77.0052 39.6944 77.1102 39.7591 77.1912L40.0456 77.5861C40.0709 77.6088 40.0722 77.6329 40.0976 77.6557C40.1242 77.7025 40.1495 77.7253 40.1762 77.7721L40.3308 77.9569C40.4854 78.1416 40.6541 78.3618 40.8087 78.5466L40.938 78.7086L41.0673 78.8705C42.0074 77.9517 42.8157 76.8227 43.4744 75.6053L43.4225 75.5357L43.2932 75.3737C43.2551 75.3395 43.2412 75.3041 43.2146 75.2572C43.2019 75.2459 43.1879 75.2104 43.1753 75.199L42.928 74.8624C42.8634 74.7814 42.7988 74.7004 42.7455 74.6067C42.6415 74.4675 42.5249 74.3169 42.421 74.1777L42.407 74.1423C42.2498 73.9094 42.1052 73.6879 41.9607 73.4664L41.7249 73.1171C41.6729 73.0475 41.6323 72.9652 41.5917 72.8829C41.5651 72.8361 41.5385 72.7893 41.5118 72.7424L41.3926 72.5437C41.2861 72.3564 41.1682 72.1817 41.0743 72.0058C41.0211 71.9121 40.9678 71.8185 40.9146 71.7248C40.9006 71.6894 40.8752 71.6666 40.8613 71.6311L40.6483 71.2565L40.3401 70.6818C40.3134 70.635 40.2995 70.5996 40.2728 70.5527C40.2716 70.5287 40.2462 70.5059 40.2449 70.4818L39.8657 69.7059C39.839 69.659 39.8124 69.6122 39.7984 69.5768C39.7579 69.4945 39.7173 69.4122 39.6767 69.3299L39.5105 68.9287C39.4001 68.6691 39.277 68.3983 39.178 68.1261C39.1488 68.0311 39.1082 67.9488 39.0664 67.8425C39.0092 67.6767 38.9395 67.4994 38.8697 67.3222C38.4965 66.2082 38.184 65.1029 38.0059 64.0267C37.7998 62.8796 37.7166 61.7741 37.7562 60.7104C37.8047 59.5859 37.976 58.503 38.2855 57.5214C38.2943 57.4606 38.3272 57.3985 38.3474 57.325L38.4219 57.1401L38.5584 56.7588C38.6645 56.4877 38.7619 56.2774 38.8618 56.1153C38.9718 55.9164 39.0844 55.7656 39.1868 55.6515C39.1982 55.6389 39.2096 55.6262 39.2096 55.6262C39.2893 55.5375 39.3817 55.4602 39.4867 55.3942C39.5918 55.3283 39.6981 55.2864 39.8057 55.2686C39.9134 55.2508 40.0096 55.2456 40.1312 55.2633C40.3984 55.2972 40.7569 55.459 41.0965 55.7184C41.4475 55.965 41.8036 56.3079 42.1268 56.7128C42.4501 57.1178 42.7506 57.5481 42.9788 57.9823C43.0321 58.0759 43.0993 58.205 43.1539 58.3228L43.1945 58.405L43.3188 58.7L43.4749 59.138L43.6411 59.5393C43.7388 59.7874 43.8492 60.0469 43.9229 60.2963L43.9381 60.3558C44.0079 60.5331 44.0663 60.7229 44.1247 60.9129C44.1539 61.0078 44.1831 61.1028 44.211 61.1736C44.5716 62.2763 44.8612 63.4069 45.0407 64.5072C45.2341 65.6429 45.3312 66.7838 45.3296 67.8817C45.3432 69.0391 45.234 70.1548 45.0233 71.1795C44.8153 72.2522 44.497 73.2947 44.0799 74.2941C43.8865 74.7388 43.6691 75.1847 43.4504 75.6066L43.9523 76.195L44.1463 76.438L44.505 76.829L45.069 77.4503C45.1843 77.5768 45.2984 77.6793 45.4137 77.8058C45.5024 77.8855 45.5671 77.9665 45.6558 78.0462C45.7191 78.1032 45.7711 78.1728 45.8345 78.2297C45.9625 78.3676 46.1145 78.5042 46.2539 78.6295C46.3807 78.7434 46.4947 78.8458 46.6088 78.9483C46.9002 79.2102 47.1803 79.4848 47.4946 79.7213L48.1256 80.2425C48.2637 80.3437 48.4019 80.4449 48.54 80.5461C48.6274 80.6018 48.7034 80.6701 48.7908 80.7257C49.7336 81.4354 50.7319 82.0576 51.4921 82.5116C51.5795 82.5672 51.6543 82.6115 51.7404 82.6431C51.7771 82.6532 51.8025 82.6759 51.8519 82.6974C51.9634 82.7518 52.0635 82.8188 52.1749 82.8732L52.2003 82.8959C52.2877 82.9516 52.3738 82.9832 52.4613 83.0388C52.6108 83.1274 52.759 83.1918 52.9085 83.2803C53.1441 83.4005 53.3911 83.5079 53.6268 83.628C53.6762 83.6495 53.7129 83.6596 53.7509 83.6937C53.9372 83.7924 54.1348 83.8783 54.3324 83.9643C55.2711 84.3725 56.2679 84.7415 57.2623 85.0623C58.2199 85.373 59.223 85.6331 60.2489 85.8678C61.2014 86.0823 62.2007 86.2701 63.2341 86.42L63.9877 86.5245C64.2308 86.5597 64.4613 86.5836 64.7045 86.6189L64.7285 86.6176C65.0806 86.6591 65.42 86.6892 65.7594 86.7193L66.1836 86.7569C66.2318 86.7544 66.2685 86.7645 66.3052 86.7746C66.3901 86.7821 66.4509 86.7909 66.5357 86.7985L66.6687 86.8034C66.7409 86.7995 66.8257 86.8071 66.8865 86.8159L67.6008 86.8622C67.7464 86.8785 67.9034 86.8822 68.0491 86.8985L68.315 86.9084C68.4961 86.9108 68.6772 86.9132 68.8582 86.9156L69.0393 86.918C69.2685 86.9178 69.5104 86.929 69.7396 86.9288C69.8359 86.9236 69.9207 86.9312 70.0169 86.926L70.0891 86.9222C70.1613 86.9183 70.2335 86.9145 70.3183 86.922C70.3665 86.9194 70.4032 86.9295 70.4386 86.9156C70.9084 86.9025 71.3668 86.9021 71.8126 86.8904L71.981 86.8814L72.1494 86.8724C72.2697 86.8659 72.3659 86.8608 72.4862 86.8544C72.6546 86.8454 72.823 86.8364 73.0028 86.8147L73.3878 86.7941C73.5321 86.7864 73.6765 86.7787 73.8322 86.7583L74.1083 86.7315C74.24 86.7124 74.3602 86.7059 74.4919 86.6868C74.7085 86.6753 74.9237 86.6396 75.1402 86.6281L75.4644 86.5987C75.5847 86.5922 75.6923 86.5744 75.7759 86.5579C76.0152 86.521 76.2672 86.4954 76.5065 86.4585L77.0332 86.3821C77.3447 86.3413 77.6435 86.2892 77.9423 86.237C78.0499 86.2192 78.1575 86.2014 78.2652 86.1836C78.4082 86.1518 78.5399 86.1327 78.6957 86.1123L78.8628 86.0792C78.9109 86.0767 78.9463 86.0627 78.9945 86.0601C79.1502 86.0397 79.3047 85.9953 79.4604 85.9749L79.568 85.9571C79.9263 85.8897 80.272 85.8109 80.6176 85.7321C80.6771 85.7169 80.7252 85.7143 80.7847 85.699L80.9038 85.6686C81.0114 85.6507 81.0949 85.6342 81.1899 85.605C81.3684 85.5593 81.571 85.5122 81.7495 85.4665L81.809 85.4513C82.166 85.3598 82.5117 85.281 82.8446 85.1908L83.2244 85.074C83.4498 85.0016 83.6637 84.9419 83.8891 84.8696C84.436 84.7197 84.9576 84.5471 85.4551 84.3757C85.5855 84.3325 85.7273 84.2767 85.8704 84.2449C88.0149 83.5151 90.0809 82.6687 92.1733 81.64L92.7847 81.3419C92.8783 81.2887 92.9847 81.2468 93.0669 81.2062C93.1378 81.1783 93.1847 81.1517 93.2429 81.1124C93.2783 81.0984 93.3011 81.0731 93.3366 81.0591C93.6998 80.8587 94.0289 80.6964 94.3454 80.5226C94.4036 80.4833 94.4631 80.4681 94.5099 80.4414C94.6036 80.3882 94.6972 80.3349 94.7795 80.2943C94.8732 80.2411 94.9555 80.2005 95.0251 80.1485L95.1656 80.0686L95.3883 79.9481C95.5516 79.8429 95.7048 79.7744 95.8326 79.6831C95.9149 79.6425 95.9731 79.6032 96.0554 79.5626C96.1845 79.4954 96.3009 79.4168 96.43 79.3496C96.5237 79.2963 96.6174 79.2431 96.7098 79.1657C96.8034 79.1125 96.9085 79.0465 97.0021 78.9933C97.1895 78.8868 97.3755 78.7562 97.5628 78.6496L97.8425 78.4658C97.9008 78.4265 97.959 78.3872 98.0172 78.3479C98.0526 78.3339 98.0868 78.2959 98.1223 78.282L98.2741 78.1894C98.5893 77.9916 98.9031 77.7697 99.2183 77.5719C99.3588 77.492 99.498 77.3881 99.6258 77.2968C99.6727 77.2701 99.7068 77.2321 99.7537 77.2055C99.9283 77.0876 100.114 76.957 100.289 76.8391C100.394 76.7732 100.486 76.6958 100.591 76.6299L100.824 76.4727C100.941 76.3941 101.033 76.3168 101.15 76.2382C101.208 76.1989 101.277 76.1469 101.336 76.1076L101.8 75.7691C101.986 75.6385 102.16 75.4965 102.346 75.366C102.53 75.2113 102.728 75.0681 102.901 74.9261C103.04 74.8221 103.167 74.7068 103.306 74.6028L103.781 74.2276C103.873 74.1503 103.977 74.0603 104.069 73.983C104.115 73.9323 104.173 73.893 104.243 73.841C105.362 72.9005 106.491 71.8992 107.582 70.8637C108.523 69.9689 109.451 69.0387 110.353 68.0856C110.387 68.0476 110.433 67.9969 110.467 67.9589C110.524 67.8956 110.581 67.8322 110.638 67.7688C110.729 67.6675 110.843 67.5407 110.934 67.4394C111.104 67.2493 111.264 67.0718 111.447 66.8931L111.504 66.8298C111.745 66.5877 111.948 66.3355 112.153 66.1074C112.29 65.9554 112.404 65.8286 112.529 65.6892C112.688 65.5118 112.848 65.3344 112.996 65.1697C113.064 65.0936 113.133 65.0176 113.201 64.9416L113.224 64.9162C113.292 64.8402 113.36 64.7642 113.44 64.6754C113.713 64.3713 113.975 64.0798 114.216 63.8378L114.399 63.6591L114.558 63.4817C114.661 63.3676 114.776 63.2649 114.867 63.1636C115.062 62.9722 115.247 62.8175 115.397 62.7009C115.71 62.455 115.947 62.37 116.096 62.4585C116.233 62.5356 116.283 62.7863 116.231 63.1751C116.206 63.3816 116.158 63.6133 116.087 63.8705C116.058 64.0047 116.018 64.1516 115.966 64.3112L115.894 64.5443C115.874 64.6177 115.83 64.6925 115.809 64.766L115.798 64.7786C115.672 65.1232 115.51 65.4817 115.351 65.8883L115.319 65.9744C115.275 66.0492 115.255 66.1226 115.223 66.2088C115.18 66.3076 115.126 66.4191 115.071 66.5305C114.963 66.7535 114.841 66.9651 114.732 67.1881C114.688 67.2628 114.645 67.3616 114.601 67.4363C114.392 67.8215 114.196 68.218 113.952 68.6171C113.797 68.8667 113.654 69.1277 113.487 69.3899L113.397 69.5154C113.341 69.6028 113.286 69.6902 113.23 69.7777C113.174 69.8651 113.119 69.9525 113.063 70.0399C113.029 70.0779 113.008 70.1273 112.973 70.1654C112.237 71.2905 111.381 72.422 110.464 73.5447C110.063 73.9401 109.698 74.3456 109.323 74.7638ZM42.8519 80.8863C42.9153 80.9433 42.9673 81.0129 43.0179 81.0584C43.1713 81.2191 43.3247 81.3798 43.5021 81.5392C43.6288 81.6531 43.7555 81.767 43.8582 81.8821C44.189 82.2022 44.5197 82.5223 44.8847 82.8044L45.593 83.418C45.7565 83.542 45.9326 83.6773 46.0847 83.814C46.1607 83.8823 46.2482 83.9379 46.3242 84.0063C47.1808 84.6843 48.1196 85.3218 49.3803 86.1109C49.4804 86.178 49.5678 86.2336 49.6666 86.2766C49.7033 86.2867 49.7414 86.3208 49.7781 86.3309C49.8528 86.3752 49.9149 86.4081 49.9897 86.4523L50.1759 86.5509C50.2633 86.6066 50.3621 86.6496 50.4495 86.7052C50.6117 86.8051 50.8093 86.8911 50.9829 86.9783L51.0082 87.0011C51.2806 87.1313 51.5175 87.2755 51.7899 87.4057C51.8393 87.4272 51.876 87.4372 51.9254 87.4587C52.1484 87.5675 52.3726 87.7002 52.607 87.7963C53.6825 88.2817 54.7921 88.729 55.922 89.103C56.9911 89.4681 58.1057 89.7825 59.2545 90.0588C60.3058 90.3163 61.4038 90.5472 62.5361 90.74C62.6577 90.7576 62.7552 90.7765 62.8768 90.7942C63.0351 90.8219 63.1934 90.8496 63.339 90.8659L64.1648 90.9666C64.4193 90.9892 64.6752 91.0358 64.9183 91.0711C65.1969 91.0924 65.4768 91.1377 65.7554 91.159C65.8162 91.1678 65.8529 91.1779 65.9011 91.1754C65.9859 91.1829 66.0822 91.1778 66.167 91.1853L66.5431 91.2255C66.7002 91.2292 66.8458 91.2455 67.0155 91.2606L67.3536 91.2666C67.5841 91.2905 67.7905 91.3157 68.0197 91.3155L68.1287 91.3217C68.3946 91.3316 68.6478 91.3302 68.9024 91.3527C69.0962 91.3665 69.2886 91.3562 69.4824 91.37L69.6875 91.3711C69.7838 91.366 69.8686 91.3735 69.9775 91.3797L70.0738 91.3746C70.1586 91.3821 70.2308 91.3782 70.327 91.3731C70.3751 91.3705 70.4233 91.368 70.46 91.3781C70.8817 91.3676 71.2793 91.3584 71.701 91.3479L71.9542 91.3464L72.148 91.3602L72.3278 91.3385C72.4481 91.3321 72.581 91.3371 72.7013 91.3306L73.4358 91.3034L73.6283 91.2932C73.7967 91.2842 73.9891 91.2739 74.1576 91.2649L74.878 91.2022C75.0224 91.1945 75.1541 91.1754 75.2984 91.1677C75.3947 91.1625 75.5023 91.1447 75.5985 91.1396C75.7188 91.1332 75.8265 91.1154 75.9468 91.1089C76.0784 91.0898 76.1987 91.0834 76.295 91.0782L76.8698 90.9993C77.1332 90.9611 77.4092 90.9342 77.6726 90.896C78.0081 90.854 78.355 90.7992 78.6779 90.7458C78.7855 90.728 78.8931 90.7101 79.0008 90.6923C79.1325 90.6732 79.2515 90.6427 79.3831 90.6236C79.4667 90.6071 79.5743 90.5893 79.6579 90.5728C79.706 90.5702 79.7415 90.5562 79.7896 90.5537C79.9567 90.5206 80.1365 90.4989 80.3036 90.4659C80.5898 90.4023 80.8886 90.3501 81.1747 90.2866L81.5685 90.2052C81.6761 90.1874 81.771 90.1582 81.8787 90.1404C81.9863 90.1226 82.0939 90.1048 82.1889 90.0756C82.2838 90.0464 82.3915 90.0285 82.4991 90.0107C82.594 89.9815 82.7017 89.9637 82.7966 89.9345L83.0232 89.8862C83.3448 89.8087 83.6664 89.7312 83.988 89.6537C84.2374 89.58 84.4995 89.5178 84.7489 89.4441L85.1413 89.3387C85.7478 89.1736 86.3288 88.9857 86.8985 88.8104C87.0289 88.7673 87.1594 88.7241 87.2898 88.681C88.5709 88.2747 89.8483 87.7963 91.0876 87.2837C92.1269 86.8662 93.1396 86.4019 94.1864 85.8996C94.4218 85.7905 94.6332 85.6827 94.8446 85.5748C94.951 85.533 95.056 85.467 95.1623 85.4252C95.2332 85.3972 95.2915 85.3579 95.3624 85.33C95.3978 85.3161 95.4332 85.3021 95.4674 85.2641L95.9484 85.0092C96.1712 84.8887 96.3712 84.7935 96.5699 84.6743C96.6281 84.635 96.6876 84.6198 96.7458 84.5805C96.8635 84.5259 96.9572 84.4727 97.0509 84.4194L97.1914 84.3395C97.2964 84.2736 97.3901 84.2203 97.4838 84.1671L98.209 83.7422C98.2786 83.6903 98.3609 83.6497 98.4318 83.6218C98.5723 83.5419 98.7128 83.462 98.8406 83.3707C99.0507 83.2388 99.2608 83.107 99.4595 82.9878L99.4823 82.9624C99.681 82.8432 99.8671 82.7127 100.077 82.5808L100.392 82.383C100.451 82.3437 100.52 82.2917 100.59 82.2397C100.613 82.2144 100.659 82.1877 100.695 82.1738C100.928 82.0166 101.172 81.8467 101.405 81.6895L101.882 81.3624C102.045 81.2571 102.196 81.1405 102.346 81.0239C102.381 80.9859 102.416 80.9719 102.463 80.9453L102.555 80.868C102.706 80.7513 102.856 80.6347 103.02 80.5295C103.206 80.3989 103.39 80.2442 103.577 80.1137C103.704 80.0224 103.82 79.9197 103.923 79.8297C103.981 79.7904 104.038 79.7271 104.108 79.6751C104.455 79.3911 104.813 79.0945 105.16 78.8106C105.401 78.5926 105.632 78.3873 105.862 78.1819C105.954 78.1046 106.058 78.0146 106.138 77.9259L106.621 77.4899C106.739 77.4353 106.841 77.3213 106.945 77.2313C106.991 77.1806 107.048 77.1172 107.106 77.0779C108.288 75.9411 109.395 74.7599 110.414 73.5232C111.344 72.4119 112.188 71.269 112.937 70.1552C112.971 70.1172 112.992 70.0678 113.026 70.0298C113.082 69.9424 113.138 69.855 113.193 69.7675C113.249 69.6801 113.305 69.5927 113.36 69.5053L113.45 69.3798C113.606 69.1302 113.749 68.8693 113.916 68.607C114.16 68.2079 114.38 67.8101 114.564 67.4263C114.62 67.3388 114.651 67.2527 114.696 67.178C114.804 66.955 114.926 66.7434 115.034 66.5204C115.089 66.409 115.143 66.2975 115.186 66.1987C115.218 66.1126 115.251 66.0505 115.282 65.9643L115.314 65.8782C115.486 65.483 115.646 65.1004 115.761 64.7685L115.76 64.7445C115.791 64.6583 115.824 64.5963 115.845 64.5228L115.917 64.2897C115.968 64.1301 116.009 63.9832 116.038 63.849C116.107 63.5678 116.155 63.336 116.182 63.1536C116.233 62.7648 116.184 62.5141 116.047 62.437C115.91 62.3599 115.673 62.4449 115.348 62.6794C115.197 62.7961 115.013 62.9507 114.818 63.1421C114.714 63.2321 114.623 63.3335 114.509 63.4602L114.35 63.6376L114.178 63.8036C113.995 64.0064 113.778 64.2231 113.561 64.4639C113.504 64.5273 113.448 64.5906 113.391 64.654C113.322 64.73 113.254 64.806 113.174 64.8948L113.151 64.9201C113.083 64.9961 113.015 65.0722 112.946 65.1482C112.798 65.313 112.639 65.4904 112.48 65.6678C112.354 65.8072 112.229 65.9466 112.104 66.086C111.899 66.3141 111.683 66.5549 111.455 66.8083L111.398 66.8717C111.227 67.0618 111.068 67.2392 110.884 67.4179C110.793 67.5192 110.691 67.6333 110.6 67.7347C110.543 67.798 110.474 67.8741 110.417 67.9374C110.383 67.9755 110.338 68.0261 110.304 68.0642C109.401 69.0172 108.474 69.9474 107.533 70.8422C106.442 71.8777 105.313 72.879 104.193 73.8195C104.135 73.8588 104.089 73.9095 104.02 73.9615C103.927 74.0388 103.824 74.1288 103.731 74.2061L103.257 74.5813C103.117 74.6853 102.991 74.8006 102.852 74.9046C102.678 75.0466 102.481 75.1898 102.296 75.3445C102.11 75.4751 101.937 75.617 101.751 75.7476L101.286 76.0861C101.228 76.1254 101.158 76.1774 101.1 76.2167C100.996 76.3067 100.891 76.3726 100.775 76.4512L100.542 76.6084C100.437 76.6744 100.345 76.7517 100.24 76.8176C100.065 76.9355 99.8789 77.0661 99.7169 77.1954C99.6701 77.222 99.6359 77.2601 99.5891 77.2867C99.4613 77.378 99.3221 77.4819 99.1816 77.5618C98.8664 77.7596 98.5526 77.9815 98.2374 78.1793L98.0855 78.2718C98.0501 78.2858 98.0159 78.3238 97.9804 78.3378C97.9222 78.3771 97.864 78.4164 97.8058 78.4557L97.5134 78.6281C97.3261 78.7347 97.1514 78.8526 96.9641 78.9591C96.8705 79.0124 96.754 79.091 96.6603 79.1442C96.5667 79.1975 96.4857 79.2622 96.3806 79.3281C96.2642 79.4067 96.1351 79.4739 96.006 79.5411C95.9364 79.5931 95.8655 79.621 95.7959 79.673C95.6554 79.7529 95.5035 79.8455 95.3389 79.9266L95.1288 80.0585L94.9883 80.1384C94.9061 80.179 94.8251 80.2436 94.7428 80.2842C94.6491 80.3375 94.5669 80.3781 94.4732 80.4313C94.4264 80.458 94.3681 80.4973 94.3086 80.5125C94.0036 80.6736 93.6758 80.86 93.2998 81.049C93.2644 81.063 93.2416 81.0883 93.2062 81.1023C93.1479 81.1416 93.0884 81.1568 93.0302 81.1961C92.9366 81.2494 92.8416 81.2786 92.7479 81.3318L92.1505 81.6654C90.0467 82.7067 87.9808 83.5531 85.8476 84.2703C85.7172 84.3134 85.5754 84.3693 85.445 84.4124C84.9348 84.5724 84.4259 84.7564 83.879 84.9063C83.665 84.966 83.4397 85.0384 83.2143 85.1107L82.8345 85.2276C82.5016 85.3177 82.1559 85.3965 81.7989 85.488L81.7394 85.5032C81.5609 85.549 81.3583 85.596 81.1798 85.6417C81.0962 85.6583 81.0013 85.6875 80.8937 85.7053L80.7747 85.7358C80.7151 85.751 80.667 85.7536 80.6075 85.7688C80.2619 85.8476 79.9036 85.915 79.5579 85.9938L79.4503 86.0116C79.2958 86.0561 79.1401 86.0765 78.9844 86.0969C78.9489 86.1108 78.9008 86.1134 78.8527 86.116L78.6856 86.149C78.5425 86.1808 78.4108 86.1999 78.2551 86.2203C78.1474 86.2381 78.0398 86.2559 77.9322 86.2737C77.6334 86.3259 77.3346 86.3781 77.0231 86.4188L76.4963 86.4952C76.257 86.5322 76.0178 86.5691 75.7658 86.5946C75.6822 86.6111 75.5746 86.629 75.4416 86.624L75.1175 86.6534C74.9136 86.6764 74.6857 86.7006 74.4691 86.7122C74.3489 86.7186 74.2172 86.7377 74.0855 86.7568L73.8335 86.7824C73.6892 86.7901 73.5448 86.7978 73.3891 86.8182L73.0168 86.8501C72.8484 86.8591 72.68 86.8681 72.5002 86.8898C72.3799 86.8963 72.2836 86.9014 72.1633 86.9078L71.9822 86.9054L71.8138 86.9144C71.3681 86.9262 70.8983 86.9392 70.4399 86.9396C70.3918 86.9422 70.3551 86.9321 70.3196 86.946C70.2474 86.9499 70.1753 86.9538 70.0904 86.9462L70.0182 86.9501C69.922 86.9552 69.8372 86.9477 69.7409 86.9529C69.5117 86.953 69.2698 86.9418 69.0406 86.942L68.8595 86.9396C68.6784 86.9372 68.4974 86.9349 68.3163 86.9325L68.0503 86.9226C67.9047 86.9062 67.7477 86.9026 67.602 86.8862L66.8878 86.84C66.8156 86.8438 66.7308 86.8363 66.67 86.8275L66.5357 86.7985C66.4509 86.7909 66.3673 86.8074 66.2938 86.7872C66.2571 86.7771 66.209 86.7797 66.1609 86.7823L65.7366 86.7446C65.3972 86.7145 65.0452 86.673 64.7058 86.6429L64.6817 86.6442C64.4512 86.6203 64.2081 86.5851 63.9649 86.5498L63.224 86.4567C62.2019 86.2942 61.1913 86.119 60.2388 85.9045C59.2129 85.6698 58.2098 85.4098 57.2522 85.099C56.2579 84.7782 55.261 84.4092 54.3223 84.001C54.1247 83.915 53.927 83.8291 53.7408 83.7305C53.6914 83.709 53.6547 83.6989 53.6167 83.6647C53.381 83.5446 53.134 83.4372 52.8984 83.3171C52.7375 83.2412 52.6007 83.1641 52.4512 83.0756C52.3637 83.0199 52.2776 82.9883 52.1902 82.9327L52.1648 82.9099C52.0534 82.8556 51.9533 82.7885 51.8418 82.7342C51.8164 82.7114 51.7797 82.7013 51.743 82.6912C51.6682 82.6469 51.5694 82.6039 51.482 82.5483C50.7218 82.0943 49.7235 81.4721 48.7807 80.7625C48.6933 80.7068 48.6173 80.6385 48.5299 80.5829C48.3918 80.4817 48.2536 80.3805 48.1155 80.2793L47.4845 79.7581C47.1816 79.5089 46.8902 79.247 46.5987 78.9851C46.4846 78.8826 46.3579 78.7687 46.2439 78.6662C46.1045 78.541 45.9524 78.4044 45.8244 78.2664C45.761 78.2095 45.709 78.1399 45.6457 78.083C45.557 78.0033 45.4923 77.9223 45.4036 77.8426C45.1911 78.1555 44.9786 78.4685 44.7535 78.77C44.202 79.5113 43.5529 80.2336 42.8519 80.8863ZM42.8519 80.8863C43.2088 80.5657 43.539 80.1982 43.8578 79.8433C44.4271 79.2097 44.9458 78.5305 45.4137 77.8058C45.2984 77.6793 45.1843 77.5768 45.069 77.4503L44.505 76.829L44.1463 76.438L43.9523 76.195L43.4744 75.6053C42.9371 76.6112 42.2983 77.526 41.581 78.3243C41.4102 78.5144 41.2394 78.7045 41.0559 78.8832L41.1459 78.987L41.2232 79.0794L41.5439 79.4362C41.7112 79.6323 41.8785 79.8285 42.0446 80.0006L42.1726 80.1385L42.8139 80.8522C42.8266 80.8636 42.8519 80.8863 42.8519 80.8863ZM3.15024 60.8108C3.12746 60.8362 3.13646 61.0046 3.22279 61.2654C3.26595 61.3958 3.32436 61.5857 3.38277 61.7756L3.4094 61.8224C3.46781 62.0123 3.55155 62.225 3.64926 62.4731C3.75964 62.7326 3.8713 63.0162 4.02098 63.3339C4.09078 63.5111 4.17197 63.6757 4.24048 63.8289L4.32166 63.9934C4.37621 64.1111 4.44342 64.2403 4.49797 64.358C4.53727 64.4162 4.55251 64.4757 4.58043 64.5466C4.63498 64.6643 4.70221 64.7934 4.76943 64.9225L5.11562 65.5313C5.15493 65.5896 5.18285 65.6605 5.22344 65.7427C5.29066 65.8719 5.37185 66.0364 5.45174 66.1769L5.62419 66.4693C5.69141 66.5984 5.77002 66.7148 5.83724 66.8439C6.31531 67.6629 6.92011 68.5956 7.73152 69.7828C7.86211 69.9688 8.01674 70.1536 8.14732 70.3396L8.31593 70.5598C8.40721 70.6877 8.49849 70.8155 8.60116 70.9306L8.62649 70.9534L8.94974 71.3584C9.02706 71.4507 9.10438 71.5431 9.18171 71.6355C9.32368 71.8089 9.46694 72.0063 9.60891 72.1797C9.84088 72.4568 10.0728 72.7339 10.3175 73.0225C11.3708 74.2208 12.481 75.3558 13.6228 76.4046L14.5732 77.2586C14.7887 77.4522 15.0155 77.6331 15.2423 77.814C15.3437 77.9051 15.4691 77.9949 15.5705 78.086C15.6972 78.1999 15.8353 78.3011 15.9735 78.4022C16.0115 78.4364 16.0495 78.4706 16.0989 78.4921L16.1623 78.549C16.313 78.6616 16.4765 78.7855 16.6159 78.9108C16.7046 78.9905 16.792 79.0461 16.8807 79.1259C16.9555 79.1701 17.0189 79.227 17.0936 79.2713L17.157 79.3282C17.195 79.3624 17.2444 79.3839 17.2824 79.418C17.4205 79.5192 17.5713 79.6318 17.7335 79.7317C19.3249 80.841 21.0175 81.8121 22.7846 82.5983C23.7487 83.0294 24.7215 83.3996 25.6791 83.7103C26.7101 84.0413 27.7741 84.3101 28.7974 84.4967C29.9183 84.7022 31.0581 84.8102 32.1205 84.8258C32.7119 84.8304 33.2906 84.8236 33.8427 84.7699C34.4429 84.7137 35.0304 84.6461 35.5913 84.5317C38.0514 84.0624 40.3349 82.9993 42.1838 81.477C42.4154 81.2957 42.6457 81.0904 42.8519 80.8863C42.8392 80.875 42.8266 80.8636 42.8139 80.8522L42.1625 80.1752L42.0344 80.0373C41.8671 79.8412 41.6998 79.645 41.5338 79.4729L41.1358 79.0237L41.0458 78.9199C40.8509 79.1113 40.6675 79.29 40.4599 79.47C40.2866 79.612 40.1132 79.7539 39.9284 79.9086L39.8588 79.9606C39.7779 80.0252 39.6842 80.0785 39.6032 80.1431C39.4754 80.2344 39.3589 80.313 39.2311 80.4043C39.1729 80.4436 39.1147 80.4829 39.0438 80.5108L38.9134 80.554C38.902 80.5667 38.8893 80.5553 38.8665 80.5806C38.7729 80.6339 38.6805 80.7112 38.5742 80.7531C38.5033 80.781 38.4337 80.833 38.3628 80.8609C38.2223 80.9408 38.0577 81.022 37.8932 81.1031C36.9995 81.5369 36.0526 81.8771 35.0511 82.0995C33.2393 82.51 31.2386 82.5446 29.1109 82.2361C28.175 82.1051 27.2225 81.8906 26.2548 81.6166C25.3606 81.3628 24.4511 81.0495 23.5505 80.6754C21.8733 79.993 20.2479 79.151 18.7237 78.1708C17.9863 77.6915 17.2717 77.1868 16.6065 76.7036C16.4811 76.6138 16.3543 76.4999 16.2289 76.4101C16.0274 76.252 15.826 76.0939 15.6131 75.9484L14.6665 75.1666C13.5298 74.214 12.4121 73.1639 11.3272 72.0516C11.0839 71.7872 10.8291 71.5354 10.5984 71.2823C10.4451 71.1216 10.3031 70.9482 10.1624 70.7989C10.0851 70.7066 9.99512 70.6028 9.90641 70.5231L9.57305 70.1548L9.53503 70.1207C9.43237 70.0055 9.34238 69.9018 9.2511 69.774C9.04448 69.5196 8.83915 69.2893 8.6452 69.0463C7.75279 67.9238 7.12779 67.0645 6.59278 66.3089L6.16174 65.6926C6.07046 65.5648 5.99186 65.4483 5.92464 65.3192C5.87266 65.2496 5.83208 65.1673 5.7801 65.0977C5.7015 64.9813 5.62289 64.8649 5.54428 64.7484L5.41241 64.5383C5.3338 64.4219 5.26785 64.3168 5.21331 64.1991C5.174 64.1409 5.13341 64.0586 5.0941 64.0004C4.98886 63.8371 4.89502 63.6612 4.78979 63.4979C4.68455 63.3346 4.59197 63.1827 4.51208 63.0422C4.33962 62.7499 4.19251 62.4803 4.03529 62.2474C3.94273 62.0955 3.85016 61.9436 3.78294 61.8145C3.74235 61.7322 3.70307 61.674 3.66377 61.6158C3.55724 61.4285 3.46467 61.2766 3.38606 61.1602C3.27696 60.9247 3.19707 60.7842 3.15024 60.8108ZM39.1868 55.6515C39.1754 55.6642 39.1767 55.6883 39.1767 55.6883C39.0743 55.8023 38.9743 55.9645 38.8517 56.152C38.7518 56.3142 38.6544 56.5245 38.5483 56.7955L38.4118 57.1768L38.3372 57.3617C38.3044 57.4238 38.2956 57.4846 38.2754 57.5581C37.9659 58.5397 37.7819 59.6112 37.7461 60.7471C37.7065 61.8109 37.791 62.9404 37.9958 64.0634C38.1853 65.127 38.4863 66.2449 38.8596 67.3589C38.9293 67.5362 38.9865 67.702 39.0563 67.8792C39.0855 67.9742 39.1261 68.0565 39.1553 68.1514C39.2656 68.4109 39.3887 68.6818 39.4877 68.954L39.6539 69.3553C39.6945 69.4376 39.7351 69.5198 39.7757 69.6021C39.8023 69.649 39.8289 69.6958 39.8429 69.7312L40.2222 70.5072C40.2234 70.5312 40.2488 70.554 40.2501 70.5781C40.264 70.6135 40.2907 70.6603 40.3046 70.6958L40.4124 70.9072L40.6255 71.2818L40.8271 71.6692C40.8411 71.7046 40.8664 71.7274 40.8804 71.7628C40.9337 71.8565 40.9869 71.9502 41.0402 72.0438C41.1467 72.2311 41.2646 72.4058 41.3585 72.5817L41.465 72.7691C41.4916 72.8159 41.5182 72.8627 41.5449 72.9096C41.5855 72.9918 41.6375 73.0615 41.6781 73.1437L41.9139 73.4931C42.0584 73.7145 42.2156 73.9474 42.3602 74.1689L42.3741 74.2044C42.4781 74.3436 42.5947 74.4941 42.6986 74.6334C42.7633 74.7143 42.828 74.7954 42.8812 74.889L43.1639 75.2117C43.1892 75.2345 43.2019 75.2459 43.2146 75.2572C43.2412 75.3041 43.2551 75.3395 43.2818 75.3863L43.4757 75.6293C43.6944 75.2075 43.9119 74.7615 44.1053 74.3169C44.5224 73.3174 44.8406 72.275 45.0487 71.2022C45.2466 70.1662 45.3559 69.0505 45.355 67.9045C45.3566 66.8066 45.2594 65.6657 45.066 64.53C44.8739 63.4183 44.5969 62.2991 44.2364 61.1964C44.2072 61.1015 44.178 61.0065 44.1501 60.9356C44.0917 60.7457 44.0219 60.5685 43.9635 60.3786L43.9482 60.3191C43.8505 60.071 43.7642 59.8102 43.6665 59.5621L43.5003 59.1608L43.197 58.4532L43.1564 58.3709C43.1019 58.2531 43.0473 58.1354 42.9814 58.0304C42.7404 57.5848 42.464 57.1532 42.1294 56.7609C41.8062 56.356 41.45 56.0131 41.0991 55.7665C40.7722 55.5185 40.401 55.3454 40.1338 55.3114C40.0122 55.2937 39.9159 55.2989 39.8083 55.3167C39.688 55.3231 39.5817 55.365 39.4766 55.4309C39.3716 55.4969 39.2779 55.5501 39.1868 55.6515Z" fill="white"/>
</svg>
