<svg width="194" height="50" viewBox="0 0 194 50" fill="none" xmlns="http://www.w3.org/2000/svg">
<path d="M193.751 49.9542H187.11L181.146 41.46L175.182 49.9542H168.54L177.802 36.716L168.54 23.4326H175.182L181.146 31.9267L184.218 27.5441L187.11 23.4326H193.751L187.562 32.2882L184.489 36.716L193.751 49.9542Z" fill="#FE6035"/>
<path d="M164.785 23.4785V49.9549H159.364V23.4785H164.785Z" fill="#FE6035"/>
<path d="M135.197 35.045V41.6415V49.9549H129.775V37.1233V30.5268V23.4785L147.802 38.3884V23.4785H153.269V42.9066V49.9549L135.197 35.045Z" fill="#FE6035"/>
<path d="M105.073 28.9455V23.4785H110.495H124.004V28.9455H110.495V30.075V33.4184V34.0058H124.004V39.4728H110.495V40.0149V43.3584V44.5331H124.004V49.9549H110.495H109.817H109.14H108.462H107.784H107.106H106.429H105.751H105.073V44.5331V43.3584V40.0149V39.4728V34.0058V33.4184V30.075V28.9455Z" fill="white"/>
<path d="M94.8427 42.5896L92.1318 49.9542H86.3034L83.4118 42.0022L80.5201 34.0051L76.6797 23.4326H82.463L85.8516 32.6948L89.2402 42.0022L91.9059 34.5924L95.9722 23.4326H101.801L94.8427 42.5896Z" fill="white"/>
<path d="M64.4251 31.3846L57.6479 49.9993L51.8646 49.9542L61.4883 23.4326H67.3167L76.9856 49.9542L71.1572 49.9993L64.4251 31.3846Z" fill="white"/>
<path d="M2.7336 40.501C2.7336 43.5408 5.19797 46.0052 8.2378 46.0052C8.23803 42.9654 5.77366 40.501 2.7336 40.501Z" fill="#FE6035"/>
<path d="M0 48.1092C2.14952 50.2587 5.63462 50.2587 7.78414 48.1092C5.63462 45.9597 2.14952 45.9597 0 48.1092Z" fill="#FE6035"/>
<path d="M36.6307 40.501C33.5909 40.501 31.1265 42.9654 31.1265 46.0052C34.1666 46.0052 36.6307 43.5408 36.6307 40.501Z" fill="#FE6035"/>
<path d="M31.5802 48.1092C33.7297 50.2587 37.2148 50.2587 39.3646 48.1092C37.2151 45.9597 33.7299 45.9597 31.5802 48.1092Z" fill="#FE6035"/>
<path d="M11.106 40.2303V50.0005H16.2387V45.5443C16.2387 42.7685 17.4598 40.0839 19.6824 37.9716C21.905 40.0839 23.126 42.7685 23.126 45.5443V50.0005H28.2588V40.2303L19.6824 31.6768L11.106 40.2303Z" fill="#FE6035"/>
<path d="M19.6824 40.501C18.4334 41.6878 17.7476 43.1964 17.7476 44.756V49.9798H21.6172V44.756C21.6172 43.1964 20.9311 41.6878 19.6824 40.501Z" fill="#FE6035"/>
<path d="M24.8347 32.2802V21.5347L19.6822 14.9199L14.5299 21.5347V32.2802L6.76552 39.9975H8.98304L19.6822 29.3631L30.3813 39.9975H32.5988L24.8347 32.2802ZM18.7614 20.4248C18.7614 19.9162 19.1738 19.504 19.6824 19.504C20.191 19.504 20.6035 19.9162 20.6035 20.4248V23.5322H18.7616L18.7614 20.4248Z" fill="#FE6035"/>
<path d="M19.2166 10.7418L10.8214 21.5194H12.9574L19.6822 12.8859L26.4069 21.5194H28.5429L20.1479 10.7418V5.71659H21.9528L23.2201 6.98395L24.9533 5.25083L23.2201 3.51771L21.9528 4.78506H20.1479V3.00047L21.4153 1.73312L19.6822 0L17.949 1.73312L19.2164 3.00047V4.78506H17.4118L16.1444 3.51771L14.4113 5.25083L16.1444 6.98395L17.4118 5.71659H19.2164V10.7418H19.2166ZM23.2201 4.83513L23.6358 5.25083L23.2201 5.66652L22.8044 5.25083L23.2201 4.83513ZM19.6824 1.31742L20.0981 1.73312L19.6824 2.14882L19.2667 1.73312L19.6824 1.31742ZM16.1444 5.66629L15.7287 5.25059L16.1444 4.8349L16.5601 5.25059L16.1444 5.66629Z" fill="#FE6035"/>
</svg>
