<svg width="34" height="35" viewBox="0 0 34 35" fill="none" xmlns="http://www.w3.org/2000/svg">
<g clip-path="url(#clip0_131_508)">
<path d="M16.9999 16.5683C20.0732 16.5683 22.5735 14.0683 22.5735 10.9955C22.5735 7.92257 20.0732 5.42264 16.9999 5.42264C13.9266 5.42264 11.4263 7.92257 11.4263 10.9955C11.4263 14.0683 13.9266 16.5683 16.9999 16.5683ZM16.9999 7.41456C18.9747 7.41456 20.5813 9.02099 20.5813 10.9955C20.5813 12.97 18.9747 14.5764 16.9999 14.5764C15.025 14.5764 13.4185 12.97 13.4185 10.9955C13.4185 9.02099 15.0251 7.41456 16.9999 7.41456Z" fill="#FE6035"/>
<path d="M10.9312 21.0094C12.4409 23.0532 11.8344 22.2583 16.183 28.467C16.5782 29.0335 17.4187 29.0362 17.8162 28.4679C22.1845 22.2297 21.5835 23.0198 23.0686 21.0093C24.5731 18.9725 26.1288 16.8664 26.9814 14.3983C28.2153 10.8256 27.6819 7.29057 25.4797 4.4444C25.4796 4.4444 25.4796 4.44433 25.4795 4.44433C23.4622 1.83795 20.2923 0.281921 16.9999 0.281921C13.7076 0.281921 10.5376 1.83795 8.52023 4.44446C6.318 7.29064 5.78462 10.8257 7.01858 14.3984C7.87097 16.8664 9.42674 18.9726 10.9312 21.0094ZM10.0958 5.66342C11.7385 3.54101 14.3196 2.27384 16.9999 2.27384C19.6803 2.27384 22.2613 3.54101 23.904 5.66342L23.9039 5.66335C25.6814 7.96048 26.1055 10.8317 25.0982 13.7482C24.3452 15.9282 22.8816 17.9097 21.4661 19.8259C20.364 21.3179 20.6939 20.8616 16.9999 26.1567C13.3098 20.8669 13.6354 21.3174 12.5337 19.8259C11.1182 17.9097 9.65458 15.9281 8.9016 13.7482C7.89435 10.8317 8.31842 7.96048 10.0958 5.66342Z" fill="#FE6035"/>
<path d="M11.749 25.3275C11.4552 24.8625 10.84 24.7235 10.3749 25.0174L7.54271 26.8062C6.92486 27.1964 6.92427 28.0996 7.54271 28.4902L16.4677 34.1273C16.7926 34.3326 17.2067 34.3325 17.5316 34.1273L26.4566 28.4902C27.0745 28.1 27.075 27.1968 26.4566 26.8062L23.6244 25.0174C23.1591 24.7236 22.544 24.8625 22.2503 25.3275C21.9565 25.7926 22.0954 26.4077 22.5605 26.7015L24.0595 27.6482L16.9996 32.1073L9.93977 27.6482L11.4388 26.7015C11.9039 26.4077 12.0428 25.7926 11.749 25.3275Z" fill="#FE6035"/>
</g>
<defs>
<clipPath id="clip0_131_508">
<rect width="34" height="34" fill="white" transform="translate(0 0.281921)"/>
</clipPath>
</defs>
</svg>
