<svg width="34" height="35" viewBox="0 0 34 35" fill="none" xmlns="http://www.w3.org/2000/svg">
<path d="M31.0117 5.12421H2.98828C1.34393 5.12421 0 6.46223 0 8.11249V26.0422C0 27.693 1.34479 29.0305 2.98828 29.0305H31.0117C32.6561 29.0305 34 27.6924 34 26.0422V8.11249C34 6.46183 32.6554 5.12421 31.0117 5.12421ZM30.5529 7.11639C29.5867 8.08573 18.2381 19.4713 17.7719 19.939C17.3825 20.3296 16.6177 20.3299 16.2281 19.939L3.44715 7.11639H30.5529ZM1.99219 25.6759V8.47872L10.5629 17.0773L1.99219 25.6759ZM3.44715 27.0383L11.9693 18.4883L14.8172 21.3455C15.9842 22.5163 18.0163 22.5158 19.1829 21.3455L22.0307 18.4884L30.5529 27.0383H3.44715ZM32.0078 25.6759L23.4371 17.0773L32.0078 8.47872V25.6759Z" fill="#FE6035"/>
</svg>
