<svg width="35" height="35" viewBox="0 0 35 35" fill="none" xmlns="http://www.w3.org/2000/svg">
<path d="M27.1641 10.9645C27.2338 10.9645 27.3029 10.9508 27.3674 10.9241C27.4319 10.8974 27.4905 10.8583 27.5398 10.8089C27.5891 10.7596 27.6283 10.701 27.655 10.6365C27.6816 10.5721 27.6954 10.503 27.6953 10.4332V7.13727C27.6953 6.99637 27.6393 6.86125 27.5397 6.76162C27.4401 6.66199 27.305 6.60602 27.1641 6.60602C27.0232 6.60602 26.888 6.66199 26.7884 6.76162C26.6888 6.86125 26.6328 6.99637 26.6328 7.13727V10.4332C26.6328 10.503 26.6465 10.5721 26.6732 10.6365C26.6999 10.701 26.739 10.7596 26.7883 10.8089C26.8377 10.8583 26.8962 10.8974 26.9607 10.9241C27.0252 10.9508 27.0943 10.9645 27.1641 10.9645Z" fill="#FE6035"/>
<path d="M21.8324 8.70717L22.1743 8.89938V9.87395C22.1747 10.2127 22.3095 10.5374 22.549 10.7768C22.7886 11.0163 23.1133 11.1509 23.4521 11.1512C23.7205 11.1507 23.9818 11.0648 24.1982 10.9061C24.3883 11.045 24.6132 11.1284 24.8478 11.1472C25.0825 11.1659 25.3178 11.1192 25.5275 11.0123C25.7372 10.9053 25.9131 10.7423 26.0357 10.5413C26.1583 10.3404 26.2228 10.1094 26.2219 9.87395V7.13728C26.2193 6.99813 26.1621 6.86557 26.0628 6.7681C25.9635 6.67063 25.8298 6.61603 25.6907 6.61604C25.5515 6.61604 25.4179 6.67065 25.3185 6.76813C25.2192 6.86561 25.1621 6.99817 25.1594 7.13732V9.87395C25.1591 9.93079 25.1364 9.98522 25.0961 10.0253C25.0558 10.0654 25.0012 10.0879 24.9444 10.0879C24.8875 10.0879 24.833 10.0654 24.7927 10.0253C24.7524 9.98522 24.7296 9.93079 24.7293 9.87395V7.13728C24.7293 6.99639 24.6734 6.86126 24.5737 6.76163C24.4741 6.662 24.339 6.60603 24.1981 6.60603C24.0572 6.60603 23.9221 6.662 23.8224 6.76163C23.7228 6.86126 23.6668 6.99639 23.6668 7.13728V9.87395C23.6666 9.93079 23.6438 9.98522 23.6035 10.0253C23.5632 10.0654 23.5086 10.0879 23.4518 10.0879C23.3949 10.0879 23.3404 10.0654 23.3001 10.0253C23.2598 9.98522 23.237 9.93079 23.2368 9.87395V7.13728C23.2482 7.03376 23.2294 6.92914 23.1826 6.83608C23.1358 6.74302 23.0631 6.66549 22.9732 6.61287C22.8833 6.56025 22.7801 6.53479 22.6761 6.53957C22.5721 6.54434 22.4716 6.57915 22.3869 6.63978L21.7291 7.13261C21.6052 7.22752 21.5066 7.35156 21.4421 7.49372C21.3776 7.63587 21.3492 7.79175 21.3595 7.94751C21.3697 8.10328 21.4182 8.25411 21.5007 8.38663C21.5832 8.51915 21.6971 8.62925 21.8324 8.70717Z" fill="#FE6035"/>
<path d="M24.1992 6.43277C24.269 6.43281 24.3381 6.41909 24.4026 6.39241C24.467 6.36573 24.5256 6.3266 24.575 6.27726C24.6243 6.22792 24.6634 6.16934 24.6901 6.10487C24.7168 6.04039 24.7305 5.97129 24.7305 5.90152V5.58557C24.7305 5.44468 24.6745 5.30955 24.5749 5.20992C24.4752 5.11029 24.3401 5.05432 24.1992 5.05432C24.0583 5.05432 23.9232 5.11029 23.8236 5.20992C23.7239 5.30955 23.668 5.44468 23.668 5.58557V5.90152C23.6679 5.97129 23.6816 6.04039 23.7083 6.10487C23.735 6.16934 23.7741 6.22792 23.8235 6.27726C23.8728 6.3266 23.9314 6.36573 23.9959 6.39241C24.0603 6.41909 24.1294 6.43281 24.1992 6.43277Z" fill="#FE6035"/>
<path d="M19.1451 9.02415L20.6336 9.98652L20.2616 11.7193C20.2314 11.8675 20.2383 12.0209 20.2819 12.1657C20.3254 12.3106 20.4042 12.4424 20.5112 12.5493C20.6181 12.6563 20.7499 12.7351 20.8948 12.7786C21.0396 12.8222 21.193 12.8291 21.3412 12.7989L23.074 12.427L24.0358 13.9154C24.1183 14.0429 24.2314 14.1477 24.3648 14.2203C24.4982 14.2929 24.6476 14.3309 24.7995 14.3309C24.9514 14.3309 25.1008 14.2929 25.2342 14.2203C25.3676 14.1477 25.4807 14.0429 25.5632 13.9154L26.525 12.4275L28.2589 12.7995C28.4073 12.831 28.5612 12.8249 28.7066 12.7818C28.8521 12.7386 28.9844 12.6598 29.0916 12.5524C29.1988 12.4451 29.2775 12.3126 29.3204 12.1671C29.3633 12.0216 29.3692 11.8677 29.3374 11.7193L28.9655 9.98652L30.4539 9.02415C30.5814 8.94173 30.6863 8.82868 30.7588 8.69533C30.8314 8.56198 30.8695 8.41257 30.8695 8.26074C30.8695 8.10892 30.8314 7.95951 30.7588 7.82616C30.6863 7.6928 30.5814 7.57976 30.4539 7.49734L28.9655 6.53496L29.3374 4.80216C29.3694 4.65371 29.3636 4.49964 29.3206 4.354C29.2777 4.20837 29.1989 4.07581 29.0915 3.96845C28.9842 3.86108 28.8516 3.78233 28.706 3.73937C28.5603 3.69641 28.4063 3.69063 28.2578 3.72254L26.525 4.094L25.5632 2.60609C25.4807 2.47858 25.3676 2.37375 25.2342 2.30116C25.1008 2.22858 24.9514 2.19055 24.7995 2.19055C24.6476 2.19055 24.4982 2.22858 24.3648 2.30116C24.2314 2.37375 24.1183 2.47858 24.0358 2.60609L23.074 4.094L21.3412 3.72254C21.193 3.69228 21.0396 3.69923 20.8947 3.74278C20.7499 3.78632 20.6181 3.8651 20.5111 3.97207C20.4041 4.07903 20.3254 4.21084 20.2818 4.35571C20.2383 4.50057 20.2313 4.65397 20.2616 4.80218L20.6336 6.53495L19.1451 7.49732C19.0189 7.58068 18.9153 7.69406 18.8436 7.82729C18.7719 7.96052 18.7344 8.10945 18.7344 8.26074C18.7344 8.41203 18.7719 8.56096 18.8436 8.69419C18.9153 8.82742 19.0189 8.94079 19.1451 9.02415ZM21.5181 7.22807C21.6086 7.16946 21.6791 7.08474 21.7203 6.98514C21.7616 6.88555 21.7715 6.77577 21.749 6.67036L21.35 4.81099L23.2094 5.20996C23.3148 5.23327 23.4248 5.22362 23.5246 5.18233C23.6243 5.14104 23.709 5.07009 23.7671 4.97909L24.7995 3.38171L25.8319 4.97906C25.8901 5.06994 25.9748 5.14079 26.0745 5.18207C26.1742 5.22335 26.2842 5.23307 26.3896 5.20993L28.249 4.81096L27.85 6.67034C27.8275 6.77574 27.8374 6.88552 27.8787 6.98512C27.9199 7.08472 27.9904 7.16944 28.0809 7.22804L29.6778 8.26048L28.0809 9.29341C27.9904 9.35202 27.9199 9.43673 27.8787 9.53633C27.8374 9.63593 27.8274 9.74571 27.85 9.85112L28.249 11.7105L26.3896 11.3115C26.2842 11.2883 26.1742 11.298 26.0745 11.3393C25.9747 11.3806 25.8901 11.4515 25.8319 11.5424L24.7995 13.1392L23.7671 11.5419C23.7189 11.4673 23.6529 11.406 23.5749 11.3636C23.497 11.3212 23.4097 11.299 23.3209 11.2991C23.2834 11.299 23.246 11.303 23.2094 11.311L21.35 11.7105L21.749 9.85114C21.7715 9.74574 21.7615 9.63596 21.7203 9.53636C21.6791 9.43676 21.6086 9.35204 21.5181 9.29344L19.9212 8.26048L21.5181 7.22807Z" fill="#FE6035"/>
<path d="M32.0338 30.878H22.3389C22.5202 30.5584 22.6201 30.199 22.6298 29.8315C22.6394 29.4641 22.5585 29.1 22.3941 28.7712C21.9461 26.0711 18.4606 25.7257 16.6462 24.5467C16.1357 24.1308 15.778 23.5571 15.629 22.9158C18.8718 22.2577 20.041 22.0277 21.0291 19.5294C21.1075 19.2306 21.0998 18.9157 21.0068 18.6211C20.9138 18.3266 20.7393 18.0643 20.5034 17.8648C20.2676 17.6652 19.9801 17.5365 19.6742 17.4935C19.3683 17.4505 19.0565 17.495 18.7748 17.6218C17.5821 18.1893 16.2657 18.4473 14.947 18.372C14.1866 17.1884 13.6118 15.8953 13.2426 14.5377C13.6323 14.6249 14.0405 14.5673 14.3909 14.3756C14.7413 14.184 15.01 13.8714 15.1469 13.4962L16.1248 10.7803C16.2981 10.1692 16.1093 9.37074 15.5469 8.33937C15.1856 7.6748 14.6356 7.13212 13.9662 6.77978C13.2969 6.42744 12.5382 6.28123 11.7858 6.3596C11.0335 6.43796 10.3212 6.7374 9.73883 7.22012C9.15646 7.70284 8.7301 8.34722 8.51354 9.07198C7.19353 13.4533 7.14438 21.9637 7.33739 25.8685C7.41574 27.2926 7.50601 27.3907 7.63104 27.5261L7.84894 27.7619C7.1567 27.9693 6.54039 28.3749 6.07617 28.9287C5.61196 29.4825 5.3202 30.1602 5.23695 30.878H3.77274C3.63332 30.8803 3.50038 30.9373 3.40259 31.0366C3.3048 31.136 3.25 31.2699 3.25 31.4093C3.25 31.5487 3.30482 31.6826 3.40261 31.782C3.50041 31.8813 3.63336 31.9383 3.77277 31.9405C4.22554 31.9406 19.4722 31.9405 20.519 31.9405H32.0338C32.1728 31.9377 32.3051 31.8805 32.4025 31.7811C32.4998 31.6818 32.5543 31.5483 32.5543 31.4093C32.5543 31.2702 32.4998 31.1367 32.4025 31.0374C32.3051 30.9381 32.1728 30.8809 32.0338 30.878ZM15.9687 25.3653C16.5889 25.7931 17.2687 26.1274 17.9863 26.3572C18.8755 26.6498 19.7173 27.0708 20.4847 27.607H9.15229L8.49277 26.8926C8.43611 26.5029 8.40296 26.1101 8.39349 25.7164L10.6741 23.4605C12.1145 23.3674 13.4207 23.2381 14.5795 23.077C14.768 23.9758 15.2582 24.7833 15.9687 25.3653ZM19.2231 18.5846C19.3231 18.5387 19.4342 18.5228 19.5431 18.5389C19.6519 18.5549 19.7538 18.6021 19.8363 18.6749C19.9169 18.7402 19.9763 18.8279 20.0071 18.927C20.0378 19.0261 20.0385 19.132 20.0091 19.2315C19.8289 19.7564 19.5309 20.2331 19.138 20.625C18.9442 20.8148 18.7151 20.9647 18.4636 21.0664V18.8997C18.7414 18.797 18.9981 18.6895 19.2231 18.5846ZM17.4011 19.2236V21.4449C15.5753 21.8967 13.7132 22.1863 11.8364 22.3106L14.3941 19.7799C14.5448 19.6236 14.7655 19.3891 14.9923 19.4271C15.8009 19.4854 16.6137 19.4168 17.4011 19.2236ZM15.1142 10.455L14.1477 13.1362C14.1149 13.2268 14.0596 13.3077 13.9872 13.3714C13.9147 13.435 13.8273 13.4792 13.7331 13.5C13.6389 13.5207 13.541 13.5173 13.4485 13.4901C13.356 13.4628 13.2719 13.4127 13.204 13.3442C13.1523 13.2948 13.0911 13.2565 13.0242 13.2315C12.9287 12.4594 13.0231 11.6756 13.2993 10.9483C13.5755 10.221 14.025 9.57206 14.6089 9.05788C14.6345 9.03089 14.657 9.00116 14.6761 8.96923C15.1717 9.91895 15.1435 10.3471 15.1142 10.455ZM9.52829 9.38525C9.66041 8.93057 9.90746 8.5176 10.2456 8.18617C10.5838 7.85474 11.0016 7.61603 11.4589 7.49306C11.9161 7.37009 12.3973 7.36701 12.8561 7.48412C13.3149 7.60123 13.7357 7.83457 14.0781 8.16165C14.0151 8.1835 13.9568 8.21723 13.9064 8.261C10.1657 11.5601 12.6531 16.6633 13.936 18.7571C13.8345 18.84 13.7381 18.9292 13.6476 19.024L10.0668 22.5669L8.33964 24.2754C8.23424 20.0365 8.45324 12.8666 9.52829 9.38525ZM6.30707 30.878C6.40752 30.2621 6.72355 29.7019 7.19878 29.2973C7.674 28.8928 8.2775 28.6703 8.90158 28.6695H20.519C21.9093 28.6916 21.9107 30.863 20.519 30.878L6.30707 30.878Z" fill="#FE6035"/>
</svg>
