<svg width="35" height="35" viewBox="0 0 35 35" fill="none" xmlns="http://www.w3.org/2000/svg">
<g clip-path="url(#clip0_113_5656)">
<path d="M26.8427 11.7694C26.7519 11.6226 26.5916 11.5332 26.4191 11.5332H22.6585V9.45598C22.6585 8.55279 22.0829 7.75412 21.226 7.46844L19.488 6.88911C19.474 6.88446 19.4646 6.87138 19.4646 6.85664V6.15698C20.1101 5.6778 20.5292 4.91021 20.5292 4.04639V2.44939C20.5292 1.58777 19.8282 0.886719 18.9665 0.886719H16.8373C15.9756 0.886719 15.2746 1.58777 15.2746 2.44939V4.04633C15.2746 4.91014 15.6938 5.67773 16.3392 6.15692V6.85664C16.3392 6.87138 16.3298 6.88446 16.3158 6.88911L14.5778 7.46844C13.721 7.75405 13.1453 8.55279 13.1453 9.45598V9.9019C13.1453 10.177 13.3683 10.3999 13.6434 10.3999C13.9184 10.3999 14.1414 10.177 14.1414 9.9019V9.45598C14.1414 8.98224 14.4433 8.56328 14.8928 8.41347L15.5648 8.18941C16.2758 8.59111 17.0791 8.80294 17.9019 8.80294C18.7246 8.80294 19.5281 8.59111 20.2391 8.18941L20.9111 8.4134C21.3605 8.56321 21.6624 8.98217 21.6624 9.45591V11.5331H9.38479C9.2122 11.5331 9.05189 11.6225 8.96111 11.7693C8.87034 11.9161 8.8621 12.0995 8.93933 12.2539L11.0687 16.5124C11.1531 16.6812 11.3254 16.7878 11.5141 16.7878H12.7667L13.6475 31.7613H12.0464C11.7714 31.7613 11.5484 31.9843 11.5484 32.2594V34.3887C11.5484 34.6637 11.7714 34.8867 12.0464 34.8867H23.7574C24.0325 34.8867 24.2555 34.6637 24.2555 34.3887V32.2594C24.2555 31.9844 24.0325 31.7614 23.7574 31.7614H14.6453L13.6392 14.6586H22.1646L21.2562 30.1009C21.2401 30.3755 21.4496 30.6112 21.7242 30.6273C21.9991 30.6438 22.2345 30.4339 22.2507 30.1594L23.0372 16.7878H24.2898C24.4785 16.7878 24.6509 16.6812 24.7353 16.5125L26.8646 12.2539C26.9417 12.0995 26.9335 11.9162 26.8427 11.7694ZM16.2707 2.44939C16.2707 2.13695 16.5249 1.88281 16.8373 1.88281H18.9665C19.279 1.88281 19.5331 2.13702 19.5331 2.44939V4.04633C19.5331 4.9458 18.8013 5.67753 17.9019 5.67753C17.0025 5.67753 16.2707 4.94573 16.2707 4.04633V2.44939ZM16.9265 7.67829C17.1792 7.48737 17.3353 7.18628 17.3353 6.85664V6.61147C17.518 6.65178 17.7074 6.67369 17.9019 6.67369C18.0964 6.67369 18.2859 6.65178 18.4685 6.61147V6.85664C18.4685 7.18628 18.6247 7.48737 18.8773 7.67829C18.5613 7.76289 18.2336 7.80685 17.9019 7.80685C17.5702 7.80685 17.2425 7.76289 16.9265 7.67829ZM23.2594 33.8906H12.5445V32.7575H23.2594V33.8906ZM23.9819 15.7917H23.0958L23.19 14.1898C23.1981 14.0528 23.1493 13.9186 23.0552 13.8189C22.9611 13.7191 22.83 13.6625 22.6928 13.6625H13.111C12.9739 13.6625 12.8428 13.7191 12.7487 13.8189C12.6546 13.9186 12.6058 14.0528 12.6139 14.1898L12.7081 15.7917H11.8219L10.1906 12.5293H25.6132L23.9819 15.7917Z" fill="#FE6035"/>
<path d="M17.9019 26.3697C18.1769 26.3697 18.3999 26.1467 18.3999 25.8716V21.0465H20.0311C20.3062 21.0465 20.5292 20.8235 20.5292 20.5484C20.5292 20.2734 20.3062 20.0504 20.0311 20.0504H18.3999V18.4192C18.3999 18.1441 18.1769 17.9211 17.9019 17.9211C17.6268 17.9211 17.4038 18.1441 17.4038 18.4192V20.0504H15.7726C15.4976 20.0504 15.2746 20.2734 15.2746 20.5484C15.2746 20.8235 15.4976 21.0465 15.7726 21.0465H17.4038V25.8716C17.4038 26.1467 17.6268 26.3697 17.9019 26.3697Z" fill="#FE6035"/>
</g>
<defs>
<clipPath id="clip0_113_5656">
<rect width="34" height="34" fill="white" transform="translate(0.901917 0.886719)"/>
</clipPath>
</defs>
</svg>
