<svg width="35" height="35" viewBox="0 0 35 35" fill="none" xmlns="http://www.w3.org/2000/svg">
<g clip-path="url(#clip0_136_861)">
<path d="M34.6221 13.5855C34.5183 12.8225 34.0322 12.303 33.3839 12.2619C32.7906 12.2242 32.078 12.6256 31.8152 13.6063C31.5113 14.7403 30.6111 17.36 29.7775 19.2434C29.5662 18.9806 29.2729 18.7895 28.9267 18.7013C28.3533 18.5553 27.7715 18.7248 27.3683 19.1548C25.6793 20.8417 24.1313 21.482 22.7652 22.047C21.502 22.5695 20.411 23.0207 19.7125 24.1652C19.0177 25.3038 18.7972 27.0257 19.0046 29.7244C18.5252 29.9209 18.1864 30.392 18.1864 30.9412V33.3231C18.1864 33.5798 18.3946 33.7879 18.6513 33.7879H26.0141C26.2708 33.7879 26.4789 33.5798 26.4789 33.3231V30.9412C26.4789 30.4367 26.193 29.9983 25.7751 29.7778C26.218 28.7484 27.0192 27.8995 28.1304 26.9137C28.3878 26.6854 28.6636 26.4507 28.9557 26.2022C29.6508 25.6107 30.3697 24.999 30.9998 24.3403C32.3278 22.9523 32.7825 21.6998 33.2798 20.0818C33.8179 18.3319 34.7638 14.63 34.622 13.5855H34.6221ZM25.5493 32.8582H19.1162V30.9412C19.1162 30.7288 19.2891 30.5559 19.5015 30.5559H25.164C25.3764 30.5559 25.5493 30.7288 25.5493 30.9412V32.8582ZM32.3912 19.8087C31.9172 21.3507 31.5176 22.4545 30.3282 23.6976C29.7309 24.3218 29.0305 24.9178 28.3532 25.4942C28.0575 25.7458 27.7781 25.9836 27.5135 26.2183C26.5003 27.1171 25.3879 28.1885 24.8344 29.6262H19.9297C19.7443 27.182 19.9287 25.5956 20.5061 24.6495C21.0466 23.7639 21.9165 23.404 23.1205 22.9061C24.4967 22.3369 26.2094 21.6285 28.0314 19.8065C28.0356 19.8024 28.0396 19.7981 28.0436 19.7939C28.2117 19.6124 28.4563 19.5408 28.6974 19.6023C28.9387 19.6637 29.1192 19.8434 29.1801 20.0831C29.4496 21.1419 26.5777 23.4785 25.3607 23.8624C25.1158 23.9397 24.98 24.2008 25.0572 24.4456C25.1345 24.6905 25.3956 24.8262 25.6403 24.749C26.6669 24.4252 29.2405 22.6694 29.944 21.0092L29.9462 21.0104C30.9482 19.2333 32.3073 15.3623 32.7133 13.8468C32.8392 13.3766 33.1178 13.1752 33.3252 13.1896C33.5177 13.2018 33.6582 13.3966 33.7009 13.7106C33.7968 14.417 33.063 17.6242 32.3913 19.8085L32.3912 19.8087ZM16.8017 29.7244C17.0091 27.0257 16.7886 25.3038 16.0938 24.1652C15.3953 23.0207 14.3043 22.5695 13.0411 22.047C11.675 21.482 10.1268 20.8417 8.43794 19.1547C8.03472 18.7248 7.45307 18.5552 6.87958 18.7013C6.53334 18.7895 6.23996 18.9806 6.02872 19.2434C5.19532 17.3601 4.29499 14.7404 3.99104 13.6063C3.72828 12.6255 3.01381 12.2249 2.42233 12.2619C1.77394 12.303 1.28804 12.8225 1.18425 13.5855C1.04234 14.63 1.9883 18.3319 2.52632 20.0818C3.0237 21.6998 3.47839 22.9523 4.80638 24.3403C5.43664 24.9991 6.15556 25.6109 6.8509 26.2025C7.14282 26.4509 7.41854 26.6855 7.67579 26.9137C8.78704 27.8995 9.58816 28.7484 10.0311 29.7778C9.61313 29.9983 9.32725 30.4367 9.32725 30.9411V33.323C9.32725 33.5797 9.53537 33.7878 9.7921 33.7878H17.1549C17.4116 33.7878 17.6197 33.5797 17.6197 33.323V30.9411C17.6197 30.392 17.281 29.9209 16.8017 29.7244ZM8.29284 26.2183C8.02841 25.9837 7.74911 25.746 7.4534 25.4944C6.77599 24.918 6.07547 24.322 5.47815 23.6976C4.28874 22.4544 3.88904 21.3506 3.41504 19.8086C2.74347 17.6242 2.00961 14.4171 2.10557 13.7108C2.14827 13.3967 2.28872 13.2019 2.48117 13.1897C2.68895 13.1753 2.96699 13.3767 3.09303 13.8468C3.49924 15.3626 4.85844 19.2337 5.86018 21.0104L5.86237 21.0092C6.56588 22.6695 9.13959 24.4253 10.1661 24.7491C10.4111 24.8263 10.672 24.6904 10.7492 24.4456C10.8264 24.2008 10.6906 23.9397 10.4457 23.8625C9.2287 23.4786 6.35677 21.142 6.62624 20.0831C6.6872 19.8435 6.8677 19.6637 7.10895 19.6023C7.35034 19.5408 7.59451 19.6125 7.76279 19.7939C7.76677 19.7982 7.77082 19.8024 7.77494 19.8065C9.59699 21.6286 11.3097 22.3369 12.6859 22.9061C13.8899 23.4041 14.7597 23.764 15.3003 24.6496C15.8776 25.5957 16.062 27.182 15.8767 29.6262H10.972C10.4185 28.1885 9.30613 27.1171 8.29291 26.2183L8.29284 26.2183ZM16.6901 32.8582H10.257V30.9411C10.257 30.7287 10.4299 30.5559 10.6423 30.5559H16.3048C16.5173 30.5559 16.6902 30.7288 16.6902 30.9411L16.6901 32.8582ZM17.329 9.10663C17.4842 9.25552 17.6881 9.33753 17.9032 9.33753C18.1182 9.33753 18.322 9.25558 18.4772 9.10683C20.8441 6.83813 22.6545 4.93758 22.6545 2.85927C22.6545 1.47191 21.4845 0.343201 20.0464 0.343201C19.1279 0.343201 18.4209 0.618455 17.9032 1.18111C17.3855 0.618455 16.6785 0.343201 15.76 0.343201C14.3219 0.343201 13.1519 1.47191 13.1519 2.85927C13.1519 4.93745 14.9624 6.83813 17.329 9.10663ZM15.7599 1.27289C16.6138 1.27289 17.1335 1.55067 17.4974 2.20171C17.5796 2.34867 17.7348 2.43971 17.9032 2.43971C18.0715 2.43971 18.2268 2.3486 18.3089 2.20165C18.6727 1.5506 19.1924 1.27282 20.0463 1.27282C20.9719 1.27282 21.7248 1.98443 21.7248 2.8592C21.7248 4.68139 19.6243 6.71906 17.9031 8.36913C16.1819 6.719 14.0813 4.68132 14.0813 2.8592C14.0813 1.9845 14.8343 1.27282 15.7598 1.27282L15.7599 1.27289ZM12.616 19.5725C12.6042 19.7025 12.6478 19.8314 12.7358 19.9278C12.8239 20.0242 12.9484 20.079 13.0789 20.079H22.7274C22.8579 20.079 22.9824 20.0242 23.0705 19.9278C23.1585 19.8314 23.202 19.7024 23.1904 19.5725C23.0719 18.2578 22.4694 17.0402 21.494 16.1439C20.9543 15.648 20.3255 15.2754 19.6472 15.0397C20.2738 14.531 20.6751 13.7553 20.6751 12.8873C20.6751 11.3588 19.4316 10.1153 17.9032 10.1153C16.3748 10.1153 15.1312 11.3589 15.1312 12.8873C15.1312 13.7553 15.5325 14.531 16.1591 15.0397C15.4809 15.2754 14.8521 15.648 14.3124 16.1439C13.3369 17.0402 12.7344 18.2578 12.616 19.5725H12.616ZM17.9032 11.045C18.919 11.045 19.7453 11.8715 19.7453 12.8873C19.7453 13.9031 18.919 14.7295 17.9032 14.7295C16.8873 14.7295 16.0608 13.9031 16.0608 12.8873C16.0608 11.8715 16.8873 11.045 17.9032 11.045ZM17.9032 15.6749C20.0119 15.6749 21.773 17.1363 22.1895 19.1493H13.6167C14.0331 17.1364 15.7944 15.6749 17.9031 15.6749H17.9032ZM21.4666 13.5995C21.5546 13.6959 21.6791 13.7508 21.8097 13.7508H30.3913C30.5219 13.7508 30.6464 13.6958 30.7344 13.5995C30.8225 13.5032 30.866 13.3742 30.8543 13.2442C30.7478 12.0622 30.2061 10.9673 29.3291 10.1615C28.8662 9.73617 28.3303 9.41217 27.7526 9.19914C28.2819 8.73742 28.6174 8.05874 28.6174 7.30277C28.6174 5.91502 27.4883 4.78591 26.1005 4.78591C24.7128 4.78591 23.5837 5.91495 23.5837 7.30277C23.5837 8.05868 23.9192 8.73735 24.4485 9.19907C23.8708 9.4121 23.3349 9.7361 22.872 10.1614C21.9949 10.9673 21.4533 12.0621 21.3468 13.2441C21.335 13.3742 21.3786 13.5031 21.4666 13.5995L21.4666 13.5995ZM26.1005 5.71567C26.9758 5.71567 27.6877 6.42767 27.6877 7.30284C27.6877 8.17801 26.9757 8.89002 26.1005 8.89002C25.2254 8.89002 24.5134 8.17801 24.5134 7.30284C24.5134 6.42767 25.2254 5.71567 26.1005 5.71567ZM26.1005 9.83358C27.9296 9.83358 29.4608 11.0865 29.8494 12.8211H22.3518C22.7403 11.0865 24.2715 9.83358 26.1005 9.83358ZM5.41493 13.7508H13.9966C14.1272 13.7508 14.2517 13.6959 14.3397 13.5996C14.4278 13.5033 14.4713 13.3743 14.4596 13.2443C14.3531 12.0622 13.8114 10.9674 12.9344 10.1616C12.4715 9.73623 11.9355 9.41224 11.3578 9.19921C11.8871 8.73748 12.2226 8.05881 12.2226 7.30291C12.2226 5.91515 11.0935 4.78604 9.70577 4.78604C8.31801 4.78604 7.18897 5.91508 7.18897 7.30291C7.18897 8.05881 7.52445 8.73748 8.05371 9.19921C7.47604 9.41224 6.94008 9.73623 6.47723 10.1616C5.60013 10.9674 5.05853 12.0622 4.95201 13.2443C4.94026 13.3743 4.98382 13.5032 5.07187 13.5996C5.15993 13.696 5.28437 13.7508 5.41493 13.7508ZM9.7057 5.71567C10.5809 5.71567 11.2929 6.42767 11.2929 7.30284C11.2929 8.17801 10.5809 8.89002 9.7057 8.89002C8.83053 8.89002 8.11859 8.17801 8.11859 7.30284C8.11859 6.42767 8.8306 5.71567 9.7057 5.71567ZM9.7057 9.83358C11.5348 9.83358 13.066 11.0865 13.4545 12.8211H5.957C6.34554 11.0865 7.87674 9.83358 9.70577 9.83358H9.7057Z" fill="#FE6035"/>
</g>
<defs>
<clipPath id="clip0_136_861">
<rect width="34" height="34" fill="white" transform="translate(0.902344 0.0655518)"/>
</clipPath>
</defs>
</svg>
