<svg width="36" height="35" viewBox="0 0 36 35" fill="none" xmlns="http://www.w3.org/2000/svg">
<g clip-path="url(#clip0_113_5609)">
<path d="M21.926 33.7824L20.2543 33.2485L20.7715 23.7078C21.2664 23.1764 21.6069 22.5076 21.7232 21.7682H21.7285C22.0514 21.7682 22.313 21.5146 22.313 21.2019V19.5439C22.313 19.5409 22.313 15.9386 22.313 15.9386V13.8258C22.313 12.8123 21.4619 11.9878 20.4156 11.9878H18.4188C18.3207 11.8083 18.1263 11.6858 17.9019 11.6858C17.6776 11.6858 17.4831 11.8083 17.3851 11.9878H15.3882C14.342 11.9878 13.4908 12.8123 13.4908 13.8258V15.9386V21.2018C13.4908 21.5145 13.7525 21.7681 14.0754 21.7681H14.0806C14.1969 22.5075 14.5375 23.1763 15.0324 23.7077L15.5496 33.2484L13.8779 33.7823C13.5713 33.8803 13.4047 34.2004 13.5058 34.4974C13.5869 34.7356 13.8155 34.8866 14.0609 34.8866C14.1216 34.8866 14.1833 34.8774 14.2441 34.858L16.3399 34.1886C16.5904 34.1087 16.7544 33.8762 16.7406 33.6211L16.2509 24.5868C16.7519 24.817 17.3117 24.9464 17.902 24.9464C18.4924 24.9464 19.0521 24.817 19.5531 24.5868L19.0634 33.6211C19.0495 33.8762 19.2137 34.1087 19.4641 34.1886L21.5599 34.858C21.6207 34.8774 21.6824 34.8866 21.7431 34.8866C21.9886 34.8866 22.2172 34.7356 22.2982 34.4974C22.3992 34.2005 22.2326 33.8803 21.926 33.7824ZM15.2702 21.7682H20.5337C20.2658 22.9369 19.1879 23.8138 17.902 23.8138C16.6161 23.8138 15.5381 22.9369 15.2702 21.7682ZM14.6601 20.6356V20.1087H15.3883C15.7112 20.1087 15.9729 19.8552 15.9729 19.5424C15.9729 19.2297 15.7112 18.9761 15.3883 18.9761H14.6601V16.505H17.3174V20.6356H14.6601ZM17.9019 14.2736C18.2249 14.2736 18.4865 14.0201 18.4865 13.7074V13.1204H19.5806L18.7342 15.3724H17.0696L16.2233 13.1204H17.3174V13.7074C17.3174 14.0201 17.5791 14.2736 17.9019 14.2736ZM21.1439 18.9761H20.4156C20.0927 18.9761 19.8311 19.2297 19.8311 19.5424C19.8311 19.8552 20.0927 20.1087 20.4156 20.1087H21.1439V20.6356H18.4865V16.505H21.1439V18.9761ZM21.1439 15.3724H19.9785L20.7876 13.2196C21.0007 13.3428 21.1438 13.5685 21.1438 13.8259L21.1439 15.3724ZM15.0163 13.2195L15.8253 15.3723H14.66V13.8258C14.6601 13.5684 14.8032 13.3427 15.0163 13.2195Z" fill="#FE6035"/>
<path d="M17.9014 11.2129C20.0887 11.2129 21.8681 9.4897 21.8681 7.37156C21.8681 5.25275 20.0887 3.52905 17.9014 3.52905C15.7149 3.52905 13.9361 5.25283 13.9361 7.37156C13.9361 9.4897 15.7149 11.2129 17.9014 11.2129ZM15.1052 7.37164C15.1052 5.87732 16.3596 4.6617 17.9014 4.6617C19.4439 4.6617 20.6989 5.8774 20.6989 7.37164C20.6989 8.8652 19.4439 10.0804 17.9014 10.0804C16.3595 10.0803 15.1052 8.8652 15.1052 7.37164Z" fill="#FE6035"/>
<path d="M27.8925 11.2129C30.0798 11.2129 31.8592 9.4897 31.8592 7.37156C31.8592 5.25275 30.0798 3.52905 27.8925 3.52905C25.706 3.52905 23.9271 5.25283 23.9271 7.37156C23.9271 9.4897 25.706 11.2129 27.8925 11.2129ZM25.0963 7.37156C25.0963 5.87725 26.3507 4.66162 27.8925 4.66162C29.435 4.66162 30.69 5.87732 30.69 7.37156C30.69 8.86512 29.435 10.0803 27.8925 10.0803C26.3507 10.0803 25.0963 8.8652 25.0963 7.37156Z" fill="#FE6035"/>
<path d="M32.2252 13.3019C31.9917 12.5429 31.2651 11.9878 30.4068 11.9878H28.41C28.3119 11.8083 28.1175 11.6858 27.8931 11.6858C27.6688 11.6858 27.4744 11.8083 27.3763 11.9878H25.3794C24.3332 11.9878 23.482 12.8123 23.482 13.8258V15.9387V21.2019C23.482 21.5146 23.7436 21.7682 24.0666 21.7682H24.0718C24.1881 22.5076 24.5286 23.1765 25.0236 23.7079L25.5407 33.2485L23.869 33.7824C23.5624 33.8803 23.3958 34.2005 23.4969 34.4975C23.578 34.7356 23.8066 34.8867 24.0521 34.8867C24.1127 34.8867 24.1744 34.8774 24.2352 34.858L26.3311 34.1887C26.5815 34.1087 26.7456 33.8762 26.7318 33.6212L26.2421 24.5868C26.7432 24.8171 27.3029 24.9465 27.8933 24.9465C28.4837 24.9465 29.0434 24.8171 29.5444 24.5868L29.0548 33.6212C29.0409 33.8762 29.205 34.1087 29.4555 34.1887L31.5513 34.858C31.6121 34.8774 31.6738 34.8867 31.7345 34.8867C31.9799 34.8867 32.2085 34.7356 32.2896 34.4975C32.3907 34.2005 32.224 33.8803 31.9175 33.7824L30.2458 33.2485L30.7629 23.7079C31.2579 23.1765 31.5985 22.5076 31.7148 21.7682H31.72C32.0429 21.7682 32.3046 21.5146 32.3046 21.2019V20.0527C33.6716 19.7887 34.705 18.6178 34.705 17.2172V16.1511C34.7047 14.7237 33.6311 13.5353 32.2252 13.3019ZM27.8931 23.8138C26.6071 23.8138 25.5292 22.9369 25.2614 21.7682H30.5249C30.257 22.937 29.1792 23.8138 27.8931 23.8138ZM30.4069 20.1087H31.1351V20.6356H28.4777V16.505H31.1351V18.9761H30.4069C30.0839 18.9761 29.8223 19.2297 29.8223 19.5424C29.8223 19.8552 30.084 20.1087 30.4069 20.1087ZM27.8931 14.2736C28.2161 14.2736 28.4777 14.0201 28.4777 13.7074V13.1204H29.5718L28.7254 15.3724H27.0609L26.2145 13.1204H27.3086V13.7074C27.3086 14.0201 27.5703 14.2736 27.8931 14.2736ZM31.1351 15.3724H29.9697L30.7787 13.2195C30.9919 13.3427 31.135 13.5684 31.135 13.8258V15.3724H31.1351ZM24.6511 20.6356V20.1087H25.3794C25.7024 20.1087 25.964 19.8552 25.964 19.5424C25.964 19.2297 25.7024 18.9761 25.3794 18.9761H24.6511V16.505H27.3086V20.6356H24.6511ZM25.0075 13.2196L25.8166 15.3725H24.6511V13.8259C24.6511 13.5684 24.7942 13.3427 25.0075 13.2196ZM33.5355 17.2172C33.5355 17.989 33.0195 18.6458 32.3043 18.8821V15.9387V14.4862C33.0195 14.7224 33.5355 15.3793 33.5355 16.1511V17.2172Z" fill="#FE6035"/>
<path d="M12.322 21.202V15.9388V13.826C12.322 12.8125 11.4708 11.988 10.4245 11.988H5.39718C4.53885 11.988 3.81218 12.5431 3.57874 13.3021C2.17285 13.5355 1.09933 14.724 1.09933 16.1514V17.2174C1.09933 18.618 2.13279 19.789 3.49978 20.0529V21.2021C3.49978 21.4509 3.66557 21.6617 3.89589 21.7377C3.53368 23.2852 2.72057 27.2776 2.72057 31.9308C2.72057 32.2435 2.98223 32.4971 3.30515 32.4971H5.51783L5.55852 33.2487L3.88685 33.7826C3.58022 33.8806 3.41365 34.2007 3.51474 34.4977C3.59581 34.7359 3.82442 34.8869 4.06986 34.8869C4.1305 34.8869 4.19223 34.8777 4.25303 34.8583L6.34888 34.1889C6.59931 34.109 6.76338 33.8765 6.74959 33.6214L6.68864 32.4972H9.13336L9.07241 33.6214C9.05853 33.8765 9.22268 34.109 9.47312 34.1889L11.569 34.8583C11.6298 34.8777 11.6914 34.8869 11.7521 34.8869C11.9976 34.8869 12.2262 34.7359 12.3073 34.4977C12.4083 34.2007 12.2417 33.8806 11.9351 33.7826L10.2635 33.2487L10.3042 32.4971H12.5168C12.8398 32.4971 13.1014 32.2435 13.1014 31.9308C13.1014 27.2776 12.2883 23.2852 11.9261 21.7377C12.1561 21.6616 12.322 21.4508 12.322 21.202ZM3.89386 31.3644C3.96012 26.8703 4.7917 23.0141 5.08984 21.7683H10.7319C11.0301 23.0141 11.8616 26.8703 11.9279 31.3644H3.89386ZM5.3971 18.9763H4.66886V16.5051H7.32622V20.6357H4.66886V20.1089H5.3971C5.72002 20.1089 5.98168 19.8553 5.98168 19.5426C5.98168 19.2298 5.71994 18.9763 5.3971 18.9763ZM7.9108 14.9692L6.53789 13.1205H9.28379L7.9108 14.9692ZM5.13318 13.1685L6.77009 15.3725H4.66886V13.826C4.66886 13.5272 4.86178 13.2712 5.13318 13.1685ZM11.1528 20.6357H8.49538V16.5051H11.1528V18.9763H10.4245C10.1016 18.9763 9.83992 19.2298 9.83992 19.5426C9.83992 19.8553 10.1016 20.1089 10.4245 20.1089H11.1528V20.6357ZM11.1528 15.3725H9.05152L10.6885 13.1685C10.9599 13.2711 11.1528 13.5271 11.1528 13.826V15.3725ZM2.26841 17.2173V16.1513C2.26841 15.3795 2.78448 14.7227 3.4997 14.4863V15.9388V18.8823C2.78448 18.646 2.26841 17.9892 2.26841 17.2173Z" fill="#FE6035"/>
<path d="M3.94476 7.37159C3.94476 9.48965 5.72415 11.2129 7.91143 11.2129C10.098 11.2129 11.8768 9.48973 11.8768 7.37159C11.8768 6.87424 11.7778 6.39917 11.5994 5.96252C11.595 5.95067 11.5904 5.93889 11.5852 5.92749C11.1968 5.00309 10.4476 4.25748 9.50765 3.85526C9.72948 3.54879 9.86019 3.17617 9.86019 2.77434C9.86019 1.7335 8.98604 0.886719 7.91158 0.886719C6.83712 0.886719 5.96297 1.7335 5.96297 2.77434C5.96297 3.1761 6.09361 3.54864 6.31536 3.85504C5.37504 4.2571 4.62561 5.00241 4.2369 5.92658C4.23105 5.93919 4.22599 5.95218 4.22108 5.96532C4.04344 6.40121 3.94476 6.8753 3.94476 7.37159ZM7.13214 2.77434C7.13214 2.358 7.4818 2.01929 7.91158 2.01929C8.34137 2.01929 8.69103 2.358 8.69103 2.77434C8.69103 3.18939 8.34347 3.52712 7.91556 3.52916C7.91415 3.52916 7.91283 3.52908 7.91143 3.52908C7.9101 3.52908 7.90885 3.52916 7.90753 3.52916C7.47962 3.52704 7.13214 3.18931 7.13214 2.77434ZM7.91143 4.66165C8.75011 4.66165 9.5032 5.02189 10.0162 5.59044H5.80576C6.31895 5.02189 7.07236 4.66165 7.91143 4.66165ZM7.91143 10.0803C6.36891 10.0803 5.11393 8.86523 5.11393 7.37159C5.11393 7.14802 5.14253 6.93095 5.19554 6.72301H10.6261C10.6791 6.93095 10.7077 7.1481 10.7077 7.37159C10.7077 8.86523 9.45324 10.0803 7.91143 10.0803Z" fill="#FE6035"/>
</g>
<defs>
<clipPath id="clip0_113_5609">
<rect width="35.0986" height="34" fill="white" transform="translate(0.352699 0.886719)"/>
</clipPath>
</defs>
</svg>
