<svg width="35" height="35" viewBox="0 0 35 35" fill="none" xmlns="http://www.w3.org/2000/svg">
<path d="M4.08942 10.4492H11.5269V11.5117H4.08942V10.4492Z" fill="#FE6035"/>
<path d="M4.08942 13.6367H9.40192V14.6992H4.08942V13.6367Z" fill="#FE6035"/>
<path d="M4.08942 16.8242H7.80817V17.8867H4.08942V16.8242Z" fill="#FE6035"/>
<path d="M4.08942 20.0117H7.80817V21.0742H4.08942V20.0117Z" fill="#FE6035"/>
<path d="M4.08942 23.1992H7.80817V24.2617H4.08942V23.1992Z" fill="#FE6035"/>
<path d="M4.08942 26.3867H7.80817V27.4492H4.08942V26.3867Z" fill="#FE6035"/>
<path d="M26.4019 15.7618H25.3394V13.6368C25.3402 13.5295 25.308 13.4246 25.2472 13.3362C25.1864 13.2479 25.0999 13.1803 24.9994 13.1428L18.4332 10.614V6.19932H20.5582V5.13682H18.4332V3.01182H17.3707V5.13682H15.2457V6.19932H17.3707V10.614L13.6519 12.0484V7.79307C13.6523 7.72315 13.6389 7.65384 13.6125 7.58912C13.5861 7.52439 13.5471 7.46552 13.4979 7.41588L8.18536 2.10338C8.08506 2.00385 7.94948 1.948 7.80818 1.948C7.66687 1.948 7.53129 2.00385 7.43099 2.10338L2.11849 7.41588C2.06925 7.46552 2.0303 7.52439 2.00386 7.58912C1.97742 7.65384 1.96402 7.72315 1.96443 7.79307V33.2931C1.96443 33.434 2.0204 33.5691 2.12002 33.6687C2.21965 33.7683 2.35478 33.8243 2.49568 33.8243H26.4019C26.5428 33.8243 26.6779 33.7683 26.7776 33.6687C26.8772 33.5691 26.9332 33.434 26.9332 33.2931V16.2931C26.9332 16.1522 26.8772 16.017 26.7776 15.9174C26.6779 15.8178 26.5428 15.7618 26.4019 15.7618ZM17.9019 11.549L24.2769 14.0034V15.7618H11.5269V14.0034L17.9019 11.549ZM10.4644 13.6368V15.7618H9.40193C9.26103 15.7618 9.1259 15.8178 9.02628 15.9174C8.92665 16.017 8.87068 16.1522 8.87068 16.2931V32.7618H3.02693V8.32432H12.5894V12.4521L10.8044 13.1428C10.7039 13.1803 10.6174 13.2479 10.5566 13.3362C10.4958 13.4246 10.4636 13.5295 10.4644 13.6368ZM14.7144 22.1368H11.5269C11.386 22.1368 11.2509 22.0808 11.1513 21.9812C11.0516 21.8816 10.9957 21.7465 10.9957 21.6056V18.4181C10.9957 18.2772 11.0516 18.142 11.1513 18.0424C11.2509 17.9428 11.386 17.8868 11.5269 17.8868H14.7144C14.8553 17.8868 14.9904 17.9428 15.0901 18.0424C15.1897 18.142 15.2457 18.2772 15.2457 18.4181V21.6056C15.2457 21.7465 15.1897 21.8816 15.0901 21.9812C14.9904 22.0808 14.8553 22.1368 14.7144 22.1368ZM20.5582 32.7618H15.2457V26.9181C15.2469 26.4958 15.4153 26.0911 15.7139 25.7925C16.0125 25.4939 16.4171 25.3256 16.8394 25.3243H18.9644C19.3867 25.3256 19.7914 25.4939 20.09 25.7925C20.3886 26.0911 20.5569 26.4958 20.5582 26.9181V32.7618ZM24.8082 21.6056C24.8082 21.7465 24.7522 21.8816 24.6526 21.9812C24.5529 22.0808 24.4178 22.1368 24.2769 22.1368H21.0894C20.9485 22.1368 20.8134 22.0808 20.7138 21.9812C20.6141 21.8816 20.5582 21.7465 20.5582 21.6056V18.4181C20.5582 18.2772 20.6141 18.142 20.7138 18.0424C20.8134 17.9428 20.9485 17.8868 21.0894 17.8868H24.2769C24.4178 17.8868 24.5529 17.9428 24.6526 18.0424C24.7522 18.142 24.8082 18.2772 24.8082 18.4181V21.6056Z" fill="#FE6035"/>
<path d="M32.6813 26.3867C32.66 26.4398 32.6388 26.4877 32.6175 26.5408L33.4357 27.3589L32.6866 28.108L31.8685 27.2898C31.8154 27.3111 31.7675 27.3323 31.7144 27.3536V28.5117H30.6519V27.3536C30.5988 27.3323 30.551 27.3111 30.4979 27.2898L29.6797 28.108L28.9307 27.3589L29.7488 26.5408C29.7275 26.4877 29.7063 26.4398 29.685 26.3867H28.5269V25.3242H29.685C29.7063 25.2711 29.7275 25.2233 29.7488 25.1702L28.9307 24.352L29.6797 23.603L30.4979 24.4211C30.551 24.3998 30.5988 24.3786 30.6519 24.3573V23.1992H31.7144V24.3573C31.7675 24.3786 31.8154 24.3998 31.8685 24.4211L32.6866 23.603L33.4357 24.352L32.6175 25.1702C32.6388 25.2233 32.66 25.2711 32.6813 25.3242H33.8394V26.3867H32.6813Z" fill="#FE6035"/>
<path d="M32.6813 17.8867C32.66 17.9398 32.6388 17.9877 32.6175 18.0408L33.4357 18.8589L32.6866 19.608L31.8685 18.7898C31.8154 18.8111 31.7675 18.8323 31.7144 18.8536V20.0117H30.6519V18.8536C30.5988 18.8323 30.551 18.8111 30.4979 18.7898L29.6797 19.608L28.9307 18.8589L29.7488 18.0408C29.7275 17.9877 29.7063 17.9398 29.685 17.8867H28.5269V16.8242H29.685C29.7063 16.7711 29.7275 16.7233 29.7488 16.6702L28.9307 15.852L29.6797 15.103L30.4979 15.9211C30.551 15.8998 30.5988 15.8786 30.6519 15.8573V14.6992H31.7144V15.8573C31.7675 15.8786 31.8154 15.8998 31.8685 15.9211L32.6866 15.103L33.4357 15.852L32.6175 16.6702C32.6388 16.7233 32.66 16.7711 32.6813 16.8242H33.8394V17.8867H32.6813Z" fill="#FE6035"/>
<path d="M32.7769 6.19927C32.5915 6.20039 32.4096 6.25002 32.2493 6.34321C32.089 6.43641 31.9559 6.56994 31.8632 6.73052H31.13C31.0608 6.39887 30.9292 6.08339 30.7422 5.80084L31.2628 5.28021C31.3513 5.30371 31.4423 5.3162 31.5338 5.3174C31.8142 5.3167 32.0831 5.20608 32.2828 5.00927C32.3821 4.91088 32.461 4.79379 32.5148 4.66477C32.5685 4.53575 32.5962 4.39734 32.5962 4.25755C32.5962 4.11777 32.5685 3.97936 32.5148 3.85034C32.461 3.72132 32.3821 3.60423 32.2828 3.50584C32.0808 3.3115 31.8114 3.20295 31.5311 3.20295C31.2508 3.20295 30.9814 3.3115 30.7794 3.50584C30.6809 3.60401 30.603 3.7208 30.5501 3.8494C30.4972 3.978 30.4704 4.11584 30.4713 4.2549C30.4725 4.3464 30.485 4.4374 30.5085 4.52584L29.9878 5.04646C29.7053 4.85951 29.3898 4.72791 29.0582 4.65865V3.92552C29.2607 3.80858 29.419 3.62806 29.5085 3.41197C29.598 3.19588 29.6137 2.9563 29.5532 2.73038C29.4927 2.50445 29.3593 2.30482 29.1737 2.16243C28.9882 2.02005 28.7608 1.94287 28.5269 1.94287C28.293 1.94287 28.0657 2.02005 27.8801 2.16243C27.6945 2.30482 27.5612 2.50445 27.5006 2.73038C27.4401 2.9563 27.4558 3.19588 27.5453 3.41197C27.6348 3.62806 27.7931 3.80858 27.9957 3.92552V4.65865C27.664 4.72791 27.3485 4.85951 27.066 5.04646L26.5453 4.52584C26.5688 4.4374 26.5813 4.3464 26.5825 4.2549C26.5834 4.11584 26.5567 3.978 26.5038 3.8494C26.4509 3.7208 26.3729 3.60401 26.2744 3.50584C26.0724 3.3115 25.803 3.20295 25.5227 3.20295C25.2424 3.20295 24.973 3.3115 24.771 3.50584C24.6717 3.60423 24.5929 3.72132 24.5391 3.85034C24.4853 3.97936 24.4576 4.11777 24.4576 4.25755C24.4576 4.39734 24.4853 4.53575 24.5391 4.66477C24.5929 4.79379 24.6717 4.91088 24.771 5.00927C24.9707 5.20608 25.2396 5.3167 25.52 5.3174C25.6115 5.3162 25.7025 5.30371 25.791 5.28021L26.3116 5.80084C26.1246 6.08339 25.993 6.39887 25.9238 6.73052H25.1907C25.0737 6.52797 24.8932 6.36966 24.6771 6.28015C24.461 6.19064 24.2214 6.17494 23.9955 6.23548C23.7696 6.29601 23.57 6.4294 23.4276 6.61496C23.2852 6.80052 23.208 7.02788 23.208 7.26177C23.208 7.49567 23.2852 7.72302 23.4276 7.90858C23.57 8.09414 23.7696 8.22753 23.9955 8.28807C24.2214 8.3486 24.461 8.3329 24.6771 8.24339C24.8932 8.15389 25.0737 7.99558 25.1907 7.79302H25.9238C25.993 8.12467 26.1246 8.44015 26.3116 8.72271L25.7857 9.24865C25.6079 9.20312 25.4215 9.20362 25.2439 9.25009C25.0664 9.29656 24.9036 9.38748 24.771 9.51427C24.647 9.63753 24.5553 9.78947 24.5041 9.95663C24.4529 10.1238 24.4438 10.301 24.4774 10.4726C24.5111 10.6441 24.5866 10.8047 24.6973 10.9401C24.8079 11.0755 24.9502 11.1815 25.1116 11.2487C25.273 11.3159 25.4485 11.3422 25.6225 11.3254C25.7965 11.3085 25.9637 11.249 26.1091 11.152C26.2546 11.0551 26.374 10.9238 26.4565 10.7697C26.5391 10.6156 26.5824 10.4435 26.5825 10.2686C26.5813 10.1771 26.5688 10.0861 26.5453 9.99771L27.066 9.47709C27.3485 9.66403 27.664 9.79564 27.9957 9.8649V10.598C27.7931 10.715 27.6348 10.8955 27.5453 11.1116C27.4558 11.3277 27.4401 11.5672 27.5006 11.7932C27.5612 12.0191 27.6945 12.2187 27.8801 12.3611C28.0657 12.5035 28.293 12.5807 28.5269 12.5807C28.7608 12.5807 28.9882 12.5035 29.1737 12.3611C29.3593 12.2187 29.4927 12.0191 29.5532 11.7932C29.6137 11.5672 29.598 11.3277 29.5085 11.1116C29.419 10.8955 29.2607 10.715 29.0582 10.598V9.8649C29.3898 9.79564 29.7053 9.66403 29.9878 9.47709L30.5085 9.99771C30.485 10.0861 30.4725 10.1771 30.4713 10.2686C30.4714 10.4435 30.5147 10.6156 30.5973 10.7697C30.6799 10.9238 30.7992 11.0551 30.9447 11.152C31.0902 11.249 31.2573 11.3085 31.4313 11.3254C31.6054 11.3422 31.7808 11.3159 31.9422 11.2487C32.1036 11.1815 32.2459 11.0755 32.3566 10.9401C32.4672 10.8047 32.5427 10.6441 32.5764 10.4726C32.6101 10.301 32.6009 10.1238 32.5497 9.95663C32.4985 9.78947 32.4068 9.63753 32.2828 9.51427C32.15 9.38778 31.9872 9.29706 31.8098 9.2506C31.6323 9.20415 31.446 9.20347 31.2682 9.24865L30.7422 8.72271C30.9292 8.44015 31.0608 8.12467 31.13 7.79302H31.8632C31.9566 7.95478 32.0909 8.08905 32.2528 8.18231C32.4146 8.27558 32.5981 8.32454 32.7849 8.32425C32.9717 8.32397 33.1551 8.27445 33.3166 8.1807C33.4782 8.08694 33.6122 7.95226 33.7051 7.79022C33.798 7.62819 33.8465 7.44453 33.8458 7.25775C33.8451 7.07097 33.7952 6.88768 33.701 6.72635C33.6069 6.56502 33.4719 6.43135 33.3097 6.33882C33.1475 6.24628 32.9637 6.19815 32.7769 6.19927ZM29.0582 7.79302H27.9957V6.73052H29.0582V7.79302Z" fill="#FE6035"/>
<path d="M16.3082 13.6367H19.4957V14.6992H16.3082V13.6367Z" fill="#FE6035"/>
</svg>
