<svg width="35" height="35" viewBox="0 0 35 35" fill="none" xmlns="http://www.w3.org/2000/svg">
<path d="M31.1684 18.8134C31.6199 18.5936 32.023 18.3054 32.373 17.9481C33.4674 16.8318 33.98 15.1238 33.897 12.872C33.895 12.8122 33.8791 12.7531 33.8512 12.7C32.7973 10.7085 31.4991 9.48594 29.9936 9.06625C29.5115 8.93211 29.0195 8.88297 28.5181 8.91816C28.8183 8.05356 28.8395 7.15641 28.5785 6.24133C28.2465 5.07988 27.4622 3.91844 26.2477 2.7902C26.2038 2.74902 26.1514 2.71914 26.0936 2.70121C24.5085 2.21313 23.1106 2.11484 21.9392 2.40836C21.0162 2.63945 20.2499 3.10695 19.6515 3.79891C19.4317 3.34734 19.1429 2.94492 18.7856 2.59496C17.6693 1.50059 15.9613 0.988595 13.7095 1.07094C13.6497 1.07293 13.5906 1.08887 13.5375 1.11676C11.546 2.17063 10.3234 3.46887 9.90309 4.9743C9.76895 5.45641 9.71981 5.94848 9.75501 6.44984C8.8904 6.14969 7.99325 6.12844 7.07817 6.39008C5.91673 6.72211 4.75528 7.50637 3.62638 8.72094C3.58587 8.76477 3.55532 8.81789 3.53739 8.875C3.04931 10.4601 2.95102 11.858 3.24454 13.0294C3.47563 13.9524 3.94313 14.7188 4.63509 15.3177C4.18352 15.5375 3.7811 15.8264 3.43114 16.1837C2.33677 17.3 1.82411 19.0079 1.90712 21.2598C1.90911 21.3195 1.92505 21.3786 1.95294 21.4318C3.00681 23.4233 4.30505 24.6458 5.81048 25.0655C6.19165 25.1718 6.57946 25.2249 6.97325 25.2249C7.07684 25.2249 7.18177 25.2209 7.28602 25.2129C6.98587 26.0775 6.96462 26.9747 7.22559 27.8898C7.55763 29.0512 8.34188 30.2127 9.55645 31.3409C9.60028 31.3821 9.65274 31.412 9.71052 31.4299C10.7013 31.7347 11.619 31.8881 12.4544 31.8881C12.9551 31.8881 13.4259 31.833 13.8649 31.7234C14.7879 31.4923 15.5549 31.0248 16.1539 30.3322C16.4833 31.0122 16.9654 31.576 17.5996 32.0156C18.609 32.7155 19.9656 33.0695 21.6371 33.0695C21.7872 33.0695 21.9399 33.0668 22.0953 33.0608C22.155 33.0588 22.2141 33.0429 22.2673 33.015C24.2588 31.9611 25.4813 30.6629 25.9017 29.1575C26.0358 28.676 26.085 28.1839 26.0498 27.6826C26.5126 27.8433 26.9841 27.9236 27.4636 27.9236C27.8799 27.9236 28.3009 27.8632 28.7266 27.7417C29.8881 27.4096 31.0495 26.6254 32.1784 25.4108C32.2189 25.367 32.2495 25.3139 32.2674 25.2568C32.7555 23.6716 32.8538 22.2738 32.5602 21.1024C32.3285 20.1787 31.861 19.4123 31.1684 18.8134ZM29.7791 9.83324C30.9572 10.162 32.0058 11.1029 32.9022 12.6336L30.2374 13.3475C30.0249 13.4046 29.8987 13.623 29.9558 13.8355C30.0036 14.0135 30.1643 14.1311 30.3403 14.1311C30.3741 14.1311 30.4093 14.1264 30.4439 14.1171L33.1081 13.4032C33.0975 15.1763 32.6599 16.5164 31.8039 17.3896C31.3782 17.8239 30.8516 18.136 30.23 18.3253C30.2274 18.3259 30.2247 18.3273 30.2221 18.3279C29.7745 18.4627 29.2771 18.5331 28.7326 18.5391C28.7983 18.053 28.8315 17.5609 28.8315 17.0655C28.8315 14.5481 27.9756 12.2265 26.5399 10.3771C27.6781 9.73496 28.7671 9.55102 29.7791 9.83324ZM23.865 25.2581C23.8072 25.2089 23.7475 25.1618 23.6837 25.118L21.6344 23.7155V21.5619C21.9824 22.0487 22.3244 22.481 22.6777 22.8814C23.0509 23.3051 23.5469 23.5289 24.1114 23.5289H25.7065C25.1666 24.1796 24.5503 24.7587 23.865 25.2581ZM24.1114 22.7313C23.7774 22.7313 23.4958 22.6045 23.2753 22.3541C22.7069 21.71 22.1657 20.9742 21.5727 20.0399C21.4777 19.8905 21.2951 19.8214 21.1251 19.8705C20.9551 19.9204 20.8375 20.0757 20.8375 20.253V23.9253C20.8375 24.0568 20.9026 24.1796 21.0109 24.254L23.2341 25.7754C23.8265 26.1811 23.8756 26.8459 23.7375 27.2921C23.5981 27.7423 23.199 28.2225 22.495 28.2225H17.9017C17.3884 28.2225 16.9707 27.8048 16.9707 27.2914C16.9707 26.7741 17.3884 26.3531 17.9017 26.3531H20.8057C21.0255 26.3531 21.2041 26.1745 21.2041 25.9547C21.2041 25.7349 21.0255 25.5563 20.8057 25.5563H17.9017C16.9488 25.5563 16.1738 26.3345 16.1738 27.2914C16.1738 27.6341 16.2748 27.9535 16.4474 28.2225H13.3084C12.6045 28.2225 12.2054 27.7417 12.0659 27.2921C11.9278 26.8459 11.977 26.1805 12.5693 25.7754L14.7926 24.254C14.9008 24.1796 14.9659 24.0568 14.9659 23.9253V20.253C14.9659 20.0757 14.849 19.9197 14.6784 19.8705C14.6418 19.8599 14.604 19.8546 14.5675 19.8546C14.4333 19.8546 14.3058 19.9223 14.2308 20.0392C13.6378 20.9736 13.0966 21.7093 12.5281 22.3535C12.307 22.6038 12.0261 22.7307 11.6921 22.7307H8.70114C8.10481 22.7307 7.65524 22.2592 7.65524 21.6336C7.65524 21.0566 8.12473 20.5877 8.70114 20.5877H10.6814C11.4238 20.5877 12.064 20.1906 12.394 19.5259L12.4883 19.3353C12.9133 18.4773 13.3529 17.5895 13.8861 16.8232C14.3457 16.1624 15.0137 15.8131 15.8179 15.8131H19.9849C20.7897 15.8131 21.4578 16.1624 21.9166 16.8232C22.4492 17.5895 22.8895 18.4767 23.3145 19.3353L23.4088 19.5259C23.7388 20.1906 24.379 20.5877 25.1214 20.5877H27.1017C27.6787 20.5877 28.1475 21.0572 28.1475 21.6336C28.1475 22.2592 27.698 22.7307 27.1017 22.7307H24.1114V22.7313ZM12.1197 25.118C12.056 25.1618 11.9962 25.2089 11.9384 25.2581C11.2531 24.7587 10.6369 24.1796 10.0977 23.5289H11.6927C12.2572 23.5289 12.7533 23.3051 13.1265 22.8814C13.4797 22.481 13.8217 22.0493 14.1697 21.5619V23.7155L12.1197 25.118ZM27.1023 19.7915H25.1221C24.6825 19.7915 24.3186 19.5657 24.1233 19.1726L24.029 18.9827C23.5907 18.0988 23.1379 17.1844 22.5714 16.3696C21.9651 15.4984 21.0467 15.0182 19.9856 15.0182H19.0127C20.2698 14.5627 21.1702 13.3568 21.1702 11.9443C21.1702 10.142 19.704 8.67578 17.9017 8.67578C16.0995 8.67578 14.6332 10.142 14.6332 11.9443C14.6332 13.3568 15.5337 14.5627 16.7914 15.0182H15.8186C14.7567 15.0182 13.8383 15.4984 13.2327 16.3696C12.6663 17.1844 12.2134 18.0988 11.7751 18.9827L11.6808 19.1726C11.4856 19.5657 11.1216 19.7915 10.682 19.7915H8.70181C8.51454 19.7915 8.33391 19.8201 8.16325 19.8719C7.90161 18.9634 7.76946 18.0218 7.76946 17.0655C7.76946 11.4781 12.315 6.93262 17.9024 6.93262C23.4898 6.93262 28.0347 11.4781 28.0347 17.0655C28.0347 18.0218 27.9018 18.9634 27.6409 19.8719C27.4702 19.8194 27.2896 19.7915 27.1023 19.7915ZM17.9017 14.4153C16.5391 14.4153 15.4301 13.3063 15.4301 11.9436C15.4301 10.581 16.5391 9.47199 17.9017 9.47199C19.2644 9.47199 20.3734 10.581 20.3734 11.9436C20.3734 13.3063 19.2644 14.4153 17.9017 14.4153ZM25.3744 3.32543L23.9952 5.71406C23.8849 5.90465 23.9507 6.14836 24.1413 6.25859C24.2037 6.29445 24.2727 6.31172 24.3398 6.31172C24.4773 6.31172 24.6114 6.24 24.6851 6.1125L26.0644 3.72387C27.4025 5.0832 28.5852 7.01098 27.5904 9.07887C27.0738 9.21898 26.5498 9.44477 26.0199 9.75688C24.5018 8.07281 22.4691 6.86156 20.1715 6.37414C20.1768 5.76188 20.1104 5.19742 19.9743 4.68211C21.2679 2.78621 23.5283 2.84531 25.3744 3.32543ZM10.6694 5.18813C10.9981 4.01008 11.9391 2.96086 13.4698 2.06504L14.1836 4.72992C14.2315 4.90789 14.3922 5.02543 14.5681 5.02543C14.602 5.02543 14.6372 5.02078 14.6717 5.01149C14.8842 4.95438 15.0104 4.7359 14.9533 4.5234L14.2394 1.85918C16.0125 1.87047 17.3525 2.30742 18.2258 3.1634C18.9755 3.89785 19.3607 4.93113 19.3746 6.23535C18.8925 6.17027 18.4011 6.13574 17.9011 6.13574C15.3836 6.13574 13.0627 6.99172 11.2126 8.42742C10.5711 7.28922 10.3872 6.20016 10.6694 5.18813ZM4.16161 9.59285L6.55024 10.9721C6.61266 11.008 6.68173 11.0252 6.7488 11.0252C6.88626 11.0252 7.0204 10.9535 7.09411 10.826C7.20434 10.6354 7.1386 10.3917 6.94802 10.2815L4.55938 8.90223C5.91872 7.56414 7.84649 6.38145 9.91438 7.37621C10.0545 7.89285 10.2803 8.4168 10.5924 8.94672C8.90833 10.4648 7.69708 12.4975 7.20966 14.7951C6.59806 14.7905 6.0336 14.8562 5.51829 14.993C3.62305 13.6994 3.68149 11.4389 4.16161 9.59285ZM6.02431 24.2979C4.84626 23.9691 3.7977 23.0282 2.90122 21.4975L5.5661 20.7836C5.7786 20.7265 5.90477 20.508 5.84766 20.2955C5.79056 20.083 5.57208 19.9569 5.35958 20.014L2.69536 20.7279C2.70599 18.9548 3.1436 17.6147 3.99958 16.7415C4.73403 15.9924 5.76731 15.6059 7.07153 15.592C7.00645 16.0741 6.97192 16.5662 6.97192 17.0655C6.97192 18.1626 7.13395 19.2423 7.4527 20.2803C7.08747 20.617 6.85837 21.0997 6.85837 21.6343C6.85837 22.6961 7.66786 23.5282 8.70114 23.5282H9.08696C9.14341 23.6052 9.20052 23.6816 9.25895 23.7566C8.12208 24.3968 7.03501 24.5794 6.02431 24.2979ZM10.429 30.8057L11.4749 28.9948C11.5852 28.8042 11.5194 28.5605 11.3288 28.4502C11.1383 28.34 10.8945 28.4057 10.7843 28.5963L9.73841 30.4072C8.40032 29.0486 7.21829 27.1214 8.21173 25.0542C8.72704 24.9148 9.24966 24.6883 9.77825 24.3775C10.2783 24.9327 10.8328 25.4347 11.4377 25.879C11.1821 26.3671 11.1256 26.9508 11.3043 27.5279C11.5845 28.4343 12.3714 29.02 13.3077 29.02H15.7342C15.7608 29.1668 15.7913 29.3102 15.8285 29.449C14.5356 31.3449 12.2751 31.2858 10.429 30.8057ZM25.134 28.943C24.8053 30.121 23.8643 31.1702 22.3337 32.0661L21.7626 29.9338C21.7055 29.7213 21.487 29.5951 21.2745 29.6522C21.062 29.7093 20.9358 29.9278 20.9929 30.1403L21.564 32.2726C19.5652 32.258 17.3433 31.6889 16.6466 29.4118C16.644 29.4025 16.6413 29.3932 16.638 29.3839C16.6035 29.2677 16.5736 29.1455 16.547 29.0207H22.4944C23.4314 29.0207 24.2176 28.435 24.4979 27.5285C24.6765 26.9514 24.62 26.3677 24.3644 25.8797C24.4408 25.8232 24.5171 25.7668 24.5915 25.7083C25.233 26.8445 25.4156 27.9323 25.134 28.943ZM25.8891 26.7549C25.7496 26.2402 25.5245 25.7176 25.2137 25.1897C25.7689 24.6903 26.2709 24.1345 26.7158 23.5282H27.1017C28.1349 23.5282 28.9444 22.6961 28.9444 21.6343C28.9444 21.0991 28.7153 20.617 28.3501 20.2803C28.4457 19.9695 28.5274 19.6547 28.5945 19.3366C28.6157 19.3366 28.6376 19.3373 28.6589 19.3373C29.2459 19.3373 29.7891 19.2709 30.2865 19.1394C32.1804 20.433 32.1213 22.6922 31.6418 24.5382L29.2532 23.159C29.0626 23.0494 28.8189 23.1145 28.7087 23.3051C28.5984 23.4957 28.6642 23.7394 28.8548 23.8496L31.2434 25.2289C29.8847 26.567 27.957 27.749 25.8891 26.7549ZM18.1322 17.462L17.9017 17.6924L17.6713 17.462C17.0783 16.869 16.1134 16.869 15.5204 17.462C14.9274 18.055 14.9274 19.0199 15.5204 19.6122L17.6195 21.7113C17.6972 21.789 17.7995 21.8282 17.9011 21.8282C18.0027 21.8282 18.1049 21.789 18.1826 21.7113L20.2817 19.6122C20.8747 19.0192 20.8747 18.0543 20.2817 17.462C19.6894 16.869 18.7252 16.869 18.1322 17.462ZM19.7193 19.0491L17.9017 20.8666L16.0842 19.0491C15.802 18.7669 15.802 18.3073 16.0842 18.0251C16.3664 17.7429 16.8259 17.7429 17.1075 18.0251L17.6195 18.5371C17.7749 18.6925 18.0272 18.6925 18.1833 18.5371L18.6953 18.0251C18.9775 17.7429 19.437 17.7429 19.7186 18.0251C20.0015 18.3073 20.0015 18.7669 19.7193 19.0491Z" fill="#FE6035"/>
</svg>
