<svg width="24" height="25" viewBox="0 0 24 25" fill="none" xmlns="http://www.w3.org/2000/svg">
<g clip-path="url(#clip0_113_5142)">
<path d="M17.8872 15.691C18.1623 16.0766 18.6281 16.7294 19.2194 17.2386C19.5564 17.2064 20.2782 17.2195 20.6631 17.8371C20.7464 17.9709 20.8276 18.1361 20.9042 18.3281C20.9761 18.5085 20.8882 18.713 20.7079 18.7849C20.5275 18.8568 20.323 18.769 20.2511 18.5886C20.1899 18.4352 20.1278 18.3075 20.0664 18.209C19.8271 17.825 19.195 17.9503 19.1886 17.9518C19.0844 17.9744 18.9758 17.9487 18.8929 17.8818C18.1697 17.2976 17.6285 16.539 17.315 16.0995C16.7015 15.2399 16.1335 13.5086 15.7651 12.2077C15.6418 11.7723 15.291 11.4352 14.8496 11.328L13.06 10.8933C13.045 11.3359 12.7559 11.7102 12.3576 11.8514V13.5605C12.7607 13.7089 13.0489 14.0967 13.0489 14.5507C13.0489 15.0091 12.755 15.4 12.3458 15.5452V16.8375C12.755 16.9826 13.0489 17.3736 13.0489 17.832C13.0489 18.2903 12.755 18.6813 12.3458 18.8264V19.8734C12.7581 20.0168 13.0548 20.4093 13.0548 20.8699C13.0548 21.1398 12.9529 21.3863 12.7856 21.573C12.8731 21.6706 12.9427 21.7846 12.9891 21.9097C16.5696 21.7974 18.6064 21.0566 18.7737 19.811C18.0698 19.2907 17.4001 18.7323 16.8774 18.2618H14.7481C14.6012 18.2618 14.4698 18.1705 14.4186 18.0327C14.4159 18.0256 14.3525 17.8539 14.2829 17.5744C14.2359 17.386 14.3506 17.1953 14.539 17.1483C14.7272 17.1016 14.9182 17.216 14.9652 17.4044C14.9794 17.4614 14.9932 17.513 15.006 17.5586H16.1403C16.0231 17.4371 15.935 17.3378 15.882 17.267C15.5897 16.8769 15.1916 15.9649 14.8924 15.2225C14.8375 15.5215 14.7955 15.8265 14.7955 16.06C14.7955 16.2543 14.6382 16.4116 14.444 16.4116C14.2497 16.4116 14.0924 16.2543 14.0924 16.06C14.0924 15.2935 14.4526 13.9833 14.4679 13.928C14.5087 13.7807 14.64 13.6766 14.7927 13.6705C14.9459 13.6638 15.0846 13.7576 15.137 13.9012C15.3746 14.5518 16.0726 16.3488 16.4448 16.8454C16.6466 17.1148 17.8987 18.3082 19.3186 19.3406C19.3352 19.3506 19.3508 19.362 19.3654 19.3746C19.775 19.6706 20.1978 19.9524 20.6125 20.194C20.6184 20.1973 20.6263 20.202 20.6405 20.1924C20.6552 20.1824 20.6537 20.1725 20.6527 20.166C20.6333 20.0352 20.6099 19.9006 20.5832 19.766C20.5454 19.5756 20.6691 19.3905 20.8596 19.3527C21.05 19.3148 21.2351 19.4387 21.2728 19.6291C21.3018 19.7748 21.3271 19.9207 21.3482 20.0627C21.3898 20.3427 21.2697 20.6155 21.0348 20.7746C20.8002 20.9335 20.5027 20.9438 20.2586 20.8015C19.9747 20.6363 19.6837 20.4502 19.3928 20.2516C19.1257 21.0661 18.3446 21.5577 17.6691 21.8398C16.5902 22.2903 15.0199 22.5502 12.9998 22.6129C12.8964 22.9191 12.6559 23.1628 12.3517 23.2707V24.3854C12.3517 24.5796 12.1944 24.7369 12.0002 24.7369C11.806 24.7369 11.6486 24.5796 11.6486 24.3854V23.2705C11.3444 23.1626 11.1039 22.9189 11.0006 22.6126C10.1252 22.5855 9.32656 22.5208 8.62503 22.4201C8.43284 22.3926 8.29939 22.2144 8.32695 22.0222C8.35451 21.83 8.5325 21.6966 8.72487 21.7242C9.39772 21.8207 10.1663 21.883 11.0112 21.9095C11.0577 21.7845 11.1273 21.6705 11.2147 21.5729C11.0474 21.3862 10.9455 21.1397 10.9455 20.8698C10.9455 20.4137 11.2366 20.0242 11.6428 19.8775V18.8263C11.2336 18.6812 10.9397 18.2902 10.9397 17.8319C10.9397 17.3735 11.2336 16.9825 11.6428 16.8374V15.5451C11.2336 15.4 10.9397 15.009 10.9397 14.5506C10.9397 14.0879 11.2392 13.6938 11.6546 13.5521V11.8513C11.2553 11.7098 10.9659 11.3342 10.952 10.8904L9.15073 11.3279C8.70931 11.4351 8.35854 11.7722 8.23522 12.2076C8.18229 12.3944 7.988 12.5029 7.80115 12.45C7.61431 12.3971 7.5058 12.2028 7.55867 12.016C7.75095 11.3371 8.29737 10.8116 8.98475 10.6446L10.8421 10.1935C9.80825 9.65683 9.15476 8.58119 9.15476 7.3772V5.69177C9.15476 4.94181 9.44398 4.23405 9.96922 3.69888C10.1052 3.56031 10.3278 3.55816 10.4664 3.69419C10.6049 3.83017 10.607 4.05274 10.4711 4.1913C10.0756 4.59424 9.85789 5.12706 9.85789 5.69172V7.37716C9.85789 8.39355 10.4522 9.2913 11.372 9.66433C11.4667 9.70272 11.5588 9.73319 11.6481 9.75559L11.6431 6.92017C11.2337 6.77514 10.9396 6.38402 10.9396 5.92558C10.9396 5.46724 11.2335 5.07625 11.6427 4.93113V4.19233C11.2335 4.0472 10.9396 3.65622 10.9396 3.19788C10.9396 2.73953 11.2335 2.34855 11.6427 2.20342V1.0885C11.6427 0.894298 11.8002 0.736938 11.9943 0.736938C12.1885 0.736938 12.3459 0.894298 12.3459 1.0885V2.20342C12.7077 2.33167 12.9793 2.6522 13.0374 3.0415C14.1132 3.46389 14.8456 4.52111 14.8456 5.69172V7.37716C14.8456 8.58109 14.1921 9.65678 13.1582 10.1935L15.0156 10.6446C15.703 10.8115 16.2494 11.337 16.4417 12.0159C16.9409 13.7792 17.4543 15.0843 17.8872 15.691ZM12 21.9244C11.8062 21.9244 11.6485 22.0821 11.6485 22.276C11.6485 22.4699 11.8062 22.6276 12 22.6276C12.1939 22.6276 12.3516 22.4699 12.3516 22.276C12.3516 22.0821 12.1939 21.9244 12 21.9244ZM12 20.5182C11.8062 20.5182 11.6485 20.6759 11.6485 20.8698C11.6485 21.0636 11.8062 21.2213 12 21.2213C12.1939 21.2213 12.3516 21.0636 12.3516 20.8698C12.3516 20.6759 12.1939 20.5182 12 20.5182ZM11.9942 17.4803C11.8003 17.4803 11.6426 17.638 11.6426 17.8318C11.6426 18.0257 11.8003 18.1834 11.9942 18.1834C12.188 18.1834 12.3457 18.0257 12.3457 17.8318C12.3457 17.638 12.188 17.4803 11.9942 17.4803ZM11.9942 14.199C11.8003 14.199 11.6426 14.3567 11.6426 14.5506C11.6426 14.7445 11.8003 14.9021 11.9942 14.9021C12.188 14.9021 12.3457 14.7445 12.3457 14.5506C12.3457 14.3567 12.188 14.199 11.9942 14.199ZM12.0059 10.5053C11.8121 10.5053 11.6544 10.663 11.6544 10.8569C11.6544 11.0508 11.8121 11.2084 12.0059 11.2084C12.1998 11.2084 12.3575 11.0508 12.3575 10.8569C12.3575 10.663 12.1998 10.5053 12.0059 10.5053ZM12.3461 6.91989L12.351 9.75583C12.4406 9.73338 12.5331 9.70286 12.6282 9.66433C13.548 9.2913 14.1423 8.39355 14.1423 7.37716V5.69172C14.1423 4.85242 13.6424 4.09056 12.8954 3.74514C12.77 3.95092 12.5761 4.11063 12.3456 4.19233V4.93117C12.7549 5.0763 13.0488 5.46728 13.0488 5.92563C13.0488 6.38383 12.7551 6.77472 12.3461 6.91989ZM11.9942 5.57402C11.8003 5.57402 11.6426 5.7317 11.6426 5.92558C11.6426 6.11945 11.8003 6.27714 11.9942 6.27714C12.188 6.27714 12.3457 6.11945 12.3457 5.92558C12.3457 5.7317 12.188 5.57402 11.9942 5.57402ZM11.9942 2.84631C11.8003 2.84631 11.6426 3.004 11.6426 3.19788C11.6426 3.39175 11.8003 3.54944 11.9942 3.54944C12.188 3.54944 12.3457 3.39175 12.3457 3.19788C12.3457 3.004 12.188 2.84631 11.9942 2.84631ZM6.66851 16.1227C6.35501 16.5621 5.83029 17.2976 5.1072 17.8817C5.02433 17.9485 4.91548 17.9743 4.81151 17.9516C4.80678 17.9507 4.17326 17.8244 3.93373 18.2089C3.66556 18.6392 3.44609 19.5017 3.34747 20.1657C3.34648 20.1723 3.34503 20.1822 3.3597 20.1921C3.37386 20.2016 3.38183 20.197 3.38764 20.1937C5.25945 19.1035 7.29326 17.195 7.55544 16.8452C7.92758 16.3485 8.62564 14.5514 8.86315 13.9009C8.91561 13.7574 9.05511 13.665 9.20745 13.6702C9.36017 13.6763 9.49142 13.7804 9.5322 13.9277C9.54753 13.9831 9.90772 15.2931 9.90772 16.0597C9.90772 17.1426 9.59483 17.9965 9.58151 18.0324C9.53033 18.1701 9.39889 18.2614 9.25198 18.2614H7.12273C6.59989 18.7321 5.93009 19.2905 5.22608 19.8109C5.32086 20.5317 6.03598 21.0815 7.35476 21.4465C7.54189 21.4983 7.65162 21.692 7.59983 21.8792C7.5567 22.0349 7.41528 22.137 7.26115 22.137C7.23012 22.137 7.19858 22.1328 7.16722 22.1242C6.33856 21.8948 5.69497 21.5828 5.25429 21.1967C4.93709 20.9188 4.72053 20.6025 4.60662 20.2518C4.31595 20.4501 4.02514 20.636 3.74159 20.8012C3.49733 20.9436 3.2 20.9331 2.96539 20.7743C2.7305 20.6151 2.6104 20.3424 2.65198 20.0624C2.75811 19.3476 2.99379 18.3876 3.33697 17.8369C3.72181 17.2193 4.44354 17.2063 4.78062 17.2384C5.3719 16.7293 5.82106 16.0997 6.09608 15.7142C6.40287 15.2843 6.76972 14.4764 7.12536 13.4221C7.18742 13.2381 7.38687 13.1391 7.57081 13.2013C7.75479 13.2633 7.85365 13.4628 7.79154 13.6468C7.40876 14.782 7.01989 15.6303 6.66851 16.1227ZM7.85993 17.5585H8.99384C9.07742 17.2605 9.20468 16.7015 9.20468 16.0599C9.20468 15.826 9.16273 15.521 9.10789 15.2222C8.80859 15.9647 8.41053 16.8767 8.11817 17.2668C8.06515 17.3376 7.97712 17.437 7.85993 17.5585Z" fill="#FE6035"/>
</g>
<defs>
<clipPath id="clip0_113_5142">
<rect width="24" height="24" fill="white" transform="translate(0 0.736938)"/>
</clipPath>
</defs>
</svg>
