<svg width="18" height="19" viewBox="0 0 18 19" fill="none" xmlns="http://www.w3.org/2000/svg">
<path d="M4.3786 14.0972L7.36647 12.9685L9 18.476L10.6335 12.9685L13.6214 14.0972L12.4926 11.1095L18 9.47595L12.4926 7.84242L13.6214 4.85469L10.6335 5.9834L9 0.475952L7.36647 5.9834L4.3786 4.85469L5.50745 7.84242L0 9.47595L5.50745 11.1095L4.3786 14.0972ZM6.1853 12.2906L6.51833 11.4093L6.94116 11.5348L7.06668 11.9576L6.1853 12.2906ZM11.8147 12.2906L10.9333 11.9576L11.0587 11.5348L11.4817 11.4093L11.8147 12.2906ZM11.8147 6.66125L11.4817 7.54263L11.0588 7.41711L10.9333 6.99428L11.8147 6.66125ZM6.1853 6.66125L7.06668 6.99428L6.9413 7.41711L6.51833 7.54263L6.1853 6.66125ZM7.78711 8.2632L9 4.17409L10.2129 8.2632L14.3019 9.47595L10.2129 10.6887L9 14.7778L7.78711 10.6887L3.69814 9.47595L7.78711 8.2632Z" fill="#FE6035"/>
</svg>
