<svg width="137" height="142" viewBox="0 0 137 142" fill="none" xmlns="http://www.w3.org/2000/svg">
<path d="M6.13615 83.1608L29.6724 82.3434L19.9532 90.2215L18.249 103.355L6.13615 83.1608Z" fill="#FE6035"/>
<path d="M13.9769 84.9718C13.8572 85.0968 13.8849 85.3772 14.0634 85.771C14.1558 85.9808 14.2804 86.2101 14.437 86.4588C14.5105 86.5912 14.6 86.7333 14.7056 86.8852L14.8559 87.1082C14.9167 87.189 14.9615 87.26 15.0223 87.3408C15.2656 87.6641 15.541 88.0068 15.8485 88.369C15.9254 88.4595 16.0023 88.5501 16.0952 88.6504C16.1721 88.7409 16.265 88.8412 16.358 88.9415C16.5278 89.1323 16.7234 89.3168 16.9253 89.5271C17.3229 89.922 17.7331 90.3684 18.2207 90.7958C18.4645 91.0095 18.6985 91.2393 18.9584 91.4628C19.0834 91.5826 19.2182 91.6863 19.3433 91.806C19.4683 91.9258 19.6031 92.0295 19.754 92.1429C21.9326 93.9472 24.758 95.8802 28.1159 97.5869C28.3344 97.6974 28.5271 97.8143 28.7553 97.9088L29.4045 98.2146C29.8513 98.4196 30.2723 98.6309 30.7448 98.8296C31.2013 99.0186 31.6738 99.2173 32.1303 99.4062C32.3586 99.5007 32.6029 99.6049 32.8311 99.6994C33.0691 99.7778 33.3134 99.882 33.5514 99.9604C33.7894 100.039 34.0337 100.143 34.2717 100.221C34.5257 100.31 34.754 100.404 35.0178 100.476C35.5098 100.643 36.0116 100.793 36.5196 100.97C36.6515 101.006 36.7737 101.058 36.9056 101.094L37.2496 101.215C37.5134 101.287 37.7612 101.349 38.0249 101.421C38.2887 101.493 38.5525 101.565 38.8002 101.628C39.064 101.7 39.3375 101.756 39.5852 101.818C39.849 101.89 40.1644 101.95 40.4861 102.035C40.6598 102.074 40.8336 102.114 41.0234 102.163C41.2132 102.212 41.4127 102.245 41.6123 102.279C42.0274 102.355 42.4747 102.45 42.9478 102.539C43.0636 102.566 43.1794 102.592 43.3211 102.612C43.4466 102.622 43.5785 102.658 43.7041 102.668C43.9616 102.715 44.2288 102.745 44.5023 102.801C46.707 103.15 49.4627 103.459 52.6769 103.519C53.4854 103.526 54.3099 103.543 55.1796 103.521C55.6079 103.539 56.0396 103.515 56.4874 103.501C56.9191 103.478 57.3767 103.448 57.8342 103.418C58.0629 103.403 58.2917 103.387 58.5205 103.372C58.63 103.373 58.7492 103.357 58.8685 103.342C58.9877 103.326 59.0972 103.327 59.2165 103.311C59.6837 103.265 60.151 103.219 60.6343 103.183C60.8631 103.168 61.1113 103.12 61.3498 103.089C61.5883 103.058 61.8268 103.027 62.0653 102.996C62.552 102.918 63.0451 102.865 63.5415 102.771C64.038 102.677 64.5408 102.608 65.0533 102.524C65.1726 102.508 65.3016 102.477 65.4305 102.445C65.5595 102.413 65.6788 102.398 65.8078 102.366C66.0657 102.303 66.314 102.256 66.588 102.202C66.846 102.139 67.1103 102.102 67.3683 102.039C67.6262 101.975 67.8842 101.912 68.1422 101.849C68.4002 101.786 68.6581 101.722 68.9258 101.643C69.0548 101.612 69.1838 101.58 69.3225 101.532L69.5289 101.482L69.7192 101.421C70.2449 101.279 70.7803 101.12 71.3158 100.962C71.4545 100.914 71.5835 100.883 71.7222 100.835C71.8609 100.787 71.9899 100.756 72.1286 100.708C72.3963 100.629 72.6577 100.524 72.9352 100.428C73.2126 100.333 73.4803 100.254 73.7417 100.149C74.0031 100.044 74.2806 99.9483 74.542 99.8432C74.8034 99.7382 75.0808 99.6428 75.3519 99.5217C75.4907 99.474 75.6294 99.4264 75.7521 99.369C75.8908 99.3213 76.0232 99.2478 76.1619 99.2002C76.7042 98.9579 77.2527 98.7415 77.795 98.4992C78.0661 98.3781 78.3373 98.257 78.6181 98.1198C78.8893 97.9986 79.1541 97.8517 79.4252 97.7306C80.5131 97.2042 81.5981 96.6102 82.6866 95.9744C83.775 95.3385 84.8411 94.6671 85.8979 93.9022C86.945 93.1534 87.9795 92.353 88.9789 91.4655C89.2408 91.2509 89.4706 91.0169 89.7165 90.7925C89.9623 90.5682 90.1921 90.3342 90.4477 90.0938C90.6775 89.8597 90.917 89.6096 91.1468 89.3756C91.2665 89.2505 91.3766 89.1415 91.4963 89.0164C91.6161 88.8914 91.7358 88.7664 91.8395 88.6316C92.7397 87.6179 93.6015 86.559 94.3926 85.4354C94.584 85.1561 94.8011 84.8705 94.9925 84.5911C95.1677 84.3021 95.3688 84.0067 95.5441 83.7176C95.9365 83.1429 96.2647 82.5292 96.609 81.9253C96.794 81.6202 96.9372 81.3116 97.1061 80.9968C97.2654 80.698 97.4183 80.3733 97.5873 80.0585C97.7304 79.7499 97.8833 79.4253 98.0202 79.091L98.2447 78.6121L98.2968 78.49L98.3489 78.3678L98.4531 78.1235C98.5899 77.7892 98.717 77.4709 98.8539 77.1366L98.9581 76.8923C98.9907 76.8022 99.0136 76.7283 99.0463 76.6382L99.2226 76.1301C99.3336 75.8021 99.4544 75.458 99.5655 75.13C99.6604 74.7923 99.7652 74.4384 99.8602 74.1007L100.011 73.5989C100.05 73.4252 100.09 73.2514 100.129 73.0777C100.208 72.7302 100.287 72.3827 100.366 72.0352C100.405 71.8614 100.445 71.6877 100.468 71.5042L100.571 70.9733L100.673 70.4423L100.719 70.1848C100.726 70.1011 100.743 70.0013 100.749 69.9176C100.796 69.5506 100.849 69.2095 100.896 68.8425C100.92 68.659 100.959 68.4853 100.957 68.3081L101.001 67.764C101.022 67.4033 101.059 67.0524 101.09 66.6757C101.111 66.315 101.132 65.9544 101.137 65.584C101.163 64.1282 101.089 62.6559 100.89 61.1734C100.681 59.7068 100.347 58.2301 99.8156 56.7878C99.2845 55.3455 98.5888 53.9573 97.6736 52.6775C97.6128 52.5967 97.552 52.5159 97.5072 52.4448L97.3248 52.2023C97.2031 52.0407 97.0878 51.9049 96.9662 51.7433C96.7132 51.4361 96.4183 51.1255 96.0976 50.8213C95.7769 50.517 95.3886 50.2156 94.9453 49.9687C94.5117 49.7058 94.007 49.4876 93.4439 49.3658C92.9227 49.2474 92.3527 49.2093 91.7662 49.271C91.1958 49.3424 90.6506 49.517 90.1663 49.7724C89.6819 50.0278 89.2779 50.3319 88.922 50.6652C88.5662 50.9986 88.2682 51.345 88.0024 51.711C87.4804 52.4268 87.1162 53.1724 86.8099 53.9311C86.5293 54.6835 86.3067 55.449 86.1742 56.2472C86.141 56.4467 86.1079 56.6463 86.0747 56.8458L86.0547 56.9875L86.0445 57.113L86.0142 57.3802L85.9698 57.9244L85.9351 58.4524C85.9215 58.6199 85.9141 58.8131 85.9005 58.9805L85.8818 59.5183C85.8608 59.879 85.8656 60.2333 85.8704 60.5876C85.8798 62.021 85.9729 63.4612 86.1852 64.8859C86.3976 66.3105 86.7131 67.7099 87.1674 69.0616C88.9037 74.5293 92.9014 79.2377 98.0449 81.3683C100.604 82.4368 103.376 82.7558 105.976 82.4878C107.284 82.3586 108.539 82.0649 109.732 81.6904C110.926 81.3159 112.078 80.8285 113.134 80.2827C115.287 79.1944 117.194 77.8248 118.863 76.3767C120.541 74.9126 122.017 73.3477 123.278 71.7399C123.437 71.5506 123.589 71.3355 123.748 71.1462C123.832 71.0436 123.89 70.9472 123.975 70.8445C124.043 70.7321 124.117 70.6455 124.186 70.5331C124.328 70.334 124.471 70.135 124.613 69.936C124.756 69.7369 124.899 69.5379 125.025 69.3292C125.295 68.9214 125.554 68.5296 125.814 68.1379C126.057 67.7364 126.301 67.3349 126.544 66.9334C127.482 65.3499 128.276 63.7882 128.952 62.3097C129.109 61.9433 129.275 61.5608 129.431 61.1943C129.587 60.8278 129.718 60.4677 129.865 60.1173C129.93 59.9372 130.011 59.7669 130.076 59.5868C130.142 59.4068 130.197 59.2427 130.262 59.0627C130.383 58.7186 130.504 58.3745 130.615 58.0465C131.053 56.7086 131.423 55.4832 131.676 54.3409C131.742 54.0513 131.814 53.7876 131.87 53.5141C131.926 53.2405 131.972 52.9831 132.035 52.7353C132.081 52.4779 132.134 52.2462 132.17 52.0048C132.223 51.7732 132.259 51.5318 132.286 51.3064C132.329 51.0908 132.356 50.8655 132.389 50.6659C132.422 50.4664 132.455 50.2668 132.463 50.0736C132.509 49.7066 132.546 49.3557 132.58 49.0467C132.614 48.7376 132.628 48.4607 132.639 48.2256C132.65 47.9905 132.657 47.7973 132.654 47.6201C132.646 47.3077 132.634 47.1466 132.586 47.1173C132.544 47.1139 132.472 47.2682 132.381 47.5641C132.335 47.7121 132.286 47.9019 132.233 48.1335C132.181 48.3652 132.134 48.6226 132.043 48.9185C131.977 49.2081 131.882 49.5459 131.793 49.9094C131.744 50.0992 131.695 50.2891 131.646 50.4789C131.597 50.6687 131.538 50.8745 131.485 51.1062C131.426 51.312 131.373 51.5437 131.305 51.7656C131.236 51.9876 131.174 52.2353 131.095 52.4733C131.017 52.7113 130.955 52.959 130.882 53.2228C130.794 53.4768 130.722 53.7406 130.624 54.0107C130.275 55.0945 129.841 56.281 129.332 57.5541C129.205 57.8724 129.062 58.181 128.925 58.5153C128.853 58.6696 128.788 58.8496 128.717 59.0039C128.635 59.1742 128.564 59.3285 128.482 59.4988C128.32 59.8395 128.183 60.1739 128.011 60.5306C127.848 60.8712 127.659 61.2182 127.487 61.5749C126.765 62.9823 125.921 64.4471 124.958 65.9275C124.708 66.3032 124.468 66.6628 124.208 67.0545C123.942 67.4205 123.667 67.8025 123.401 68.1684C122.844 68.9066 122.267 69.677 121.635 70.3923C120.395 71.8585 118.955 73.2915 117.341 74.5755C115.734 75.8854 113.944 77.0623 111.982 77.9808C110.019 78.8992 107.884 79.5592 105.67 79.7324C104.568 79.811 103.451 79.7703 102.353 79.588C102.07 79.548 101.806 79.4759 101.533 79.4199C101.391 79.3999 101.259 79.3639 101.127 79.3278C100.995 79.2918 100.864 79.2557 100.716 79.2099C100.436 79.1281 100.182 79.0399 99.9116 78.942C99.6512 78.8281 99.3811 78.7302 99.1207 78.6162C97.0476 77.6885 95.1541 76.2109 93.6521 74.3776C92.893 73.4561 92.2245 72.4577 91.6626 71.3921C91.1007 70.3266 90.6454 69.1939 90.287 68.0101C89.5862 65.6523 89.2792 63.1159 89.3363 60.5588C89.3539 60.24 89.3457 59.9275 89.373 59.5926C89.3906 59.2738 89.4082 58.9551 89.4419 58.646L89.4892 58.1695L89.5365 57.693L89.5731 57.4517L89.5833 57.3261L89.5999 57.2263C89.6199 57.0847 89.6399 56.9431 89.6759 56.8112C89.788 56.2641 89.9517 55.7045 90.1698 55.1998C90.3719 54.6854 90.6383 54.2099 90.9397 53.8216C91.241 53.4332 91.558 53.1642 91.813 53.0333C91.9357 52.9759 92.0486 52.9346 92.1581 52.9351C92.2861 53.1225 92.4117 53.1327 92.5435 53.1688C92.6594 53.1951 92.7976 53.2569 92.9421 53.3446C93.0867 53.4322 93.2599 53.5812 93.4331 53.7302C93.5966 53.8952 93.7825 54.0958 93.9586 54.3124L94.2243 54.6712L94.362 54.8425C94.4165 54.8975 94.4452 54.9589 94.49 55.03C95.8143 56.9752 96.5891 59.3559 96.8771 61.8148C97.0292 63.0492 97.062 64.2991 97.0174 65.5679C96.9998 65.8867 96.9822 66.2055 96.9743 66.5082C96.9406 66.8173 96.8973 67.1424 96.8797 67.4612L96.8323 67.9377C96.8187 68.1051 96.7889 68.2628 96.769 68.4044C96.7095 68.7198 96.6758 69.0289 96.6164 69.3442C96.6095 69.428 96.5867 69.5019 96.5798 69.5856L96.4951 69.7978L96.3898 70.2612L96.2846 70.7245C96.2549 70.8821 96.2252 71.0398 96.1794 71.1878C96.1039 71.4934 96.0283 71.7991 95.9528 72.1047C95.907 72.2527 95.8773 72.4103 95.8315 72.5583L95.6942 73.0021C95.6026 73.2981 95.511 73.5939 95.4097 73.9059C95.3181 74.2018 95.2008 74.504 95.0931 74.7902L94.9655 75.218C94.9426 75.292 94.9197 75.3659 94.8808 75.4302L94.796 75.6424C94.6786 75.9446 94.571 76.2307 94.4473 76.5072L94.3626 76.7193L94.3202 76.8254L94.2779 76.9315L94.0826 77.3622C93.9589 77.6387 93.8094 77.9214 93.6857 78.1978C93.546 78.4645 93.3965 78.7472 93.2567 79.0139C93.117 79.2806 92.9675 79.5634 92.8117 79.8203C92.4903 80.3503 92.1948 80.8739 91.851 81.3683C91.6791 81.6155 91.5233 81.8725 91.3515 82.1197C91.1796 82.3669 90.9917 82.6044 90.8198 82.8516C90.1163 83.8307 89.3261 84.7353 88.5394 85.598C88.4454 85.7168 88.3451 85.8097 88.2351 85.9187C88.1251 86.0277 88.0248 86.1206 87.9308 86.2394C87.7205 86.4413 87.5263 86.653 87.316 86.8549C87.1057 87.0569 86.8793 87.2491 86.669 87.451C86.4587 87.6529 86.2484 87.8549 86.0157 88.0213C85.1199 88.774 84.2116 89.4751 83.2745 90.1149C82.3277 90.7708 81.3619 91.3493 80.38 91.918C79.4079 92.4707 78.4135 92.9878 77.4063 93.4534C77.161 93.5682 76.9157 93.683 76.6446 93.8041C76.3992 93.9189 76.1378 94.024 75.8925 94.1388C75.3955 94.3426 74.8985 94.5464 74.4016 94.7502C74.2789 94.8076 74.1562 94.865 74.0272 94.8966C73.9046 94.954 73.7756 94.9856 73.6529 95.043C73.4013 95.132 73.1496 95.2211 72.914 95.3198C72.6624 95.4088 72.4107 95.4978 72.1751 95.5966C71.9332 95.6695 71.6816 95.7585 71.4396 95.8315C71.1977 95.9044 70.9461 95.9934 70.7042 96.0664C70.5912 96.1077 70.4622 96.1393 70.3396 96.1967C70.2267 96.2381 70.0977 96.2697 69.9687 96.3013C69.4688 96.4374 68.9947 96.5673 68.5109 96.7132L68.3303 96.7574L68.1497 96.8017C68.0207 96.8333 67.9175 96.8586 67.7886 96.8902C67.5564 96.9471 67.2984 97.0103 67.0662 97.0672C66.8341 97.1241 66.5858 97.1712 66.3536 97.2281C66.1054 97.2752 65.883 97.3161 65.6347 97.3632C65.4026 97.4201 65.1641 97.4512 64.9319 97.5081C64.8126 97.5237 64.6997 97.565 64.5805 97.5805C64.4612 97.5961 64.3483 97.6374 64.229 97.653C63.7681 97.7249 63.3072 97.7968 62.8462 97.8687C62.3853 97.9407 61.9341 97.9965 61.4829 98.0524C61.2702 98.0771 61.0317 98.1083 60.819 98.133C60.6063 98.1578 60.3678 98.1889 60.1648 98.1976C59.7234 98.2374 59.2917 98.2612 58.8663 98.3107C58.7567 98.3102 58.6536 98.3355 58.5441 98.335C58.4345 98.3345 58.3314 98.3597 58.2219 98.3592C58.0189 98.3679 57.7901 98.383 57.5872 98.3917C57.1812 98.4091 56.7495 98.4329 56.3436 98.4503C55.9474 98.4516 55.5415 98.469 55.1453 98.4704C54.3593 98.4989 53.5961 98.4535 52.8553 98.4436C49.9054 98.346 47.3945 98.0315 45.3733 97.7064C45.1158 97.6601 44.8744 97.6235 44.633 97.5869C44.5172 97.5606 44.3916 97.5504 44.2758 97.5241C44.1599 97.4978 44.0441 97.4715 43.9443 97.4549C43.4971 97.3594 43.098 97.2931 42.7086 97.2108C42.5188 97.1616 42.3353 97.1381 42.1616 97.0987C41.9878 97.0592 41.8301 97.0295 41.6822 96.9837C41.3765 96.9082 41.087 96.8424 40.8553 96.7898C40.6076 96.7274 40.3759 96.6748 40.1282 96.6124C39.8805 96.5501 39.6585 96.4814 39.4108 96.4191C39.1631 96.3567 38.9412 96.288 38.6935 96.2257L38.3397 96.1209C38.2238 96.0946 38.1017 96.0425 37.9858 96.0162C37.5162 95.8852 37.0563 95.738 36.5964 95.591C36.3744 95.5223 36.1365 95.4439 35.9145 95.3752C35.6926 95.3065 35.4546 95.2281 35.2424 95.1433C35.0205 95.0747 34.7986 95.006 34.5864 94.9212C34.3645 94.8526 34.1523 94.7678 33.9401 94.6831C33.506 94.5297 33.0816 94.3602 32.6475 94.2068C32.2231 94.0373 31.8148 93.8776 31.3904 93.7081L30.7699 93.4636C30.5577 93.3789 30.3714 93.2878 30.1752 93.2128C26.9735 91.8643 24.1845 90.4147 21.8909 89.0898C21.7464 89.0022 21.5921 88.9306 21.4636 88.8527C21.3191 88.765 21.1906 88.6871 21.0461 88.5995C20.7891 88.4437 20.5161 88.2781 20.2495 88.1384C19.7258 87.8428 19.2538 87.5346 18.7881 87.2522C18.5632 87.1159 18.3384 86.9795 18.1296 86.8529C18.0172 86.7848 17.9209 86.7263 17.8245 86.6679C17.7282 86.6095 17.6318 86.551 17.5194 86.4829C17.134 86.2492 16.7646 86.0252 16.4337 85.8465C16.3534 85.7978 16.2731 85.7491 16.183 85.7165C16.1028 85.6678 16.0385 85.6289 15.9582 85.5802C15.8137 85.4925 15.6594 85.4209 15.531 85.343C15.2643 85.2033 15.0199 85.0991 14.8238 85.0241C14.3897 84.8706 14.0967 84.8467 13.9769 84.9718Z" fill="#FE6035"/>
<path d="M25.0126 95.8592C26.0082 96.4629 27.0394 97.0443 28.1159 97.5873C28.1802 97.6262 28.2702 97.6588 28.3344 97.6978C28.4629 97.7757 28.6172 97.8473 28.7554 97.9091L29.4046 98.215C29.5267 98.2671 29.665 98.3289 29.7774 98.3971C30.0859 98.5402 30.4105 98.6931 30.7191 98.8363C31.1756 99.0252 31.632 99.2142 32.0885 99.4032C32.1786 99.4358 32.2589 99.4845 32.3489 99.5171C32.5032 99.5887 32.6672 99.6442 32.8054 99.7061C33.0434 99.7845 33.2877 99.8887 33.5257 99.9671C33.7218 100.042 33.9179 100.117 34.1141 100.192L34.2362 100.244C34.2941 100.257 34.3262 100.277 34.3842 100.29C34.5803 100.365 34.7764 100.44 34.9823 100.499L35.5901 100.692C35.886 100.783 36.198 100.885 36.4939 100.976C36.5357 100.98 36.5839 101.009 36.6258 101.012C36.6998 101.035 36.7898 101.068 36.8798 101.101L37.2497 101.215C37.4974 101.277 37.7354 101.356 37.9992 101.428L38.0313 101.447C38.2951 101.519 38.5589 101.592 38.8066 101.654C38.9803 101.693 39.1541 101.733 39.3278 101.772C39.4179 101.805 39.5016 101.812 39.6013 101.828L40.5022 102.045C40.618 102.071 40.7339 102.098 40.8658 102.134L41.0395 102.173C41.1553 102.2 41.297 102.22 41.4128 102.246C41.4868 102.269 41.5544 102.266 41.6284 102.289C41.8698 102.325 42.1175 102.388 42.391 102.444L42.9799 102.559C43.0218 102.563 43.0637 102.566 43.1118 102.595C43.1858 102.618 43.2695 102.625 43.3532 102.632C43.4788 102.642 43.6107 102.678 43.7363 102.688C43.9937 102.735 44.2609 102.765 44.5344 102.821C45.7994 103.017 47.0001 103.174 48.246 103.292C49.7271 103.422 51.2276 103.519 52.6994 103.555C52.8508 103.559 53.0021 103.563 53.1632 103.551C53.8203 103.554 54.4934 103.567 55.186 103.547L55.624 103.549C55.9107 103.547 56.2071 103.529 56.4938 103.528C56.8579 103.507 57.2219 103.486 57.586 103.465L57.8406 103.444C57.9501 103.444 58.0693 103.429 58.1788 103.429C58.2883 103.43 58.4076 103.414 58.5171 103.415C58.6266 103.415 58.7459 103.4 58.8651 103.384C58.9844 103.369 59.0939 103.369 59.2131 103.354L59.6482 103.288C59.9705 103.264 60.3024 103.223 60.6246 103.199C60.8115 103.181 60.9984 103.162 61.1951 103.128C61.2467 103.115 61.2885 103.118 61.3401 103.106C61.4336 103.097 61.5528 103.081 61.6463 103.072C61.7913 103.05 61.9363 103.028 62.0814 103.006C62.2006 102.991 62.3199 102.975 62.4489 102.944C62.8066 102.897 63.1902 102.844 63.5576 102.781C63.8477 102.737 64.1476 102.678 64.4377 102.634L65.0694 102.534C65.1887 102.518 65.3079 102.503 65.4467 102.455C65.5756 102.423 65.6949 102.408 65.8239 102.376C65.9271 102.351 66.0463 102.335 66.1495 102.31C66.3043 102.272 66.4494 102.25 66.6041 102.212L67.3844 102.049C67.5649 102.004 67.7553 101.944 67.9519 101.91L68.1583 101.859L68.942 101.653C69.0709 101.622 69.1999 101.59 69.3386 101.542L69.545 101.492L69.7353 101.432L70.0031 101.352C70.4353 101.219 70.8836 101.096 71.3416 100.956C71.3932 100.943 71.4448 100.931 71.4803 100.908C71.5577 100.889 71.6609 100.864 71.7481 100.829L71.8512 100.804C71.9544 100.778 72.0416 100.743 72.1545 100.702L72.3511 100.668C72.5512 100.591 72.7576 100.541 72.9576 100.464C73.2351 100.369 73.5028 100.29 73.7642 100.185L73.8771 100.143C74.103 100.061 74.3386 99.9618 74.5805 99.8889L74.9192 99.7648C75.0838 99.7109 75.242 99.6311 75.4065 99.5771L75.8066 99.4244C75.8937 99.3893 75.9809 99.3543 76.068 99.3193C76.1196 99.3066 76.1551 99.2843 76.2165 99.2556C76.5036 99.1442 76.7845 99.007 77.0717 98.8956C77.3331 98.7905 77.6042 98.6694 77.8495 98.5546L78.6727 98.1752C78.8309 98.0954 78.9793 98.0317 79.1375 97.9519C79.2602 97.8945 79.3571 97.8434 79.4797 97.786C80.6032 97.2372 81.7043 96.653 82.7314 96.0458C83.8233 95.3681 84.9088 94.6645 85.9106 93.9542C86.9933 93.183 88.0214 92.3568 88.9916 91.5174C89.2083 91.3413 89.4186 91.1394 89.6289 90.9374C89.6741 90.899 89.6936 90.8669 89.7389 90.8284C89.9847 90.6041 90.2048 90.3861 90.4506 90.1618L90.4701 90.1297C90.6157 89.9983 90.7807 89.8348 90.9199 89.6777C90.9944 89.591 91.085 89.5141 91.1595 89.4275L91.3245 89.264C91.3892 89.1935 91.454 89.1229 91.509 89.0684C91.5445 89.046 91.5738 88.9979 91.6093 88.9755C91.6838 88.8889 91.7841 88.7959 91.8586 88.7093C92.9369 87.4743 93.7242 86.502 94.4116 85.5132C94.4701 85.4168 94.5446 85.3302 94.603 85.2339C94.7359 85.0509 94.8786 84.8518 94.9954 84.6591L95.5729 83.7793C95.8519 83.3554 96.1085 82.8961 96.3617 82.4785C96.459 82.3179 96.5404 82.1476 96.628 82.0031C96.7546 81.7943 96.8749 81.5597 96.9854 81.3412C97.0244 81.277 97.057 81.1869 97.1057 81.1066C97.3982 81.2401 97.7067 81.3832 97.9992 81.5167C99.2465 82.0314 100.581 82.4017 101.95 82.5723C103.266 82.7556 104.596 82.7715 105.93 82.6361C106.559 82.5778 107.2 82.4617 107.852 82.3294C108.451 82.2098 109.064 82.0323 109.687 81.8388C110.828 81.4769 111.971 81.0056 113.088 80.431C114.108 79.9076 115.135 79.3004 116.128 78.6061C117.029 77.9887 117.947 77.2715 118.827 76.509C120.441 75.1154 121.917 73.5505 123.242 71.8722C123.365 71.7052 123.495 71.5641 123.618 71.3972C123.647 71.349 123.692 71.3106 123.722 71.2624L123.77 71.1821C123.835 71.1116 123.884 71.0313 123.948 70.9607C124.017 70.8483 124.091 70.7617 124.159 70.6493C124.282 70.4824 124.415 70.2994 124.522 70.1227L124.571 70.0425C124.6 69.9943 124.63 69.9461 124.675 69.9076C124.788 69.7568 124.886 69.5962 124.999 69.4453C125.077 69.3169 125.181 69.1821 125.259 69.0536C125.44 68.7903 125.606 68.5173 125.787 68.254L126.518 67.0496C127.388 65.5785 128.197 64.0266 128.926 62.4259C129.082 62.0595 129.249 61.677 129.405 61.3105C129.509 61.0662 129.604 60.8379 129.682 60.6C129.734 60.4778 129.786 60.3557 129.838 60.2335L130.05 59.703L130.07 59.6709C130.125 59.5069 130.181 59.3429 130.252 59.1886L130.36 58.9025C130.448 58.6484 130.526 58.4104 130.621 58.1822C131.114 56.6803 131.455 55.503 131.682 54.4766C131.712 54.3189 131.757 54.171 131.787 54.0133L131.876 53.6497C131.915 53.476 131.948 53.2764 131.978 53.1188C132.001 53.0448 132.008 52.9611 132.024 52.8613L132.16 52.1308C132.19 51.9731 132.219 51.8154 132.249 51.6577C132.256 51.574 132.269 51.5161 132.276 51.4324C132.306 51.2747 132.326 51.133 132.346 50.9914L132.379 50.7919C132.412 50.5923 132.445 50.3928 132.452 50.1996C132.499 49.8326 132.536 49.4817 132.57 49.1726C132.61 48.8894 132.614 48.6285 132.615 48.4095L132.629 48.3515C132.639 48.1165 132.647 47.9232 132.644 47.7461C132.652 47.4433 132.624 47.2725 132.592 47.253C132.55 47.2496 132.478 47.4039 132.387 47.6998C132.341 47.8477 132.292 48.0375 132.239 48.2692C132.216 48.3432 132.209 48.4269 132.177 48.5169C132.147 48.6746 132.098 48.8644 132.049 49.0542C131.983 49.3438 131.888 49.6816 131.799 50.0451C131.76 50.2189 131.711 50.4087 131.652 50.6145C131.602 50.8044 131.544 51.0102 131.491 51.2419C131.468 51.3158 131.445 51.3898 131.429 51.4896C131.392 51.6215 131.347 51.7694 131.327 51.9111L131.255 52.1748C131.209 52.3228 131.163 52.4707 131.117 52.6187C131.085 52.7087 131.068 52.8085 131.035 52.8985C130.99 53.0465 130.96 53.2042 130.904 53.3682L130.646 54.1561C130.349 55.1178 129.947 56.2143 129.354 57.6996C129.227 58.0178 129.084 58.3264 128.947 58.6607C128.875 58.815 128.814 58.9532 128.758 59.1172L128.729 59.1654L128.495 59.6603C128.475 59.8019 128.406 59.9144 128.354 60.0365C128.254 60.239 128.159 60.4672 128.049 60.6857C127.886 61.0264 127.697 61.3734 127.525 61.7301C126.735 63.2499 125.891 64.7147 124.996 66.0826L124.246 67.2097C124.084 67.4408 123.922 67.672 123.744 67.8934C123.64 68.0282 123.527 68.1791 123.439 68.3236C122.891 69.0457 122.314 69.8161 121.673 70.5474C120.368 72.0842 118.922 73.4914 117.37 74.7468C116.539 75.4289 115.679 76.0498 114.826 76.5869C113.892 77.1848 112.956 77.7151 112.01 78.152C109.863 79.1565 107.751 79.7425 105.698 79.9036C104.571 79.9885 103.463 79.9318 102.382 79.7592C102.198 79.7358 102.008 79.6866 101.809 79.6535C101.735 79.6306 101.635 79.614 101.551 79.6072C101.435 79.5809 101.32 79.5545 101.213 79.5122C101.197 79.5024 101.172 79.5088 101.139 79.4893L100.966 79.4498C100.892 79.4269 100.818 79.404 100.734 79.3972C100.57 79.3417 100.406 79.2862 100.258 79.2404C100.152 79.198 100.036 79.1717 99.9301 79.1293L99.84 79.0967C99.6118 79.0022 99.3835 78.9077 99.1392 78.8035C98.8789 78.6896 98.6122 78.5498 98.3455 78.4101L98.4302 78.1979L98.515 77.9857C98.6192 77.7414 98.7171 77.4713 98.8213 77.227L98.9255 76.9827C98.9387 76.9248 98.9679 76.8766 98.981 76.8187C99.0005 76.7865 98.9942 76.7607 99.0137 76.7286L99.19 76.2205C99.2324 76.1144 99.2684 75.9826 99.3108 75.8765C99.3795 75.6545 99.4642 75.4424 99.5329 75.2204L99.8276 74.1911L99.9878 73.6733C100.014 73.5575 100.04 73.4416 100.067 73.3258C100.08 73.2678 100.093 73.21 100.106 73.152L100.208 72.7306C100.267 72.5247 100.3 72.3251 100.359 72.1193C100.395 71.9874 100.415 71.8458 100.441 71.7299C100.445 71.6881 100.448 71.6462 100.461 71.5883L100.564 71.0573L100.712 70.2689C100.726 70.211 100.739 70.1531 100.736 70.0854C100.729 70.0596 100.749 70.0275 100.752 69.9856C100.799 69.6186 100.852 69.2775 100.899 68.9105C100.912 68.8526 100.909 68.7849 100.923 68.727C100.949 68.6112 100.949 68.5017 100.96 68.3761L101.004 67.832C101.015 67.5969 101.051 67.3555 101.072 67.1044L101.093 66.7437C101.093 66.6342 101.094 66.5247 101.11 66.4249C101.131 66.1738 101.135 65.9129 101.14 65.652C101.15 64.9112 101.144 64.1607 101.108 63.4584C101.076 62.7142 101.003 61.9666 100.893 61.2414C100.787 60.4743 100.646 59.7296 100.475 59.0331C100.292 58.2849 100.083 57.5431 99.8186 56.8558C99.2588 55.3522 98.5373 53.9703 97.6766 52.7455C97.6158 52.6647 97.5549 52.5839 97.5102 52.5128L97.3277 52.2704C97.2893 52.2251 97.2508 52.1798 97.2285 52.1443C97.1453 52.0279 97.0523 51.9277 96.9691 51.8113C96.6455 51.4394 96.3828 51.1483 96.1006 50.8893C95.7478 50.5655 95.3818 50.2997 95.0285 50.0855C95.0125 50.0757 94.9803 50.0562 94.9643 50.0465C94.4986 49.7641 93.9842 49.562 93.4629 49.4436C92.8998 49.3218 92.3299 49.2837 91.7852 49.3488C91.2406 49.4139 90.6794 49.5787 90.1853 49.8502C89.7462 50.0672 89.3164 50.3776 88.925 50.7333C88.6046 51.0442 88.2906 51.3809 88.0053 51.779C87.5384 52.4403 87.1421 53.1664 86.8128 53.9991C86.5226 54.7675 86.3097 55.517 86.1771 56.3152C86.1406 56.5566 86.1171 56.7401 86.0777 56.9139L86.0577 57.0555L86.0172 57.4482L85.9567 57.9826L85.922 58.5107C85.9249 58.5784 85.9118 58.6363 85.9147 58.7039C85.9142 58.8134 85.9039 58.939 85.8937 59.0646L85.8751 59.6024C85.8546 59.8535 85.8599 60.0984 85.8651 60.3432C85.8646 60.4527 85.8641 60.5622 85.8636 60.6717C85.8633 62.1211 85.9724 63.5711 86.1785 64.9699C86.3971 66.4204 86.7287 67.8295 87.1606 69.1457C87.4335 70.036 87.7837 70.9073 88.1952 71.7499C87.7997 70.917 87.4592 70.0296 87.1606 69.1457C86.7287 67.8295 86.3971 66.4204 86.1785 64.9699C85.9724 63.5711 85.8633 62.1211 85.8636 60.6717C85.8641 60.5622 85.8646 60.4527 85.8651 60.3432C85.8599 60.0984 85.8643 59.8375 85.8751 59.6024L85.8937 59.0646C85.8942 58.9551 85.9044 58.8295 85.9147 58.7039C85.9118 58.6363 85.9249 58.5784 85.922 58.5107L85.9567 57.9826L86.0577 57.0555L86.0777 56.9139C86.0913 56.7464 86.1245 56.5469 86.1771 56.3152C86.3258 55.5268 86.5226 54.7675 86.8128 53.9991C87.1421 53.1664 87.5063 52.4209 87.9893 51.7693C88.2746 51.3712 88.5725 51.0247 88.9089 50.7235C89.3003 50.3678 89.7204 50.0735 90.1532 49.8307C90.6633 49.569 91.2085 49.3944 91.7531 49.3293C92.2978 49.2642 92.8516 49.2926 93.4308 49.4241C93.952 49.5425 94.4664 49.7446 94.9322 50.027C95.3176 50.2607 95.7157 50.5461 96.1006 50.8893C96.3828 51.1483 96.6616 51.4491 96.9691 51.8113C97.0523 51.9277 97.1453 52.0279 97.2285 52.1443C97.2508 52.1798 97.2893 52.2251 97.3277 52.2704L97.5102 52.5128C97.571 52.5936 97.6158 52.6647 97.6605 52.7358C98.547 53.9542 99.2748 55.3619 99.8186 56.8558C100.083 57.5431 100.292 58.2849 100.475 59.0331C100.646 59.7296 100.787 60.4743 100.893 61.2414C100.986 61.9568 101.06 62.7045 101.108 63.4584C101.144 64.1607 101.15 64.9112 101.14 65.652C101.135 65.9129 101.115 66.164 101.11 66.4249C101.094 66.5247 101.093 66.6342 101.093 66.7437L101.072 67.1044C101.061 67.3394 101.008 67.5711 100.998 67.8062L100.953 68.3503C100.943 68.4759 100.926 68.5757 100.916 68.7012C100.903 68.7591 100.906 68.8268 100.893 68.8847C100.856 69.2356 100.793 69.5929 100.746 69.9598C100.752 69.9856 100.733 70.0177 100.729 70.0596C100.716 70.1175 100.719 70.1852 100.706 70.2431L100.66 70.5006L100.557 71.0315L100.461 71.5883C100.448 71.6462 100.445 71.6881 100.441 71.7299C100.405 71.8618 100.395 71.9874 100.359 72.1193C100.3 72.3251 100.267 72.5247 100.208 72.7306L100.106 73.152C100.093 73.21 100.08 73.2678 100.067 73.3258C100.04 73.4416 100.014 73.5575 99.9878 73.6733L99.8373 74.175L99.5426 75.2044C99.4739 75.4263 99.3955 75.6643 99.3108 75.8765C99.2684 75.9826 99.2324 76.1144 99.19 76.2205L99.0137 76.7286C98.9942 76.7607 99.0005 76.7865 98.981 76.8187C98.9679 76.8766 98.9484 76.9087 98.9353 76.9666L98.831 77.2109C98.7268 77.4552 98.6192 77.7414 98.515 77.9857L98.4302 78.1979L98.3455 78.4101C97.0602 77.7405 95.8471 76.8072 94.7634 75.7328L94.7961 75.6427L94.8808 75.4305C94.91 75.3824 94.9134 75.3405 94.9266 75.2826C94.9363 75.2665 94.9398 75.2247 94.9495 75.2086L95.1029 74.7745C95.1453 74.6684 95.1877 74.5623 95.214 74.4465C95.2792 74.2664 95.3542 74.0703 95.4195 73.8902L95.4229 73.8484C95.5145 73.5525 95.5963 73.2726 95.6782 72.9928L95.8155 72.5489C95.8481 72.4589 95.8647 72.3591 95.8813 72.2594C95.8944 72.2014 95.9076 72.1435 95.9208 72.0856L95.9831 71.8379C96.0357 71.6062 96.1044 71.3843 96.1473 71.1687C96.1736 71.0529 96.1999 70.937 96.2262 70.8212C96.2296 70.7793 96.2491 70.7472 96.2525 70.7054L96.3578 70.2421L96.4996 69.5373C96.5127 69.4794 96.5161 69.4375 96.5293 69.3796C96.523 69.3538 96.5425 69.3217 96.5361 69.2959L96.6887 68.3561C96.7019 68.2982 96.715 68.2403 96.7184 68.1984C96.735 68.0987 96.7516 67.9989 96.7681 67.8991L96.8155 67.4226C96.8491 67.1136 96.8925 66.7885 96.9101 66.4697C96.9106 66.3602 96.9272 66.2604 96.9375 66.1348C96.9448 65.9416 96.9619 65.7323 96.979 65.523C97.0172 64.2284 96.9942 62.9624 96.8387 61.7699C96.6901 60.4938 96.4251 59.3007 96.0438 58.1909C95.6338 57.0198 95.1074 55.9319 94.4676 54.9948C94.4389 54.9335 94.3844 54.8785 94.3397 54.8074L94.202 54.636L93.9363 54.2772C93.7378 54.0251 93.568 53.8343 93.4108 53.695C93.2312 53.5203 93.0643 53.3971 92.9198 53.3094C92.9037 53.2997 92.8877 53.29 92.8877 53.29C92.7753 53.2218 92.6531 53.1697 92.5212 53.1336C92.3893 53.0976 92.2638 53.0873 92.1445 53.1029C92.0253 53.1184 91.9221 53.1437 91.7994 53.2011C91.5283 53.3222 91.2016 53.6074 90.926 53.9894C90.6344 54.3617 90.3681 54.8371 90.1562 55.3676C89.9444 55.898 89.7646 56.448 89.6623 56.979C89.636 57.0948 89.6063 57.2525 89.5863 57.3941L89.5697 57.4939L89.5326 57.8448L89.5077 58.3568L89.4604 58.8333C89.4364 59.1263 89.4028 59.4353 89.4047 59.722L89.4076 59.7897C89.3905 59.999 89.3895 60.218 89.3885 60.437C89.3879 60.5465 89.3874 60.656 89.3806 60.7397C89.3521 62.0183 89.4072 63.3037 89.569 64.522C89.7274 65.7822 89.9889 67.017 90.341 68.175C90.696 69.4006 91.1674 70.5431 91.7166 71.557C92.2785 72.6226 92.9471 73.621 93.7061 74.5425C94.0521 74.95 94.4238 75.3511 94.7892 75.7264L94.4474 76.5075L94.3203 76.8258L94.0666 77.3529L93.6697 78.1885C93.5884 78.3588 93.5007 78.5033 93.4194 78.6736C93.3513 78.7861 93.3089 78.8922 93.2407 79.0046C93.192 79.0849 93.1594 79.1749 93.1107 79.2552C93.0196 79.4416 92.9028 79.6343 92.7957 79.8109C92.6983 79.9715 92.6106 80.1161 92.523 80.2606C92.299 80.63 92.0911 81.0091 91.835 81.3589L91.3355 82.1103C91.222 82.2612 91.1086 82.412 90.9951 82.5629C90.9206 82.6495 90.8622 82.7459 90.7877 82.8325C90.0194 83.8821 89.1645 84.8573 88.5073 85.5789C88.4328 85.6656 88.3681 85.7361 88.2873 85.7969C88.2517 85.8193 88.2322 85.8514 88.187 85.8899C88.0867 85.9828 88.0025 86.0855 87.9022 86.1784L87.8827 86.2105C87.8082 86.2971 87.7274 86.358 87.6529 86.4446C87.5234 86.5857 87.3876 86.701 87.2581 86.8422C87.0478 87.0441 86.8214 87.2363 86.6111 87.4382C86.5658 87.4767 86.5303 87.499 86.5011 87.5472C86.336 87.7107 86.155 87.8645 85.9739 88.0182C85.1137 88.7486 84.1795 89.456 83.2327 90.1119C82.3214 90.7454 81.3459 91.3399 80.3382 91.915C79.4017 92.4453 78.4072 92.9624 77.3645 93.4503L76.6027 93.8011C76.3574 93.9159 76.1218 94.0146 75.8765 94.1294L75.8507 94.1357C75.4924 94.2919 75.1439 94.432 74.7954 94.5721L74.3597 94.7472C74.3082 94.7598 74.2726 94.7822 74.2371 94.8046C74.15 94.8396 74.0886 94.8683 74.0015 94.9033L73.8628 94.951C73.7854 94.9699 73.6983 95.005 73.6369 95.0337L72.898 95.3104C72.7495 95.3742 72.585 95.4282 72.4366 95.4919L72.1591 95.5872C71.9688 95.6475 71.7785 95.7078 71.5882 95.7681L71.3978 95.8284C71.1559 95.9014 70.9043 95.9904 70.6624 96.0633C70.5592 96.0886 70.472 96.1236 70.3689 96.1489L70.2915 96.1679C70.2141 96.1869 70.1367 96.2058 70.0495 96.2409C69.9979 96.2535 69.9624 96.2759 69.9206 96.2724C69.4207 96.4086 68.9368 96.5545 68.4628 96.6843L68.2822 96.7286L68.1016 96.7728C67.9726 96.8044 67.8694 96.8297 67.7404 96.8613C67.5598 96.9056 67.3793 96.9498 67.1826 96.9843L66.7699 97.0855C66.6151 97.1234 66.4603 97.1613 66.2895 97.1895L65.9896 97.2493C65.8446 97.2712 65.7156 97.3028 65.5706 97.3246C65.3384 97.3815 65.0999 97.4126 64.8677 97.4695L64.5163 97.542C64.3873 97.5736 64.268 97.5891 64.1746 97.5983C63.9103 97.6357 63.6363 97.6892 63.372 97.7266L62.7918 97.8141C62.4501 97.8705 62.1181 97.9108 61.7862 97.9511C61.6669 97.9667 61.5477 97.9822 61.4285 97.9977C61.2674 98.0099 61.1223 98.0318 60.9515 98.0599L60.7645 98.0784C60.713 98.091 60.6711 98.0876 60.6195 98.1003C60.4487 98.1284 60.2715 98.1308 60.1007 98.159L59.9814 98.1746C59.5818 98.2178 59.1919 98.245 58.8021 98.2721C58.7344 98.275 58.6828 98.2876 58.6152 98.2906L58.4799 98.2964C58.3606 98.3119 58.2672 98.3211 58.1577 98.3206C57.9547 98.3293 57.7259 98.3444 57.523 98.3531L57.4553 98.356C57.0494 98.3734 56.6595 98.4006 56.2794 98.4117L55.8414 98.4096C55.5805 98.4052 55.3357 98.4105 55.0748 98.406C54.4499 98.4224 53.8444 98.4067 53.2647 98.3847C53.1133 98.3807 52.9459 98.3671 52.7848 98.3792C50.289 98.2934 47.8389 98.0597 45.3027 97.642L44.5625 97.5226C44.4467 97.4963 44.3211 97.486 44.2213 97.4694C44.1376 97.4626 44.0797 97.4494 44.0057 97.4265C43.9638 97.4231 43.9317 97.4037 43.8899 97.4003C43.4426 97.3048 43.0435 97.2384 42.6542 97.1561C42.5802 97.1332 42.5125 97.1361 42.4546 97.123C42.3388 97.0967 42.223 97.0703 42.1232 97.0538C42.0074 97.0274 41.9076 97.0109 41.8175 96.9783L41.6438 96.9388L41.3703 96.8828C41.1644 96.8238 40.9809 96.8004 40.8169 96.7449C40.7171 96.7283 40.6432 96.7054 40.5434 96.6888C40.3857 96.6591 40.2378 96.6133 40.0801 96.5836C39.9643 96.5573 39.8484 96.531 39.7263 96.4789C39.6104 96.4526 39.4785 96.4165 39.3627 96.3902C39.131 96.3376 38.893 96.2592 38.6614 96.2065L38.3076 96.1018C38.2336 96.0789 38.1596 96.056 38.0857 96.0331C38.0438 96.0297 37.9956 96.0005 37.9538 95.9971L37.764 95.9479C37.3683 95.8397 36.9663 95.7058 36.5706 95.5976C36.3969 95.5582 36.2168 95.4929 36.0528 95.4374C35.9949 95.4242 35.9467 95.395 35.8888 95.3819C35.6669 95.3132 35.4289 95.2348 35.2069 95.1661C35.0751 95.1301 34.9529 95.0779 34.821 95.0419L34.5251 94.9503C34.3772 94.9045 34.255 94.8524 34.1071 94.8067C34.0331 94.7838 33.9431 94.7511 33.8691 94.7282L33.271 94.5193C33.033 94.4408 32.8047 94.3464 32.5667 94.268C32.3224 94.1638 32.0684 94.0756 31.8402 93.9811C31.6601 93.9159 31.4898 93.8345 31.3097 93.7693L30.6892 93.5248C30.567 93.4727 30.4288 93.4108 30.3067 93.3587C30.2424 93.3198 30.1685 93.2969 30.0784 93.2642C28.5965 92.6292 27.0859 91.9329 25.6046 91.1883C24.3256 90.5446 23.0501 89.859 21.7941 89.1413C21.7459 89.112 21.6817 89.0731 21.6335 89.0439C21.5532 88.9952 21.4729 88.9465 21.3926 88.8978C21.2641 88.8199 21.1035 88.7225 20.9751 88.6446C20.7342 88.4985 20.5094 88.3622 20.2587 88.2322L20.1784 88.1835C19.8475 88.0048 19.5521 87.8037 19.2631 87.6284C19.0703 87.5116 18.9098 87.4142 18.7331 87.3071C18.5083 87.1707 18.2835 87.0344 18.0747 86.9078C17.9783 86.8494 17.882 86.7909 17.7856 86.7325L17.7535 86.713C17.6571 86.6546 17.5608 86.5962 17.4484 86.528C17.063 86.2943 16.6936 86.0703 16.3627 85.8916L16.112 85.7616L15.8872 85.6253C15.7427 85.5376 15.5884 85.466 15.4599 85.3881C15.1932 85.2484 14.9489 85.1442 14.7528 85.0692C14.3445 84.9094 14.0675 84.8953 13.938 85.0364C13.8183 85.1614 13.846 85.4418 14.0245 85.8356C14.1169 86.0454 14.2415 86.2747 14.3981 86.5234C14.4716 86.6558 14.5611 86.7979 14.6667 86.9498L14.817 87.1728C14.8618 87.2438 14.9323 87.3086 14.9771 87.3797L14.9932 87.3894C15.2365 87.7126 15.5216 88.0393 15.8194 88.4175L15.8802 88.4984C15.9507 88.5631 15.9955 88.6342 16.0563 88.715C16.1332 88.8055 16.2261 88.9058 16.3191 89.0061C16.5049 89.2067 16.7006 89.3912 16.8864 89.5918C16.957 89.6565 17.0339 89.747 17.1044 89.8118C17.4475 90.1516 17.7808 90.5075 18.1657 90.8507C18.4095 91.0644 18.6436 91.2942 18.9034 91.5177L19.0382 91.6214C19.1248 91.6959 19.2114 91.7704 19.298 91.8449C19.3847 91.9193 19.4713 91.9938 19.5579 92.0683C19.6061 92.0975 19.6445 92.1428 19.6927 92.172C20.8285 93.1243 22.0932 94.045 23.4193 94.9369C23.9687 95.2262 24.4826 95.5378 25.0126 95.8592ZM97.1057 81.1066C97.057 81.1869 97.0244 81.277 96.9854 81.3412C96.8749 81.5597 96.7643 81.7782 96.628 82.0031C96.5306 82.1637 96.4332 82.3242 96.3617 82.4785C96.1148 82.9218 95.8679 83.3652 95.5729 83.7793L95.0212 84.6528C94.8883 84.8358 94.7456 85.0348 94.6288 85.2275C94.5703 85.3239 94.4959 85.4105 94.4374 85.5069C93.75 86.4957 92.9627 87.468 91.8843 88.703C91.8001 88.8057 91.7256 88.8923 91.6351 88.9692C91.5995 88.9916 91.5703 89.0397 91.5348 89.0621C91.47 89.1327 91.415 89.1872 91.3503 89.2577L91.1853 89.4212C91.1108 89.5078 91.0202 89.5847 90.9457 89.6713C90.8065 89.8285 90.6254 89.9823 90.4701 90.1297L90.4506 90.1618C90.2048 90.3861 90.0008 90.6139 89.755 90.8382C89.7097 90.8766 89.6741 90.899 89.6289 90.9374C89.4283 91.1233 89.234 91.335 89.0174 91.5111C88.0375 92.3665 87.0093 93.1927 85.9364 93.9478C84.9249 94.6743 83.8491 95.3617 82.7251 96.02C81.698 96.6272 80.6129 97.2212 79.4797 97.786C79.3571 97.8434 79.2602 97.8945 79.1375 97.9519C78.9793 98.0317 78.8211 98.1114 78.6727 98.1752L77.8335 98.5449C77.5721 98.6499 77.317 98.7808 77.0717 98.8956C76.7845 99.007 76.5036 99.1442 76.2165 99.2556C76.1551 99.2843 76.1196 99.3066 76.068 99.3193C75.9809 99.3543 75.8777 99.3796 75.7905 99.4146L75.4065 99.5771C75.242 99.6311 75.0935 99.6948 74.9192 99.7648L74.5644 99.8791C74.3288 99.9779 74.119 100.07 73.8771 100.143L73.7642 100.185C73.4867 100.28 73.219 100.359 72.9576 100.464C72.7576 100.541 72.5512 100.591 72.3511 100.668L72.135 100.734C72.0318 100.759 71.9447 100.795 71.8318 100.836L71.7286 100.861C71.6414 100.896 71.564 100.915 71.4609 100.94C71.4093 100.953 71.3577 100.966 71.3221 100.988C70.8738 101.112 70.4513 101.229 70.0031 101.352L69.7353 101.432L69.5353 101.508L69.3386 101.542C69.2097 101.574 69.0709 101.622 68.942 101.653L68.1583 101.859L67.9519 101.91C67.7713 101.954 67.5649 102.004 67.3844 102.049L66.6041 102.212C66.4494 102.25 66.3043 102.272 66.1495 102.31C66.0463 102.335 65.9271 102.351 65.8239 102.376C65.6949 102.408 65.5756 102.423 65.4467 102.455C65.3016 102.477 65.1726 102.509 65.0694 102.534L64.4377 102.634C64.1476 102.678 63.8477 102.737 63.5576 102.781C63.1902 102.844 62.8066 102.897 62.4489 102.944C62.3296 102.959 62.2104 102.975 62.0911 102.99C61.9461 103.012 61.8108 103.018 61.6657 103.04C61.5723 103.049 61.453 103.064 61.3596 103.074C61.308 103.086 61.2661 103.083 61.2145 103.096C61.0276 103.114 60.831 103.148 60.6441 103.167C60.3219 103.191 59.9899 103.232 59.6677 103.256L59.2263 103.296C59.107 103.311 58.9975 103.311 58.8783 103.326C58.759 103.342 58.6398 103.357 58.5302 103.357C58.4207 103.356 58.3015 103.372 58.1822 103.387C58.0727 103.387 57.9535 103.402 57.844 103.402L57.5894 103.423C57.2253 103.444 56.8613 103.465 56.4972 103.486C56.2106 103.488 55.9141 103.506 55.6274 103.507L55.1797 103.521C54.4871 103.541 53.814 103.528 53.1569 103.525C53.0055 103.521 52.8542 103.517 52.7028 103.513C51.2212 103.493 49.7207 103.396 48.2494 103.251C47.0195 103.142 45.8028 102.975 44.5379 102.779C44.2546 102.739 43.9971 102.693 43.7397 102.647C43.6141 102.636 43.4822 102.6 43.3567 102.59C43.2729 102.583 43.199 102.56 43.1152 102.553C43.0734 102.55 43.0315 102.547 42.9834 102.517L42.3945 102.402C42.1209 102.346 41.8795 102.309 41.6318 102.247C41.5579 102.224 41.4902 102.227 41.4162 102.204C41.2746 102.184 41.1588 102.158 41.0429 102.131L40.8692 102.092C40.7373 102.056 40.6215 102.03 40.5056 102.003L39.6048 101.786C39.5147 101.754 39.415 101.737 39.3313 101.73C39.1575 101.691 38.9838 101.651 38.8197 101.596C38.556 101.524 38.2922 101.452 38.0445 101.389L38.0123 101.37C37.7646 101.308 37.5266 101.229 37.2629 101.157L36.8672 101.049C36.7932 101.026 36.7032 100.993 36.6131 100.961C36.581 100.941 36.5231 100.928 36.4812 100.925C36.1853 100.833 35.8734 100.732 35.5775 100.64L34.9696 100.447C34.7638 100.388 34.5676 100.313 34.3715 100.238C34.3233 100.209 34.2815 100.206 34.2236 100.193L34.1014 100.141C33.9053 100.066 33.7091 99.9905 33.5033 99.9316C33.2653 99.8532 33.021 99.749 32.783 99.6705C32.619 99.615 32.4647 99.5434 32.3265 99.4816C32.2525 99.4587 32.1722 99.41 32.0822 99.3774C31.6257 99.1884 31.1532 98.9897 30.6967 98.8008C30.3721 98.6479 30.0635 98.5047 29.755 98.3615C29.6328 98.3094 29.4946 98.2476 29.3822 98.1794L28.733 97.8736C28.5914 97.8536 28.4468 97.766 28.3086 97.7041C28.2444 97.6652 28.1641 97.6165 28.0901 97.5936C26.4803 96.7711 24.9352 95.8781 23.4646 94.8985C22.1288 94.0226 20.8737 93.0859 19.7282 92.1496C19.6801 92.1204 19.6416 92.0751 19.5934 92.0459C19.5068 91.9714 19.4202 91.8969 19.3336 91.8225C19.247 91.748 19.1604 91.6735 19.0737 91.599L18.9389 91.4953C18.6951 91.2816 18.4611 91.0518 18.2012 90.8283C17.8163 90.4851 17.4572 90.1356 17.14 89.7894C17.0534 89.7149 16.9925 89.6341 16.922 89.5694C16.7361 89.3688 16.5405 89.1843 16.3546 88.9837C16.2617 88.8834 16.1687 88.7832 16.0919 88.6926C16.031 88.6118 15.9765 88.5568 15.9157 88.476L15.8549 88.3952C15.5474 88.033 15.2559 87.6805 15.0287 87.367L15.0224 87.3412C14.9616 87.2604 14.9071 87.2054 14.8623 87.1343L14.712 86.9114C14.6064 86.7595 14.5169 86.6174 14.4434 86.485C14.2804 86.2104 14.1559 85.9812 14.0698 85.7972C13.8912 85.4034 13.8636 85.123 13.9833 84.9979C14.1031 84.8729 14.38 84.8871 14.7981 85.0307C14.9942 85.1057 15.2385 85.2099 15.5052 85.3497C15.6434 85.4115 15.7719 85.4895 15.9325 85.5868L16.1573 85.7232L16.3919 85.8435C16.6488 85.9993 16.9476 86.1585 17.2527 86.3435C17.333 86.3922 17.4133 86.4409 17.4936 86.4896C17.59 86.548 17.6863 86.6065 17.7988 86.6746L17.8309 86.6941C17.9272 86.7525 18.0236 86.811 18.1199 86.8694C18.3287 86.996 18.5535 87.1323 18.7784 87.2687C18.955 87.3758 19.1317 87.4829 19.3083 87.59C19.5974 87.7653 19.9025 87.9503 20.2237 88.1451L20.304 88.1938C20.5449 88.3398 20.7697 88.4762 21.0203 88.6062C21.1488 88.6841 21.2933 88.7717 21.4218 88.8496C21.5021 88.8983 21.5985 88.9567 21.6788 89.0054C21.727 89.0346 21.7912 89.0736 21.8394 89.1028C23.0954 89.8205 24.3709 90.5061 25.6498 91.1499C27.1312 91.8944 28.6418 92.5908 30.1237 93.2258C30.1977 93.2487 30.2619 93.2877 30.3519 93.3203C30.4741 93.3724 30.6123 93.4342 30.7345 93.4864L31.355 93.7308C31.535 93.7961 31.7054 93.8774 31.8854 93.9427C32.1137 94.0372 32.3677 94.1253 32.612 94.2295C32.85 94.3079 33.0783 94.4024 33.3162 94.4808L33.9143 94.6898C33.9883 94.7127 34.0784 94.7453 34.1523 94.7682C34.2905 94.8301 34.4225 94.8661 34.5704 94.9119L34.8663 95.0035C34.9982 95.0395 35.1203 95.0916 35.2522 95.1277C35.4742 95.1963 35.7121 95.2747 35.9243 95.3595C35.9823 95.3726 36.0304 95.4019 36.0883 95.415C36.2523 95.4706 36.4324 95.5358 36.6062 95.5753C37.0018 95.6834 37.4038 95.8174 37.7995 95.9255L37.9893 95.9747C38.0312 95.9781 38.0793 96.0073 38.1212 96.0107C38.1952 96.0336 38.2691 96.0566 38.3431 96.0795L38.7067 96.1681C38.9383 96.2207 39.1603 96.2894 39.3919 96.342C39.5077 96.3683 39.6557 96.4141 39.7715 96.4404C39.8874 96.4667 39.9935 96.5091 40.1253 96.5452C40.2733 96.591 40.431 96.6207 40.5887 96.6504C40.6787 96.683 40.7624 96.6899 40.8525 96.7225C41.0262 96.762 41.216 96.8112 41.4156 96.8443L41.6793 96.9164L41.8531 96.9559C41.9529 96.9724 42.0589 97.0148 42.1587 97.0314C42.2745 97.0577 42.3743 97.0743 42.4902 97.1006C42.5481 97.1137 42.622 97.1366 42.6897 97.1337C43.063 97.2063 43.4684 97.2984 43.9254 97.3779C43.9673 97.3813 43.9994 97.4008 44.0412 97.4042C44.1152 97.4271 44.1829 97.4242 44.2568 97.4471C44.3727 97.4734 44.4822 97.4739 44.598 97.5002L45.3349 97.6615C47.8871 98.0889 50.3371 98.3227 52.8169 98.3987C52.9683 98.4026 53.1357 98.4163 53.2871 98.4202C53.8765 98.4262 54.4722 98.458 55.0972 98.4416C55.342 98.4363 55.6029 98.4407 55.8638 98.4452L56.3018 98.4472C56.6819 98.4361 57.0718 98.409 57.4777 98.3915L57.5454 98.3886C57.7483 98.3799 57.9771 98.3649 58.18 98.3562C58.2735 98.3469 58.383 98.3475 58.5022 98.3319L58.6376 98.3261C58.7052 98.3232 58.7568 98.3106 58.8245 98.3077C59.2143 98.2805 59.6139 98.2373 60.0038 98.2101L60.123 98.1946C60.3002 98.1922 60.4711 98.164 60.6419 98.1358C60.6838 98.1392 60.7353 98.1266 60.7869 98.1139L60.9738 98.0955C61.1349 98.0833 61.28 98.0615 61.4508 98.0333C61.5701 98.0177 61.6893 98.0022 61.8086 97.9866C62.1405 97.9463 62.4725 97.906 62.8142 97.8496L63.3944 97.7622C63.6586 97.7247 63.9229 97.6873 64.197 97.6339C64.2904 97.6246 64.4097 97.6091 64.5484 97.5614L64.8998 97.489C65.1223 97.4482 65.3705 97.401 65.6027 97.3441C65.7317 97.3125 65.8767 97.2907 66.0218 97.2688L66.2958 97.2153C66.4506 97.1774 66.6053 97.1395 66.7762 97.1113L67.1792 97.0262C67.3598 96.982 67.5404 96.9377 67.737 96.9032C67.866 96.8716 67.9692 96.8463 68.0982 96.8147L68.2885 96.7544L68.4691 96.7101C68.9432 96.5803 69.4431 96.4441 69.9269 96.2982C69.9785 96.2856 70.014 96.2632 70.0559 96.2666C70.1333 96.2477 70.2107 96.2287 70.2978 96.1937L70.3752 96.1747C70.4784 96.1494 70.5655 96.1144 70.6687 96.0891C70.9106 96.0162 71.1622 95.9272 71.4042 95.8542L71.5945 95.7939C71.7848 95.7336 71.9751 95.6733 72.1654 95.613L72.4429 95.5177C72.5914 95.4539 72.7559 95.4 72.9043 95.3362L73.6432 95.0595C73.7206 95.0405 73.8078 95.0055 73.8691 94.9768L74.0015 94.9033C74.0886 94.8683 74.1821 94.8591 74.2532 94.8143C74.2887 94.7919 74.3403 94.7793 74.3919 94.7667L74.8275 94.5915C75.176 94.4515 75.5343 94.2953 75.8828 94.1552L75.9086 94.1489C76.1442 94.0502 76.3895 93.9354 76.6349 93.8205L77.3869 93.4859C78.4135 92.9882 79.4241 92.4808 80.3606 91.9505C81.3683 91.3754 82.3438 90.7809 83.2551 90.1474C84.2019 89.4916 85.1361 88.7841 85.9963 88.0537C86.1773 87.9 86.3584 87.7462 86.5235 87.5827C86.5687 87.5443 86.6043 87.5219 86.6335 87.4738C86.8438 87.2718 87.0702 87.0796 87.2805 86.8777C87.426 86.7463 87.5458 86.6212 87.6753 86.4801C87.7498 86.3935 87.8306 86.3327 87.9051 86.2461L87.9246 86.214C88.0248 86.121 88.1091 86.0183 88.2094 85.9254C88.2288 85.8933 88.2644 85.8709 88.2999 85.8485C88.3647 85.778 88.4552 85.7011 88.5297 85.6145C89.1869 84.8928 90.0418 83.9177 90.8101 82.868C90.8846 82.7814 90.943 82.685 91.0175 82.5984C91.131 82.4476 91.2444 82.2967 91.3578 82.1458L91.8574 81.3945C92.0974 81.0349 92.3214 80.6655 92.5454 80.2962C92.633 80.1516 92.7304 79.991 92.818 79.8465C92.9252 79.6698 93.042 79.4771 93.1331 79.2907C93.1818 79.2104 93.2144 79.1204 93.2631 79.0401C93.3312 78.9277 93.3736 78.8216 93.4418 78.7092C93.7659 78.9716 94.09 79.234 94.4238 79.4804C95.2423 80.0865 96.1577 80.6416 97.1057 81.1066ZM97.1057 81.1066C96.6268 80.8822 96.1611 80.5997 95.7114 80.3271C94.9085 79.8402 94.1445 79.289 93.4194 78.6736C93.5007 78.5033 93.5884 78.3588 93.6697 78.1885L94.0666 77.3529L94.3203 76.8258L94.4474 76.5075L94.7634 75.7328C95.6515 76.6227 96.6174 77.3841 97.6292 77.9976C97.8701 78.1437 98.1109 78.2898 98.3616 78.4198L98.2997 78.558L98.2476 78.6802L98.0231 79.159C97.9092 79.4194 97.7952 79.6798 97.6749 79.9143L97.5839 80.1007L97.1349 81.0585C97.1252 81.0745 97.1057 81.1066 97.1057 81.1066ZM132.592 47.253C132.624 47.2725 132.668 47.4531 132.66 47.7558C132.656 47.9072 132.655 48.1262 132.654 48.3452L132.641 48.4032C132.64 48.6222 132.62 48.8733 132.596 49.1663C132.562 49.4754 132.535 49.8102 132.478 50.1932C132.461 50.4025 132.428 50.6021 132.405 50.7856L132.371 50.9851C132.351 51.1267 132.322 51.2844 132.302 51.426C132.279 51.5 132.282 51.5677 132.275 51.6514C132.255 51.793 132.225 51.9507 132.195 52.1084L132.024 52.8613C132.002 52.9353 131.995 53.019 131.978 53.1188C131.948 53.2764 131.915 53.476 131.876 53.6497L131.787 54.0133C131.757 54.171 131.712 54.3189 131.682 54.4766C131.439 55.4933 131.098 56.6706 130.621 58.1822C130.543 58.4202 130.438 58.6645 130.36 58.9025L130.252 59.1886C130.197 59.3526 130.141 59.5167 130.07 59.6709L130.05 59.703L129.838 60.2335C129.786 60.3557 129.734 60.4778 129.682 60.6C129.587 60.8282 129.499 61.0823 129.405 61.3105C129.249 61.677 129.092 62.0434 128.926 62.4259C128.197 64.0266 127.388 65.5785 126.518 67.0496L125.787 68.254C125.622 68.5271 125.44 68.7903 125.259 69.0536C125.181 69.1821 125.077 69.3169 124.999 69.4453C124.902 69.6059 124.788 69.7568 124.675 69.9076C124.646 69.9558 124.616 70.004 124.571 70.0425L124.522 70.1227C124.399 70.2897 124.266 70.4726 124.159 70.6493C124.091 70.7617 124.017 70.8483 123.948 70.9607C123.884 71.0313 123.835 71.1116 123.77 71.1821L123.722 71.2624C123.692 71.3106 123.647 71.349 123.618 71.3972C123.504 71.5481 123.381 71.715 123.242 71.8722C121.917 73.5505 120.441 75.1154 118.827 76.509C117.947 77.2715 117.039 77.9726 116.128 78.6061C115.145 79.2843 114.108 79.9076 113.088 80.431C111.971 81.0056 110.803 81.4832 109.687 81.8388C109.064 82.0323 108.451 82.2098 107.852 82.3294C107.2 82.4617 106.559 82.5778 105.93 82.6361C103.185 82.926 100.436 82.533 97.9992 81.5167C97.697 81.3993 97.3884 81.2561 97.1057 81.1066C97.1154 81.0906 97.1252 81.0745 97.1349 81.0585L97.6063 80.1362L97.6973 79.9499C97.8113 79.6895 97.9252 79.4292 98.0455 79.1946L98.3221 78.5935L98.3839 78.4553C98.6506 78.5951 98.9013 78.7251 99.1777 78.8488C99.4059 78.9433 99.6342 79.0377 99.8785 79.1419L99.9685 79.1746C100.075 79.217 100.19 79.2433 100.297 79.2856C100.461 79.3412 100.608 79.3869 100.772 79.4425C100.846 79.4654 100.92 79.4883 101.004 79.4951L101.156 79.499C101.172 79.5088 101.181 79.4927 101.213 79.5122C101.329 79.5385 101.451 79.5906 101.577 79.6009C101.661 79.6077 101.751 79.6403 101.834 79.6471C102.008 79.6866 102.208 79.7198 102.407 79.7529C103.489 79.9255 104.596 79.9822 105.724 79.8973C107.767 79.7523 109.889 79.1502 112.036 78.1457C112.982 77.7088 113.918 77.1785 114.852 76.5806C115.714 76.0274 116.574 75.4065 117.405 74.7244C118.957 73.469 120.403 72.0618 121.699 70.5411C122.324 69.8 122.917 69.0394 123.465 68.3173C123.568 68.1825 123.666 68.0219 123.77 67.8871C123.932 67.6559 124.094 67.4248 124.272 67.2034L125.021 66.0763C125.917 64.7084 126.761 63.2436 127.551 61.7238C127.723 61.367 127.912 61.0201 128.074 60.6794C128.185 60.4609 128.279 60.2326 128.38 60.0302C128.432 59.908 128.494 59.7698 128.562 59.6574L128.796 59.1625L128.826 59.1143C128.897 58.96 128.959 58.8218 129.015 58.6578C129.151 58.3235 129.295 58.0149 129.422 57.6967C130.005 56.2274 130.39 55.1212 130.714 54.1532L130.972 53.3653C131.028 53.2013 131.073 53.0533 131.103 52.8956C131.136 52.8056 131.152 52.7058 131.185 52.6158C131.231 52.4679 131.276 52.3199 131.322 52.172L131.394 51.9082C131.44 51.7602 131.476 51.6283 131.496 51.4867C131.519 51.4127 131.536 51.3129 131.559 51.239C131.617 51.0331 131.66 50.8175 131.719 50.6116C131.778 50.4058 131.827 50.2159 131.867 50.0422C131.956 49.6786 132.025 49.3472 132.116 49.0513C132.166 48.8615 132.215 48.6717 132.244 48.514C132.261 48.4142 132.284 48.3403 132.307 48.2663C132.359 48.0347 132.409 47.8448 132.454 47.6969C132.494 47.4136 132.534 47.2399 132.592 47.253ZM92.9198 53.3094C92.9359 53.3192 92.9422 53.345 92.9422 53.345C93.0867 53.4326 93.2439 53.5718 93.4332 53.7306C93.5904 53.8698 93.7602 54.0606 93.9587 54.3128L94.2244 54.6716L94.3621 54.8429C94.4166 54.8979 94.4452 54.9593 94.49 55.0303C95.1298 55.9674 95.6659 57.0393 96.0662 58.2265C96.4475 59.3363 96.7188 60.5551 96.8611 61.8055C97.0005 62.9882 97.0396 64.2639 97.0014 65.5586C96.9843 65.7678 96.9769 65.9611 96.9598 66.1703C96.9593 66.2798 96.9428 66.3796 96.9422 66.4891C96.9086 66.7982 96.8652 67.1233 96.8476 67.4421L96.8003 67.9186C96.7837 68.0184 96.7671 68.1181 96.7506 68.2179C96.7374 68.2758 96.7242 68.3337 96.7208 68.3756L96.5683 69.3154C96.5746 69.3412 96.5551 69.3733 96.5614 69.3991C96.558 69.441 96.5448 69.4989 96.5414 69.5407L96.4951 69.7982L96.3899 70.2615L96.3007 70.7346C96.2973 70.7764 96.2778 70.8086 96.2744 70.8504C96.2481 70.9662 96.2218 71.0821 96.1955 71.1979C96.1429 71.4296 96.0742 71.6515 96.0313 71.8671L95.9787 72.0988C95.9655 72.1567 95.9524 72.2146 95.9392 72.2725C95.9226 72.3723 95.89 72.4623 95.8734 72.5621L95.7361 73.006C95.6542 73.2858 95.5627 73.5817 95.4808 73.8615L95.4774 73.9034C95.4121 74.0835 95.3372 74.2796 95.2719 74.4596C95.2295 74.5657 95.1871 74.6718 95.1608 74.7877L94.9656 75.2184C94.9461 75.2505 94.9363 75.2665 94.9266 75.2826C94.9134 75.3405 94.91 75.3824 94.8969 75.4403L94.7698 75.7585C94.4043 75.3832 94.0326 74.9821 93.6866 74.5746C92.9276 73.6531 92.2591 72.6547 91.6972 71.5891C91.1577 70.5591 90.6863 69.4167 90.3216 68.2071C89.9695 67.0491 89.7079 65.8143 89.5495 64.5541C89.3975 63.3198 89.3326 62.0504 89.3611 60.7718C89.3616 60.6623 89.3621 60.5528 89.369 60.4691C89.37 60.2501 89.3871 60.0408 89.3881 59.8218L89.3852 59.7541C89.4091 59.4611 89.417 59.1584 89.4409 58.8654L89.4882 58.3889L89.5824 57.5455L89.5989 57.4457C89.6189 57.3041 89.6389 57.1624 89.675 57.0305C89.787 56.4835 89.941 55.9399 90.1689 55.4191C90.3807 54.8887 90.6471 54.4132 90.9387 54.041C91.2045 53.675 91.5409 53.3738 91.812 53.2527C91.9347 53.1953 92.0379 53.17 92.1572 53.1545C92.2861 53.1229 92.4117 53.1331 92.5436 53.1692C92.6755 53.2052 92.7913 53.2315 92.9198 53.3094Z" fill="#FE6035"/>
</svg>
