<svg width="111" height="33" viewBox="0 0 111 33" fill="none" xmlns="http://www.w3.org/2000/svg">
<path d="M54.6689 32.2651H55.9661L55.9661 0.309759H54.6689L54.6689 32.2651Z" fill="white" fill-opacity="0.5"/>
<path d="M51.6385 27.5015H52.9357V5.07565H51.6385V27.5015Z" fill="white" fill-opacity="0.5"/>
<path d="M39.5191 27.0693H40.8163V5.50568H39.5191V27.0693Z" fill="white" fill-opacity="0.5"/>
<path d="M30.43 27.0693H31.7272L31.7272 5.50568H30.43L30.43 27.0693Z" fill="white" fill-opacity="0.5"/>
<path d="M9.23171 27.0693H10.5289L10.5289 5.50568H9.23171L9.23171 27.0693Z" fill="white" fill-opacity="0.5"/>
<path d="M57.6991 27.5015H58.9963V5.07565H57.6991V27.5015Z" fill="white" fill-opacity="0.5"/>
<path d="M48.6099 25.2129H49.9071V7.36113H48.6099V25.2129Z" fill="white" fill-opacity="0.5"/>
<path d="M60.7278 25.2129H62.025V7.36113H60.7278V25.2129Z" fill="white" fill-opacity="0.5"/>
<path d="M66.7883 25.2129H68.0855V7.36113H66.7883V25.2129Z" fill="white" fill-opacity="0.5"/>
<path d="M72.8472 25.2129H74.1444V7.36113H72.8472V25.2129Z" fill="white" fill-opacity="0.5"/>
<path d="M69.8185 27.0693H71.1157V5.50568H69.8185V27.0693Z" fill="white" fill-opacity="0.5"/>
<path d="M78.9078 27.0693H80.205V5.50568H78.9078V27.0693Z" fill="white" fill-opacity="0.5"/>
<path d="M42.5494 25.249H43.8466V7.32633H42.5494V25.249Z" fill="white" fill-opacity="0.5"/>
<path d="M36.4905 25.249H37.7877V7.32633H36.4905V25.249Z" fill="white" fill-opacity="0.5"/>
<path d="M21.3408 25.249H22.6379L22.6379 7.32633H21.3408L21.3408 25.249Z" fill="white" fill-opacity="0.5"/>
<path d="M12.262 25.249H13.5591L13.5591 7.32633H12.262L12.262 25.249Z" fill="white" fill-opacity="0.5"/>
<path d="M45.5796 22.0308H46.8768V10.5452H45.5796V22.0308Z" fill="white" fill-opacity="0.5"/>
<path d="M63.758 22.0308H65.0552V10.5452H63.758V22.0308Z" fill="white" fill-opacity="0.5"/>
<path d="M75.8775 20.9917H77.1747V11.5835H75.8775V20.9917Z" fill="white" fill-opacity="0.5"/>
<path d="M81.938 20.9917H83.2352V11.5835H81.938V20.9917Z" fill="white" fill-opacity="0.5"/>
<path d="M94.0411 20.9917H95.3383V11.5835H94.0411V20.9917Z" fill="white" fill-opacity="0.5"/>
<path d="M103.13 22.5596H104.427V10.0148H103.13V22.5596Z" fill="white" fill-opacity="0.5"/>
<path d="M106.149 21.3862H107.446V11.1915H106.149V21.3862Z" fill="white" fill-opacity="0.5"/>
<path d="M109.179 19.7515H110.476V12.8257H109.179V19.7515Z" fill="white" fill-opacity="0.5"/>
<path d="M84.9667 23.4697H86.2639V9.10762H84.9667V23.4697Z" fill="white" fill-opacity="0.5"/>
<path d="M91.0109 23.4697H92.308V9.10762H91.0109V23.4697Z" fill="white" fill-opacity="0.5"/>
<path d="M87.991 25.249H89.2882V7.32633H87.991V25.249Z" fill="white" fill-opacity="0.5"/>
<path d="M97.0698 25.249H98.367V7.32633H97.0698V25.249Z" fill="white" fill-opacity="0.5"/>
<path d="M100.1 27.0693H101.397V5.50568H100.1V27.0693Z" fill="white" fill-opacity="0.5"/>
<path d="M6.20296 22.5596H7.50015L7.50015 10.0148H6.20296L6.20296 22.5596Z" fill="white" fill-opacity="0.5"/>
<path d="M24.371 23.4697H25.6682V9.10762H24.371V23.4697Z" fill="white" fill-opacity="0.5"/>
<path d="M18.3209 23.4697H19.6181V9.10762H18.3209V23.4697Z" fill="white" fill-opacity="0.5"/>
<path d="M33.4603 20.9917H34.7574V11.5835H33.4603V20.9917Z" fill="white" fill-opacity="0.5"/>
<path d="M27.3997 20.9917H28.6969V11.5835H27.3997V20.9917Z" fill="white" fill-opacity="0.5"/>
<path d="M15.2922 20.9917H16.5894V11.5835H15.2922L15.2922 20.9917Z" fill="white" fill-opacity="0.5"/>
<path d="M3.18305 21.3862H4.48024L4.48024 11.1915H3.18305L3.18305 21.3862Z" fill="white" fill-opacity="0.5"/>
<path d="M0.1528 19.7515H1.44999L1.44999 12.8257H0.1528L0.1528 19.7515Z" fill="white" fill-opacity="0.5"/>
</svg>
