<svg width="34" height="35" viewBox="0 0 34 35" fill="none" xmlns="http://www.w3.org/2000/svg">
<g clip-path="url(#clip0_131_523)">
<path d="M26.8753 21.4846C26.1792 20.7598 25.3396 20.3723 24.4498 20.3723C23.5672 20.3723 22.7204 20.7526 21.9957 21.4774L19.7281 23.7378C19.5415 23.6374 19.3549 23.5441 19.1755 23.4508C18.9172 23.3216 18.6732 23.1996 18.4651 23.0705C16.341 21.7214 14.4107 19.9633 12.5593 17.6885C11.6623 16.5547 11.0595 15.6003 10.6218 14.6316C11.2102 14.0934 11.7556 13.5336 12.2866 12.9954C12.4875 12.7945 12.6885 12.5864 12.8894 12.3855C14.3963 10.8785 14.3963 8.92669 12.8894 7.41975L10.9304 5.46072C10.7079 5.23827 10.4783 5.00864 10.263 4.77901C9.83245 4.3341 9.38036 3.87484 8.91393 3.44428C8.21786 2.75539 7.38545 2.38942 6.50999 2.38942C5.63453 2.38942 4.78777 2.75539 4.07017 3.44428C4.063 3.45146 4.063 3.45146 4.05582 3.45863L1.616 5.91998C0.697483 6.8385 0.17364 7.95794 0.0588248 9.25679C-0.113398 11.3522 0.503733 13.304 0.977344 14.5813C2.13985 17.7172 3.87642 20.6235 6.46693 23.7378C9.60999 27.4908 13.3917 30.4545 17.7116 32.5427C19.3621 33.3249 21.5651 34.2506 24.0264 34.4084C24.1771 34.4156 24.335 34.4228 24.4785 34.4228C26.1362 34.4228 27.5283 33.8272 28.619 32.6432C28.6262 32.6288 28.6406 32.6216 28.6477 32.6073C29.0209 32.1552 29.4514 31.7462 29.9035 31.3084C30.2121 31.0142 30.5278 30.7057 30.8364 30.3827C31.5468 29.6436 31.92 28.7825 31.92 27.8999C31.92 27.01 31.5396 26.1561 30.8149 25.4385L26.8753 21.4846ZM29.4443 29.0408C29.4371 29.0408 29.4371 29.048 29.4443 29.0408C29.1644 29.3422 28.8774 29.6149 28.5688 29.9163C28.1024 30.3612 27.6288 30.8276 27.1839 31.3515C26.4591 32.1265 25.6051 32.4925 24.4857 32.4925C24.3781 32.4925 24.2632 32.4925 24.1556 32.4853C22.0244 32.3489 20.0438 31.5165 18.5584 30.8061C14.4968 28.8399 10.9304 26.0485 7.9667 22.5107C5.51971 19.5614 3.8836 16.8346 2.80003 13.9068C2.13267 12.12 1.88869 10.7279 1.99633 9.41466C2.06809 8.57507 2.391 7.87901 2.98661 7.28341L5.4336 4.83641C5.78522 4.50632 6.15837 4.32692 6.52434 4.32692C6.97643 4.32692 7.3424 4.59961 7.57203 4.82924C7.5792 4.83641 7.58638 4.84359 7.59355 4.85076C8.03129 5.25979 8.44749 5.68317 8.88522 6.13526C9.10768 6.36489 9.33731 6.59452 9.56694 6.83132L11.526 8.79035C12.2866 9.551 12.2866 10.2542 11.526 11.0149C11.3179 11.223 11.1169 11.4311 10.9088 11.632C10.3061 12.2492 9.73198 12.8232 9.10768 13.3829C9.09333 13.3973 9.07897 13.4045 9.0718 13.4188C8.45467 14.036 8.56948 14.6387 8.69865 15.0478C8.70582 15.0693 8.713 15.0908 8.72018 15.1123C9.22967 16.3466 9.94726 17.5091 11.038 18.8941L11.0452 18.9012C13.0257 21.3411 15.1139 23.2427 17.4174 24.6994C17.7116 24.886 18.013 25.0367 18.3 25.1802C18.5584 25.3093 18.8024 25.4313 19.0105 25.5605C19.0392 25.5749 19.0679 25.5964 19.0966 25.6107C19.3406 25.7327 19.5702 25.7901 19.807 25.7901C20.4026 25.7901 20.7757 25.417 20.8977 25.295L23.3519 22.8408C23.5959 22.5968 23.9834 22.3026 24.4355 22.3026C24.8804 22.3026 25.2464 22.5825 25.4688 22.8265C25.476 22.8337 25.476 22.8337 25.4832 22.8408L29.4371 26.7948C30.1762 27.5267 30.1762 28.2802 29.4443 29.0408Z" fill="#FE6035"/>
<path d="M18.3789 8.50983C20.259 8.82557 21.9669 9.71538 23.3303 11.0788C24.6938 12.4422 25.5764 14.1501 25.8993 16.0302C25.9783 16.5038 26.3873 16.8339 26.8537 16.8339C26.9111 16.8339 26.9614 16.8267 27.0188 16.8196C27.5498 16.7334 27.9014 16.2311 27.8153 15.7001C27.4278 13.4253 26.3514 11.3515 24.7081 9.70821C23.0648 8.06492 20.991 6.98853 18.7162 6.60103C18.1852 6.51492 17.6901 6.86654 17.5968 7.39038C17.5035 7.91422 17.8479 8.42371 18.3789 8.50983Z" fill="#FE6035"/>
<path d="M33.965 15.4203C33.3264 11.6744 31.5611 8.26585 28.8486 5.55334C26.1361 2.84084 22.7275 1.07556 18.9817 0.436904C18.4578 0.343616 17.9627 0.702413 17.8694 1.22626C17.7833 1.75728 18.1349 2.25241 18.6659 2.3457C22.0099 2.9126 25.0597 4.49848 27.4852 6.91677C29.9106 9.34224 31.4893 12.392 32.0562 15.736C32.1352 16.2096 32.5442 16.5397 33.0106 16.5397C33.068 16.5397 33.1183 16.5325 33.1757 16.5253C33.6995 16.4464 34.0583 15.9441 33.965 15.4203Z" fill="#FE6035"/>
</g>
<defs>
<clipPath id="clip0_131_523">
<rect width="34" height="34" fill="white" transform="translate(0.00439453 0.422119)"/>
</clipPath>
</defs>
</svg>
