<svg width="24" height="25" viewBox="0 0 24 25" fill="none" xmlns="http://www.w3.org/2000/svg">
<path d="M3.45961 17.5847C3.41039 17.4998 3.32986 17.4376 3.23531 17.4114C3.14075 17.3852 3.03969 17.3971 2.95379 17.4445C2.8679 17.4919 2.80401 17.5711 2.77582 17.6651C2.74763 17.7591 2.7574 17.8604 2.80301 17.9473C6.70676 25.1471 17.2947 25.1454 21.197 17.9471C21.2449 17.8601 21.2562 17.7576 21.2286 17.6621C21.201 17.5667 21.1366 17.4862 21.0496 17.4382C20.9626 17.3902 20.8602 17.3786 20.7647 17.4061C20.6692 17.4336 20.5886 17.4978 20.5404 17.5847C19.6983 19.1127 18.4617 20.3868 16.9596 21.2742C15.4574 22.1615 13.7447 22.6296 12 22.6296C10.2553 22.6296 8.54259 22.1615 7.04042 21.2742C5.53825 20.3868 4.30167 19.1127 3.45961 17.5847Z" fill="#FE6035"/>
<path d="M19.3949 6.53447C19.4602 6.60775 19.5515 6.65253 19.6494 6.6592C19.7473 6.66588 19.8439 6.63393 19.9185 6.57019C19.9931 6.50646 20.0398 6.41602 20.0485 6.31829C20.0572 6.22055 20.0272 6.1233 19.9651 6.04739C15.9529 1.19022 8.04664 1.19057 4.03491 6.04754C3.97257 6.12342 3.94249 6.22074 3.95113 6.31857C3.95978 6.4164 4.00646 6.50694 4.08115 6.57071C4.15584 6.63449 4.25256 6.66642 4.35054 6.65964C4.44852 6.65286 4.53992 6.60791 4.60511 6.53445C8.33024 2.0254 15.6703 2.02588 19.3949 6.53447Z" fill="#FE6035"/>
<path d="M7.09644 6.24869C7.01873 6.30876 6.96769 6.39691 6.95429 6.49421C6.94088 6.59151 6.96618 6.69018 7.02474 6.76903C7.0833 6.84787 7.17046 6.9006 7.26748 6.91587C7.3645 6.93115 7.46364 6.90776 7.5436 6.85072C8.83448 5.89892 10.3962 5.38542 12 5.38543C13.6039 5.38544 15.1656 5.89896 16.4564 6.85078C16.5364 6.90764 16.6355 6.9309 16.7324 6.91556C16.8293 6.90022 16.9164 6.84751 16.9749 6.76872C17.0334 6.68994 17.0587 6.59136 17.0454 6.49414C17.032 6.39692 16.9811 6.30879 16.9035 6.24868C15.4832 5.20115 13.7648 4.63598 12 4.63599C10.2352 4.63599 8.51674 5.20115 7.09644 6.24869Z" fill="#FE6035"/>
<path d="M12 21.1296C13.2442 21.1322 14.4726 20.8516 15.5923 20.3092C16.712 19.7668 17.6937 18.9768 18.4629 17.9989C18.5223 17.9207 18.5487 17.8223 18.5364 17.7249C18.5241 17.6275 18.4741 17.5387 18.3971 17.4777C18.3201 17.4168 18.2223 17.3884 18.1246 17.3988C18.027 17.4091 17.9372 17.4573 17.8747 17.5331C14.9983 21.3045 9.00126 21.3041 6.12524 17.533C6.0627 17.4573 5.97299 17.4091 5.87534 17.3988C5.7777 17.3885 5.67991 17.4169 5.60295 17.4779C5.52599 17.5388 5.47599 17.6276 5.46368 17.725C5.45138 17.8224 5.47774 17.9207 5.53712 17.9989C6.30635 18.9768 7.28798 19.7668 8.40769 20.3092C9.52739 20.8516 10.7558 21.1322 12 21.1296Z" fill="#FE6035"/>
<path d="M1.69794 13.8428C1.56607 14.0933 1.50075 14.3736 1.50824 14.6567C1.51573 14.9398 1.59578 15.2162 1.74072 15.4595C1.88567 15.7027 2.09065 15.9047 2.33603 16.046C2.58141 16.1874 2.85897 16.2634 3.14213 16.2667L7.31497 16.2667C7.31354 16.5142 7.3609 16.7596 7.45434 16.9888C7.54777 17.218 7.68546 17.4265 7.85953 17.6025C8.0336 17.7784 8.24064 17.9184 8.46882 18.0143C8.69699 18.1102 8.94183 18.1602 9.18934 18.1615L14.8107 18.1615C15.0585 18.1613 15.3038 18.1121 15.5325 18.0165C15.7612 17.921 15.9687 17.7811 16.1429 17.6049C16.3172 17.4287 16.4549 17.2198 16.5479 16.9901C16.641 16.7604 16.6876 16.5145 16.685 16.2667H20.8579C21.1411 16.2634 21.4186 16.1874 21.664 16.0461C21.9094 15.9047 22.1144 15.7027 22.2593 15.4594C22.4042 15.2162 22.4843 14.9397 22.4918 14.6567C22.4993 14.3736 22.4339 14.0933 22.302 13.8427C21.7894 12.8929 20.9405 12.1688 19.9217 11.8123C20.2065 11.593 20.4371 11.3113 20.596 10.9889C20.7548 10.6665 20.8375 10.3119 20.8378 9.95249C20.726 6.83643 16.2399 6.83634 16.1287 9.95253C16.129 10.312 16.2117 10.6666 16.3706 10.9891C16.5295 11.3116 16.7602 11.5933 17.0451 11.8126C16.1259 12.1363 15.3432 12.7612 14.824 13.5858C14.4349 13.3246 14.0114 13.1187 13.5656 12.9741C13.9215 12.7237 14.212 12.3914 14.4127 12.0053C14.6133 11.6191 14.7182 11.1904 14.7186 10.7552C14.5916 7.15841 9.40884 7.15698 9.28145 10.7553C9.28179 11.1905 9.3867 11.6192 9.58736 12.0053C9.78801 12.3914 10.0785 12.7237 10.4344 12.9741C9.98843 13.1187 9.56472 13.3247 9.17551 13.5862C8.65538 12.7624 7.87306 12.1377 6.9546 11.8128C7.23955 11.5935 7.47039 11.3118 7.62932 10.9893C7.78826 10.6667 7.87105 10.312 7.87134 9.95247C7.76337 6.83943 3.27236 6.83469 3.16223 9.95251C3.16251 10.3119 3.24525 10.6665 3.40406 10.9889C3.56288 11.3113 3.79354 11.593 4.07831 11.8123C3.05953 12.1688 2.21062 12.8929 1.69794 13.8428ZM16.8787 9.9525C16.8827 9.5296 17.0535 9.1254 17.354 8.82778C17.6545 8.53016 18.0603 8.36321 18.4832 8.36321C18.9062 8.36322 19.312 8.53018 19.6124 8.8278C19.9129 9.12543 20.0837 9.52963 20.0878 9.95253C20.0837 10.3754 19.9129 10.7796 19.6124 11.0773C19.3119 11.3749 18.9061 11.5418 18.4832 11.5418C18.0603 11.5418 17.6545 11.3748 17.354 11.0772C17.0535 10.7796 16.8827 10.3754 16.8787 9.9525ZM18.4806 12.3069C19.1293 12.3064 19.7659 12.4821 20.3226 12.8151C20.8793 13.1482 21.3351 13.6261 21.6414 14.198C21.7133 14.3341 21.749 14.4865 21.7451 14.6404C21.7412 14.7942 21.6978 14.9446 21.6192 15.0769C21.5406 15.2093 21.4293 15.3192 21.296 15.3962C21.1627 15.4732 21.0118 15.5147 20.8579 15.5167H16.5183C16.2485 14.9616 15.8744 14.4636 15.4165 14.0498C15.734 13.5201 16.1828 13.0813 16.7196 12.776C17.2565 12.4707 17.863 12.3091 18.4806 12.3069ZM10.0314 10.7552C10.1142 8.15367 13.8862 8.15428 13.9686 10.7553C13.8859 13.357 10.1137 13.3564 10.0314 10.7552ZM15.8004 15.7467C15.8912 15.9186 15.9364 16.111 15.9315 16.3053C15.9266 16.4997 15.8718 16.6896 15.7725 16.8567C15.6731 17.0238 15.5325 17.1626 15.3641 17.2598C15.1956 17.3569 15.0051 17.4091 14.8106 17.4115L9.18934 17.4115C8.99417 17.4111 8.80246 17.36 8.63292 17.2634C8.46339 17.1667 8.32184 17.0277 8.22211 16.8599C8.12238 16.6922 8.06789 16.5014 8.06395 16.3063C8.06001 16.1111 8.10677 15.9183 8.19965 15.7467C9.77128 12.7382 14.2291 12.7385 15.8004 15.7467ZM3.91224 9.95249C3.91623 9.52956 4.08704 9.1253 4.38752 8.82764C4.688 8.52999 5.09386 8.363 5.51681 8.36301C5.93976 8.36301 6.34561 8.53 6.64609 8.82767C6.94656 9.12533 7.11736 9.52959 7.12135 9.95253C7.11736 10.3755 6.94655 10.7797 6.64606 11.0774C6.34558 11.375 5.93973 11.542 5.51678 11.542C5.09382 11.542 4.68797 11.375 4.3875 11.0774C4.08702 10.7797 3.91622 10.3754 3.91224 9.95249ZM5.51329 12.3069C6.13178 12.3086 6.73936 12.4699 7.27719 12.7753C7.81503 13.0807 8.26491 13.5198 8.58328 14.0501C8.12544 14.4638 7.75145 14.9617 7.48166 15.5167H3.1421C2.98817 15.5147 2.83733 15.4732 2.70403 15.3962C2.57073 15.3192 2.45944 15.2092 2.38081 15.0769C2.30218 14.9445 2.25884 14.7942 2.25496 14.6403C2.25107 14.4864 2.28676 14.3341 2.35861 14.198C2.66441 13.627 3.11926 13.1497 3.67476 12.8167C4.23025 12.4837 4.86563 12.3075 5.51329 12.3069Z" fill="#FE6035"/>
</svg>
