<svg width="81" height="81" viewBox="0 0 81 81" fill="none" xmlns="http://www.w3.org/2000/svg">
<g clip-path="url(#clip0_129_54)">
<path d="M50.5571 77.061C44.9643 77.061 39.4532 76.5197 34.1768 75.4521C33.3115 75.2769 32.689 74.516 32.689 73.633V54.955L23.0592 52.0786C22.273 51.8438 21.7343 51.1207 21.7343 50.3001C21.7343 49.4795 22.273 48.7566 23.0592 48.5216L50.0261 40.4671C50.3722 40.3636 50.742 40.3636 51.0882 40.4671L78.0145 48.5093C78.1741 48.5529 78.3249 48.6172 78.4641 48.6991C79.0223 49.0267 79.3805 49.6308 79.3805 50.2999C79.3805 50.3166 79.3802 50.3335 79.3798 50.35V59.9729L80.5224 62.7211C80.9158 63.6677 80.4678 64.7539 79.5213 65.1474C78.8195 65.4392 78.0402 65.268 77.5238 64.7734C77.0076 65.268 76.2283 65.4392 75.5265 65.1471C74.5799 64.7537 74.1317 63.6672 74.5254 62.7209L75.6682 59.9729V52.792L51.0886 60.1336C50.7425 60.2371 50.3729 60.2371 50.0263 60.1336L36.4012 56.0639V72.0992C40.9811 72.9291 45.7355 73.3492 50.5576 73.3492C55.3797 73.3492 60.1341 72.9291 64.7142 72.0992V61.6017C64.7142 60.5768 65.5452 59.7457 66.5702 59.7457C67.5951 59.7457 68.4262 60.5768 68.4262 61.6017V73.633C68.4262 74.5162 67.8037 75.2769 66.9383 75.4521C61.6613 76.5197 56.1502 77.061 50.5571 77.061ZM35.1227 51.8079L50.5569 56.4179L71.0389 50.3001L50.5569 44.1825L30.0751 50.3001L35.0304 51.7803C35.0617 51.7889 35.0925 51.7979 35.1227 51.8079ZM26.8065 66.7171C26.6232 66.7171 26.4369 66.6897 26.2524 66.6322L1.96748 59.0453C1.1926 58.8031 0.665039 58.0856 0.665039 57.2738V5.1675C0.665039 4.57706 0.94599 4.02189 1.42159 3.67226C1.89719 3.32264 2.51013 3.21986 3.07458 3.39595L34.806 13.3095L66.0155 3.55905C66.5794 3.38296 67.1929 3.48574 67.6684 3.83536C68.1441 4.18498 68.425 4.74015 68.425 5.33059V38.4698C68.425 39.4948 67.594 40.3258 66.569 40.3258C65.544 40.3258 64.713 39.4948 64.713 38.4698V7.85497L36.4008 16.7004V37.5335C36.4008 38.5584 35.5698 39.3894 34.5448 39.3894C33.5198 39.3894 32.6888 38.5584 32.6888 37.5335V16.5371L4.37702 7.69188V55.9092L27.3593 63.0891C28.3377 63.3949 28.8829 64.4358 28.5773 65.4142C28.3293 66.2083 27.5966 66.7171 26.8065 66.7171ZM18.5334 42.1092C18.3501 42.1092 18.1636 42.0818 17.9794 42.0243L12.8972 40.4362C11.9186 40.1307 11.3734 39.0895 11.6792 38.1114C11.9847 37.1333 13.0257 36.5874 14.0041 36.8934L19.0862 38.4814C20.0648 38.7869 20.61 39.8279 20.3042 40.8063C20.0562 41.6004 19.3238 42.1092 18.5334 42.1092ZM45.4747 34.466C44.6843 34.466 43.9519 33.9572 43.7036 33.1631C43.3981 32.1847 43.9433 31.1437 44.9216 30.838L55.086 27.6626C56.0646 27.3568 57.1053 27.9022 57.4108 28.8806C57.7164 29.8589 57.1712 30.8999 56.1929 31.2057L46.0285 34.381C45.8445 34.4388 45.6582 34.466 45.4747 34.466ZM23.6158 34.466C23.4323 34.466 23.246 34.4386 23.0615 34.381L12.8972 31.2057C11.9188 30.8999 11.3737 29.8589 11.6792 28.8806C11.9847 27.9025 13.0259 27.3568 14.0041 27.6626L24.1684 30.838C25.1467 31.1437 25.6919 32.1847 25.3864 33.1631C25.1384 33.9572 24.406 34.466 23.6158 34.466ZM45.4747 25.8017C44.6843 25.8017 43.9519 25.2929 43.7036 24.4988C43.3981 23.5205 43.9433 22.4795 44.9216 22.1737L55.086 18.9981C56.0646 18.6923 57.1053 19.2378 57.4108 20.2161C57.7164 21.1945 57.1712 22.2354 56.1929 22.541L46.0285 25.7166C45.8445 25.7743 45.6582 25.8017 45.4747 25.8017ZM23.6155 25.8017C23.4323 25.8017 23.2457 25.7743 23.0615 25.7168L12.8974 22.541C11.9191 22.2354 11.3739 21.1945 11.6794 20.2161C11.985 19.2378 13.0264 18.6923 14.0043 18.9981L24.1686 22.1737C25.147 22.4795 25.6922 23.5205 25.3866 24.4988C25.1384 25.2927 24.406 25.8017 23.6155 25.8017Z" fill="#FE6035"/>
</g>
<defs>
<clipPath id="clip0_129_54">
<rect width="80" height="80" fill="white" transform="translate(0.665039 0.186279)"/>
</clipPath>
</defs>
</svg>
