<svg width="35" height="35" viewBox="0 0 35 35" fill="none" xmlns="http://www.w3.org/2000/svg">
<mask id="mask0_885_97" style="mask-type:luminance" maskUnits="userSpaceOnUse" x="0" y="0" width="35" height="35">
<path d="M0.898438 0.890625H34.8984V34.8906H0.898438V0.890625Z" fill="white"/>
</mask>
<g mask="url(#mask0_885_97)">
<path fill-rule="evenodd" clip-rule="evenodd" d="M8 4.61328C8 3.8431 8.62435 3.21875 9.39453 3.21875H10.7227C11.4928 3.21875 12.1172 3.8431 12.1172 4.61328V5.875H23.6719V4.61328C23.6719 3.8431 24.2962 3.21875 25.0664 3.21875H26.3945C27.1647 3.21875 27.7891 3.8431 27.7891 4.61328V5.875H29.1836C31.0541 5.875 32.5703 7.39129 32.5703 9.26172V29.1836C32.5703 31.0541 31.0541 32.5703 29.1836 32.5703H6.60547C4.73504 32.5703 3.21875 31.0541 3.21875 29.1836V9.26172C3.21875 7.39129 4.73504 5.875 6.60547 5.875H8V4.61328ZM27.7891 7.33594V8.59766C27.7891 9.36784 27.1647 9.99219 26.3945 9.99219H25.0664C24.2962 9.99219 23.6719 9.36784 23.6719 8.59766V7.33594H12.1172V8.59766C12.1172 9.36784 11.4928 9.99219 10.7227 9.99219H9.39453C8.62435 9.99219 8 9.36784 8 8.59766V7.33594H6.60547C5.54189 7.33594 4.67969 8.19816 4.67969 9.26172V10.6562H31.1094V9.26172C31.1094 8.19816 30.2472 7.33594 29.1836 7.33594H27.7891ZM9.46094 4.67969V8.53125H10.6562V4.67969H9.46094ZM4.67969 12.1172V29.1836C4.67969 30.2472 5.54189 31.1094 6.60547 31.1094H29.1836C30.2472 31.1094 31.1094 30.2472 31.1094 29.1836V12.1172H4.67969ZM25.1328 8.53125V4.67969H26.3281V8.53125H25.1328Z" fill="#FE6035"/>
<path fill-rule="evenodd" clip-rule="evenodd" d="M16.9741 15.4965C17.3839 14.7928 18.4005 14.7928 18.8103 15.4965L20.5082 18.4116L23.8053 19.1256C24.6012 19.2979 24.9153 20.2647 24.3727 20.8719L22.1249 23.3875L22.4648 26.7438C22.5468 27.554 21.7244 28.1515 20.9792 27.8231L17.8922 26.4628L14.8052 27.8231C14.06 28.1515 13.2376 27.554 13.3196 26.7438L13.6595 23.3875L11.4117 20.8719C10.8691 20.2647 11.1832 19.2979 11.9791 19.1256L15.2762 18.4116L16.9741 15.4965ZM17.8922 16.8229L16.4503 19.2986C16.3001 19.5563 16.0486 19.7391 15.757 19.8022L12.9569 20.4086L14.8658 22.545C15.0646 22.7674 15.1606 23.0632 15.1306 23.36L14.842 26.2104L17.4637 25.055C17.7367 24.9348 18.0477 24.9348 18.3206 25.055L20.9424 26.2104L20.6538 23.36C20.6237 23.0632 20.7198 22.7674 20.9186 22.545L22.8275 20.4086L20.0274 19.8022C19.7358 19.7391 19.4843 19.5563 19.3341 19.2986L17.8922 16.8229Z" fill="#FE6035"/>
</g>
</svg>
