<svg width="81" height="81" viewBox="0 0 81 81" fill="none" xmlns="http://www.w3.org/2000/svg">
<g clip-path="url(#clip0_129_37)">
<path d="M73.4711 33.3994C71.5688 33.3994 69.8507 34.1983 68.6308 35.4767C67.166 33.06 64.5779 31.3978 61.5963 31.2162C63.5761 28.9795 64.2308 25.974 63.5577 23.2294C63.6105 23.2306 63.6632 23.2331 63.716 23.2331C65.4302 23.2331 67.1443 22.5806 68.4494 21.2758C71.0594 18.6658 71.0594 14.419 68.4494 11.809C65.8394 9.19904 61.5927 9.19904 58.9827 11.809C57.6375 13.1542 56.9875 14.9342 57.0289 16.7008C54.2843 16.0278 51.2789 16.6825 49.0421 18.6623C48.8605 15.6808 47.1983 13.0926 44.7814 11.6278C46.0599 10.4079 46.8588 8.68982 46.8588 6.78748C46.8589 3.09607 43.8561 0.0932617 40.165 0.0932617C36.4739 0.0932617 33.4711 3.09607 33.4711 6.78717C33.4711 8.68951 34.27 10.4076 35.5485 11.6275C33.1318 13.0923 31.4696 15.6804 31.288 18.662C29.0511 16.6822 26.0458 16.0275 23.3011 16.7006C23.3425 14.934 22.6925 13.1542 21.3474 11.809C18.7372 9.19904 14.4907 9.19904 11.8807 11.809C9.27066 14.419 9.27066 18.6658 11.8807 21.2758C13.1857 22.5808 14.8999 23.2331 16.6141 23.2331C16.6669 23.2331 16.7196 23.2306 16.7724 23.2294C16.0993 25.974 16.7539 28.9795 18.7339 31.2162C15.7524 31.3978 13.1643 33.06 11.6994 35.4769C10.4796 34.1984 8.76145 33.3995 6.8591 33.3995C3.16785 33.3994 0.165039 36.4022 0.165039 40.0933C0.165039 43.7844 3.16785 46.7872 6.85895 46.7872C8.76129 46.7872 10.4794 45.9883 11.6993 44.7098C13.1641 47.1265 15.7522 48.7887 18.7338 48.9703C16.7539 51.207 16.0993 54.2125 16.7724 56.9572C15.0058 56.9158 13.226 57.5658 11.8808 58.9109C9.27082 61.5209 9.27082 65.7676 11.8808 68.3776C13.1858 69.6826 14.9 70.335 16.6143 70.335C18.3285 70.335 20.0425 69.6825 21.3477 68.3776C22.6929 67.0325 23.3427 65.2526 23.3014 63.4861C23.9977 63.6569 24.7108 63.7425 25.4241 63.7423C27.5218 63.7422 29.6191 63.0017 31.2883 61.5244C31.4699 64.5059 33.1321 67.094 35.5489 68.5589C34.2705 69.7787 33.4716 71.4969 33.4716 73.3992C33.4711 77.0904 36.4739 80.0933 40.165 80.0933C43.8561 80.0933 46.8589 77.0904 46.8589 73.3994C46.8589 71.497 46.06 69.7789 44.7816 68.559C47.1983 67.0942 48.8605 64.5061 49.0421 61.5245C50.7114 63.002 52.8083 63.7425 54.9063 63.7425C55.6194 63.7425 56.3325 63.6569 57.0289 63.4861C56.9875 65.2526 57.6375 67.0326 58.9827 68.3778C60.2877 69.6828 62.0019 70.3351 63.7161 70.3351C65.4304 70.3351 67.1444 69.6826 68.4496 68.3778C71.0596 65.7678 71.0596 61.5211 68.4496 58.9111C67.1044 57.5659 65.3244 56.9159 63.558 56.9573C64.2311 54.2126 63.5764 51.2073 61.5964 48.9704C64.578 48.7889 67.1661 47.1267 68.631 44.7098C69.8508 45.9883 71.5689 46.7872 73.4713 46.7872C77.1622 46.7872 80.165 43.7844 80.165 40.0933C80.165 36.4022 77.1622 33.3994 73.4711 33.3994ZM40.303 56.3373H40.0271C35.7216 56.3373 31.5224 54.5753 28.5063 51.5033L28.4091 51.404C25.4271 48.3667 23.7847 44.3497 23.7847 40.0931C23.7847 35.8365 25.4271 31.8195 28.4093 28.782L28.5061 28.6833C31.5224 25.6111 35.7216 23.849 40.0271 23.849H40.303C44.6085 23.849 48.8077 25.6111 51.8238 28.6831L51.9208 28.782L51.921 28.7822C54.903 31.8195 56.5454 35.8365 56.5454 40.0931C56.5454 44.3497 54.903 48.3667 51.9208 51.4042L51.8239 51.5029C48.8077 54.5753 44.6085 56.3373 40.303 56.3373ZM61.1968 14.0231C61.8913 13.3284 62.8036 12.9812 63.716 12.9812C64.6283 12.9812 65.5407 13.3286 66.2352 14.0231C67.6244 15.4122 67.6244 17.6725 66.2352 19.0617C64.8461 20.4509 62.5858 20.4509 61.1966 19.0617C59.8075 17.6725 59.8075 15.4122 61.1968 14.0231ZM58.9538 21.2476L59.0105 21.3044C61.2424 23.5361 61.2424 27.1676 59.0105 29.3995L57.4063 31.0037C56.5489 29.4042 55.46 27.9176 54.1553 26.5887L54.0582 26.4895C52.6336 25.0386 50.9875 23.8336 49.2005 22.9054L50.8586 21.2473C53.0907 19.0159 56.7219 19.0159 58.9538 21.2476ZM40.165 3.22436C42.1296 3.22436 43.7279 4.82264 43.7279 6.78717C43.7279 8.7517 42.1296 10.35 40.165 10.35C38.2005 10.35 36.6022 8.7517 36.6022 6.78717C36.6022 4.82264 38.2005 3.22436 40.165 3.22436ZM40.1249 13.4817H40.2052C43.3616 13.4817 45.9294 16.0495 45.9294 19.2059V21.5667C44.1158 21.0104 42.2183 20.7181 40.3032 20.7181H40.0272C38.1121 20.7181 36.2144 21.0106 34.401 21.5667V19.2058C34.4008 16.0495 36.9686 13.4817 40.1249 13.4817ZM29.4714 21.2476L31.1296 22.9058C29.3425 23.8339 27.6963 25.0389 26.2718 26.49L26.1749 26.5887C24.87 27.9176 23.7811 29.4042 22.9238 31.0039L21.3196 29.3995C19.0877 27.1678 19.0877 23.5362 21.3196 21.3045L21.3763 21.2478C23.6082 19.0159 27.2396 19.0159 29.4714 21.2476ZM14.0949 19.0615C12.7057 17.6725 12.7057 15.4122 14.0949 14.0229C14.7894 13.3283 15.7018 12.9811 16.6141 12.9811C17.5264 12.9811 18.4388 13.3284 19.1333 14.0229C20.5225 15.412 20.5225 17.6723 19.1333 19.0615C17.7443 20.4509 15.4839 20.4509 14.0949 19.0615ZM6.85895 43.6561C4.89441 43.6561 3.29613 42.0578 3.29613 40.0933C3.29613 38.1287 4.89441 36.5304 6.85895 36.5304C8.82348 36.5304 10.4218 38.1287 10.4218 40.0933C10.4218 42.0578 8.82348 43.6561 6.85895 43.6561ZM13.5535 40.1334V40.0531C13.5535 36.8967 16.1213 34.3289 19.2777 34.3289H21.5288C20.9535 36.172 20.6536 38.1106 20.6536 40.0931C20.6536 42.0756 20.9533 44.0144 21.5288 45.8573H19.2775C16.1213 45.8575 13.5535 43.2897 13.5535 40.1334ZM19.1333 66.1634C17.7443 67.5526 15.4839 67.5526 14.0947 66.1634C12.7055 64.7744 12.7055 62.514 14.0947 61.1248C14.7893 60.4301 15.7016 60.0829 16.6139 60.0829C17.5263 60.0829 18.4386 60.4303 19.1332 61.1248C20.5225 62.514 20.5225 64.7744 19.1333 66.1634ZM21.3763 58.9389L21.3196 58.8822C19.0877 56.6504 19.0877 53.0189 21.3196 50.787L22.9238 49.1828C23.7811 50.7823 24.87 52.2689 26.1747 53.5978L26.2719 53.697C27.6964 55.1479 29.3425 56.353 31.1296 57.2811L29.4714 58.9392C27.2394 61.1706 23.6082 61.1706 21.3763 58.9389ZM40.165 76.9622C38.2005 76.9622 36.6022 75.3639 36.6022 73.3994C36.6022 71.4348 38.2005 69.8365 40.165 69.8365C42.1296 69.8365 43.7279 71.4348 43.7279 73.3994C43.7279 75.3639 42.1296 76.9622 40.165 76.9622ZM40.2052 66.7048H40.1249C36.9685 66.7048 34.4007 64.137 34.4007 60.9806V58.6198C36.2143 59.1761 38.1118 59.4684 40.0269 59.4684H40.3028C42.218 59.4684 44.1157 59.1759 45.9291 58.6198V60.9806C45.9293 64.137 43.3614 66.7048 40.2052 66.7048ZM50.8586 58.9389L49.2005 57.2808C50.9875 56.3526 52.6338 55.1476 54.0583 53.6965L54.1552 53.5978C55.46 52.2689 56.5489 50.7823 57.4063 49.1826L59.0105 50.787C61.2424 53.0187 61.2424 56.6503 59.0105 58.882L58.9538 58.9387C56.7219 61.1706 53.0905 61.1706 50.8586 58.9389ZM66.2352 61.125C67.6244 62.514 67.6244 64.7744 66.2352 66.1636C64.8461 67.5528 62.5858 67.5528 61.1966 66.1636C59.8074 64.7745 59.8074 62.5142 61.1966 61.125C61.8911 60.4303 62.8035 60.0831 63.7158 60.0831C64.6283 60.083 65.5407 60.4303 66.2352 61.125ZM66.7766 40.1334C66.7766 43.2898 64.2088 45.8576 61.0524 45.8576H58.8013C59.3766 44.0145 59.6764 42.0759 59.6764 40.0934C59.6764 38.1109 59.3768 36.1722 58.8013 34.3292H61.0524C64.2088 34.3292 66.7766 36.897 66.7766 40.0534V40.1334ZM73.4711 43.6561C71.5066 43.6561 69.9083 42.0578 69.9083 40.0933C69.9083 38.1287 71.5066 36.5304 73.4711 36.5304C75.4357 36.5304 77.0339 38.1287 77.0339 40.0933C77.0339 42.0578 75.4357 43.6561 73.4711 43.6561Z" fill="#FE6035"/>
<path d="M52.1563 36.6062C51.845 35.1345 51.1163 33.7925 50.0488 32.725C48.581 31.257 46.6293 30.4487 44.5535 30.4487C42.9635 30.4487 41.4464 30.9229 40.1639 31.8045C37.1393 29.7345 32.9652 30.0414 30.2813 32.7251C27.2513 35.7553 27.2513 40.6858 30.2813 43.7159L39.058 52.4926C39.3638 52.7983 39.7644 52.9511 40.165 52.9511C40.5657 52.9511 40.9664 52.7983 41.2721 52.4926L44.5638 49.2011C45.1752 48.5897 45.1752 47.5984 44.5638 46.987C43.9524 46.3756 42.9611 46.3758 42.3497 46.987L40.165 49.1714L32.4954 41.5017C30.686 39.6923 30.686 36.7483 32.4954 34.9389C33.3718 34.0625 34.5371 33.5797 35.7766 33.5797C37.0161 33.5797 38.1814 34.0625 39.0579 34.9389C39.6693 35.5501 40.6605 35.5501 41.2719 34.9389C43.0813 33.1294 46.0252 33.1295 47.8346 34.9389C48.4722 35.5767 48.9072 36.3772 49.0927 37.254C49.2714 38.1 50.1025 38.6406 50.9483 38.4619C51.7944 38.283 52.3352 37.4522 52.1563 36.6062Z" fill="#FE6035"/>
<path d="M49.8121 43.8317C50.2039 43.0629 49.8982 42.122 49.1293 41.7302C48.3604 41.3384 47.4195 41.6441 47.0277 42.413C46.636 43.1819 46.9417 44.1228 47.7105 44.5146C48.4794 44.9063 49.4203 44.6006 49.8121 43.8317Z" fill="#FE6035"/>
</g>
<defs>
<clipPath id="clip0_129_37">
<rect width="80" height="80" fill="white" transform="translate(0.165039 0.0932617)"/>
</clipPath>
</defs>
</svg>
