<svg width="31" height="31" viewBox="0 0 31 31" fill="none" xmlns="http://www.w3.org/2000/svg">
<path d="M7.79767 23.0015L12.7775 21.1204L15.5 30.2994L18.2225 21.1204L23.2023 23.0015L21.3209 18.022L30.5 15.2994L21.3209 12.5769L23.2023 7.59734L18.2225 9.47852L15.5 0.299438L12.7775 9.47852L7.79767 7.59734L9.67908 12.5769L0.5 15.2994L9.67908 18.022L7.79767 23.0015ZM10.8088 19.9906L11.3639 18.5216L12.0686 18.7308L12.2778 19.4356L10.8088 19.9906ZM20.1912 19.9906L18.7222 19.4356L18.9312 18.7308L19.6361 18.5216L20.1912 19.9906ZM20.1912 10.6083L19.6361 12.0772L18.9314 11.868L18.7222 11.1633L20.1912 10.6083ZM10.8088 10.6083L12.2778 11.1633L12.0688 11.868L11.3639 12.0772L10.8088 10.6083ZM13.4785 13.2782L15.5 6.463L17.5215 13.2782L24.3364 15.2994L17.5215 17.3207L15.5 24.1359L13.4785 17.3207L6.66356 15.2994L13.4785 13.2782Z" fill="white"/>
</svg>
