<svg width="24" height="25" viewBox="0 0 24 25" fill="none" xmlns="http://www.w3.org/2000/svg">
<path d="M11.9994 1.81714C11.7405 1.81714 11.5306 2.027 11.5306 2.28589V5.07462C11.5306 5.33351 11.7405 5.54337 11.9994 5.54337C12.2582 5.54337 12.4681 5.33351 12.4681 5.07462V2.28589C12.4681 2.027 12.2582 1.81714 11.9994 1.81714Z" fill="#FE6035"/>
<path d="M9.3433 5.81935L8.22177 4.69881C8.03854 4.51581 7.74182 4.51595 7.55882 4.69909C7.37587 4.88223 7.37601 5.179 7.5591 5.362L8.68068 6.48254C8.77223 6.574 8.89213 6.6197 9.01199 6.6197C9.13204 6.6197 9.25204 6.57385 9.34358 6.48226C9.52654 6.29912 9.5264 6.00235 9.3433 5.81935Z" fill="#FE6035"/>
<path d="M16.4409 4.69993C16.2577 4.51688 15.9609 4.51707 15.7779 4.70016L14.5856 5.89346C14.4026 6.0766 14.4027 6.37337 14.5858 6.55637C14.6774 6.64787 14.7973 6.69357 14.9172 6.69357C15.0372 6.69357 15.1572 6.64773 15.2488 6.55613L16.4411 5.36284C16.6241 5.1797 16.624 4.88293 16.4409 4.69993Z" fill="#FE6035"/>
<path d="M20.9297 14.1921H20.5514C20.8601 13.7897 21.0442 13.2869 21.0442 12.7417V12.0801C21.0442 10.7634 19.973 9.69215 18.6562 9.69215C17.3395 9.69215 16.2683 10.7634 16.2683 12.0801V12.5944L12.7418 9.06787C12.5461 8.87221 12.2583 8.8094 12 8.90268C11.7419 8.8094 11.454 8.87221 11.2582 9.06791L7.7318 12.5944V12.0801C7.7317 10.7634 6.66047 9.69215 5.34375 9.69215C4.02703 9.69215 2.9558 10.7634 2.9558 12.0801V12.7416C2.9558 13.2869 3.13987 13.7897 3.44859 14.1921H3.07031C1.37733 14.1921 0 15.5695 0 17.2625V23.4734C0 23.7323 0.209906 23.9421 0.46875 23.9421H2.44922C2.49609 23.9421 2.54128 23.9351 2.58398 23.9223C2.62669 23.9351 2.67188 23.9421 2.71875 23.9421H7.96875C8.22759 23.9421 8.4375 23.7323 8.4375 23.4734V21.8796C8.4375 21.6208 8.22759 21.4109 7.96875 21.4109C7.70991 21.4109 7.5 21.6208 7.5 21.8796V23.0046H3.1875V17.6634C3.1875 17.4045 2.97759 17.1946 2.71875 17.1946C2.45991 17.1946 2.25 17.4045 2.25 17.6634V23.0046H0.9375V17.2625C0.9375 16.0864 1.89427 15.1296 3.07031 15.1296H6.32812C6.45713 15.1296 6.57394 15.0775 6.65869 14.9932C6.65902 14.9929 6.6593 14.9927 6.65963 14.9924L11.5285 10.1235C11.4966 11.097 11.1938 12.0346 10.6478 12.8454L7.57997 17.4016C7.52789 17.479 7.50005 17.5701 7.50005 17.6634V18.1765C7.50005 18.4354 7.70995 18.6453 7.9688 18.6453C8.22764 18.6453 8.43755 18.4354 8.43755 18.1765V17.8064L11.4255 13.369C11.6538 13.0299 11.8452 12.6717 12 12.2999C12.1549 12.6717 12.3463 13.0299 12.5746 13.369L15.5625 17.8064V23.4734C15.5625 23.7323 15.7724 23.9421 16.0312 23.9421H21.2812C21.3281 23.9421 21.3733 23.9351 21.416 23.9223C21.4587 23.9351 21.5039 23.9421 21.5508 23.9421H23.5312C23.7901 23.9421 24 23.7323 24 23.4734V17.2625C24 15.5695 22.6227 14.1921 20.9297 14.1921ZM6.7942 12.7416C6.7942 13.5415 6.14358 14.1921 5.34375 14.1921C4.54392 14.1921 3.8933 13.5415 3.8933 12.7417V12.0801C3.8933 11.2803 4.54397 10.6296 5.34375 10.6296C6.14353 10.6296 6.7942 11.2803 6.7942 12.0801V12.7416ZM17.2058 12.0801C17.2058 11.2803 17.8565 10.6296 18.6562 10.6296C19.456 10.6296 20.1067 11.2803 20.1067 12.0801V12.7416C20.1067 13.5415 19.4561 14.1921 18.6562 14.1921C17.8564 14.1921 17.2058 13.5415 17.2058 12.7417V12.0801ZM23.0625 23.0046H21.75V19.5359C21.75 19.277 21.5401 19.0671 21.2812 19.0671C21.0224 19.0671 20.8125 19.277 20.8125 19.5359V23.0046H16.5V17.6634C16.5 17.5701 16.4722 17.4789 16.4201 17.4016L13.3522 12.8455C12.8063 12.0347 12.5035 11.097 12.4716 10.1235L17.3404 14.9924C17.3466 14.9986 17.3524 15.0038 17.358 15.0084C17.4412 15.0836 17.551 15.1297 17.6719 15.1297H20.9297C22.1057 15.1297 23.0625 16.0865 23.0625 17.2626V23.0046Z" fill="#FE6035"/>
<path d="M21.6126 17.3318C21.5255 17.2446 21.4045 17.1945 21.2812 17.1945C21.158 17.1945 21.037 17.2446 20.9498 17.3318C20.8627 17.419 20.8125 17.5399 20.8125 17.6632C20.8125 17.7865 20.8626 17.9074 20.9498 17.9946C21.037 18.0818 21.158 18.132 21.2812 18.132C21.4045 18.132 21.5255 18.0818 21.6126 17.9946C21.6998 17.9074 21.75 17.7865 21.75 17.6632C21.75 17.5399 21.6998 17.4195 21.6126 17.3318Z" fill="#FE6035"/>
<path d="M8.30011 19.8139C8.21297 19.7267 8.09203 19.6765 7.96875 19.6765C7.84547 19.6765 7.72453 19.7267 7.63734 19.8139C7.55016 19.901 7.5 20.022 7.5 20.1453C7.5 20.2685 7.55011 20.3895 7.63734 20.4767C7.72458 20.5639 7.84547 20.614 7.96875 20.614C8.09203 20.614 8.21297 20.5639 8.30011 20.4767C8.3873 20.3895 8.4375 20.2685 8.4375 20.1453C8.4375 20.022 8.38734 19.901 8.30011 19.8139Z" fill="#FE6035"/>
</svg>
