<svg width="81" height="80" viewBox="0 0 81 80" fill="none" xmlns="http://www.w3.org/2000/svg">
<path d="M14.3099 65.325L14.0724 65.4C13.6659 65.5365 13.2906 65.7528 12.9687 66.0361C12.6467 66.3194 12.3845 66.6641 12.1974 67.05C12.0168 67.4235 11.9128 67.8293 11.8913 68.2436C11.8698 68.6579 11.9314 69.0723 12.0724 69.4625L14.2224 75.3875C14.4537 76.0118 14.8719 76.5496 15.4199 76.9276C15.9679 77.3056 16.6192 77.5055 17.2849 77.5C17.6423 77.5019 17.9974 77.4427 18.3349 77.325L31.8974 72.75C32.3045 72.6181 32.6805 72.405 33.0028 72.1235C33.3251 71.842 33.5869 71.4981 33.7724 71.1125C33.9557 70.7398 34.0613 70.3338 34.0828 69.9191C34.1043 69.5044 34.0412 69.0896 33.8974 68.7L31.7474 62.775C31.451 61.9812 30.8574 61.3338 30.0922 60.9698C29.327 60.6059 28.4502 60.554 27.6474 60.825H27.5224C27.1932 58.6371 26.6703 56.4828 25.9599 54.3875C25.2755 52.4603 24.1645 50.7126 22.7099 49.275L18.9599 38.85C18.7446 38.2425 18.3908 37.6936 17.9264 37.2466C17.4621 36.7997 16.9001 36.467 16.2849 36.275L18.9099 30.5125C19.2077 29.818 19.2994 29.0525 19.174 28.3073C19.0486 27.5621 18.7114 26.8688 18.2027 26.31C17.694 25.7512 17.0353 25.3506 16.3051 25.156C15.575 24.9614 14.8042 24.981 14.0849 25.2125C13.6138 25.3755 13.1798 25.6308 12.8085 25.9635C12.4372 26.2961 12.136 26.6995 11.9224 27.15L7.4224 36.175C7.35002 36.3368 7.30766 36.5105 7.2974 36.6875L6.5849 54.0375C6.57579 54.315 6.65935 54.5877 6.8224 54.8125L14.3099 65.325ZM28.4349 63.2C28.522 63.1878 28.6103 63.1878 28.6974 63.2C28.8476 63.195 28.9957 63.2368 29.1211 63.3197C29.2465 63.4026 29.3431 63.5223 29.3974 63.6625L31.5849 69.55C31.6433 69.6943 31.6433 69.8557 31.5849 70C31.5434 70.0868 31.4841 70.1639 31.4109 70.2263C31.3377 70.2888 31.2522 70.3352 31.1599 70.3625L17.5349 75C17.3508 75.0696 17.1467 75.0641 16.9666 74.9846C16.7866 74.9051 16.645 74.758 16.5724 74.575L14.4224 68.65C14.3893 68.5752 14.3723 68.4943 14.3723 68.4125C14.3723 68.3307 14.3893 68.2498 14.4224 68.175C14.4658 68.0895 14.5256 68.0134 14.5986 67.9512C14.6715 67.8889 14.7561 67.8418 14.8474 67.8125L16.9474 67.1L26.7599 63.75L28.4349 63.2ZM9.6849 37.05L14.0724 28.3C14.2232 27.992 14.4876 27.7546 14.8099 27.6375C14.9845 27.5748 15.1702 27.549 15.3553 27.5619C15.5404 27.5748 15.7207 27.6261 15.8849 27.7125C16.2083 27.8676 16.4606 28.1399 16.5906 28.4742C16.7206 28.8084 16.7186 29.1797 16.5849 29.5125L13.3724 36.6C12.9394 36.8194 12.5531 37.1208 12.2349 37.4875C11.8053 38.0021 11.5191 38.6209 11.4049 39.2815C11.2908 39.9421 11.3529 40.6211 11.5849 41.25L15.3349 51.55L17.6849 50.7L13.9349 40.4C13.8492 40.1802 13.8237 39.9415 13.861 39.7086C13.8984 39.4757 13.9972 39.2569 14.1474 39.075C14.3095 38.9037 14.5113 38.7749 14.7349 38.7C14.9253 38.6433 15.1252 38.6258 15.3226 38.6483C15.52 38.6708 15.7108 38.7329 15.8835 38.831C16.0563 38.929 16.2075 39.061 16.328 39.2189C16.4485 39.3768 16.5359 39.5575 16.5849 39.75L20.4599 50.45C20.5339 50.6329 20.6445 50.7988 20.7849 50.9375C22.0525 52.1477 23.0199 53.6372 23.6099 55.2875C24.3257 57.3636 24.8242 59.5085 25.0974 61.6875L16.7849 64.4875L9.0849 53.75L9.6849 37.05Z" fill="#FE6035"/>
<path d="M63.6225 25.4C62.7067 25.8511 62.0018 26.6403 61.6567 27.6011C61.3116 28.5619 61.3531 29.6192 61.7725 30.55L64.3975 36.325C63.7823 36.5171 63.2203 36.8497 62.756 37.2967C62.2917 37.7436 61.9379 38.2926 61.7225 38.9L57.9725 49.325C56.5179 50.7626 55.4069 52.5103 54.7225 54.4375C54.0121 56.5329 53.4892 58.6872 53.16 60.875H53.035C52.2322 60.604 51.3554 60.6559 50.5902 61.0199C49.825 61.3838 49.2314 62.0312 48.935 62.825L46.7725 68.75C46.6287 69.1396 46.5656 69.5544 46.5871 69.9691C46.6086 70.3839 46.7142 70.7899 46.8975 71.1625C47.083 71.5481 47.3449 71.8921 47.6671 72.1735C47.9894 72.455 48.3655 72.6681 48.7725 72.8L62.335 77.325C62.6723 77.4437 63.0275 77.5029 63.385 77.5C64.0508 77.5055 64.702 77.3056 65.25 76.9276C65.7981 76.5496 66.2162 76.0118 66.4475 75.3875L68.5975 69.4625C68.7385 69.0724 68.8001 68.658 68.7786 68.2437C68.7572 67.8294 68.6531 67.4235 68.4725 67.05C68.284 66.6629 68.0199 66.3175 67.6957 66.0341C67.3715 65.7507 66.9939 65.5351 66.585 65.4L66.3475 65.325L73.8475 54.8125C74.0106 54.5877 74.0942 54.3151 74.085 54.0375L73.4225 36.6875C73.4123 36.5105 73.3699 36.3369 73.2975 36.175L68.81 27.1625C68.5866 26.7064 68.275 26.2992 67.893 25.9645C67.5111 25.6297 67.0665 25.3742 66.585 25.2125C65.6109 24.8861 64.5478 24.9534 63.6225 25.4ZM66.2475 68.6125L64.085 74.5375C64.0099 74.7184 63.868 74.8635 63.6888 74.9426C63.5096 75.0218 63.3068 75.0289 63.1225 74.9625L49.5725 70.3875C49.4803 70.3602 49.3948 70.3138 49.3216 70.2514C49.2484 70.1889 49.1891 70.1118 49.1475 70.025C49.1152 69.95 49.0985 69.8692 49.0985 69.7875C49.0985 69.7058 49.1152 69.625 49.1475 69.55L51.2975 63.625C51.3519 63.4849 51.4484 63.3651 51.5738 63.2822C51.6992 63.1994 51.8473 63.1575 51.9975 63.1625C52.0846 63.1504 52.173 63.1504 52.26 63.1625L53.935 63.725L63.7225 67.025L65.8225 67.7375C65.9138 67.7668 65.9984 67.814 66.0714 67.8762C66.1443 67.9384 66.2042 68.0145 66.2475 68.1C66.2863 68.1799 66.3064 68.2675 66.3064 68.3563C66.3064 68.445 66.2863 68.5326 66.2475 68.6125ZM65.81 27.575C66.1401 27.6976 66.4093 27.9443 66.56 28.2625L70.935 37.0125L71.585 53.75L63.8975 64.525L55.585 61.725C55.8582 59.546 56.3567 57.4012 57.0725 55.325C57.6625 53.6748 58.6299 52.1852 59.8975 50.975C60.0379 50.8363 60.1485 50.6704 60.2225 50.4875L64.085 39.75C64.1395 39.5634 64.2304 39.3894 64.3524 39.238C64.4744 39.0866 64.6251 38.9608 64.7958 38.8679C64.9666 38.775 65.1541 38.7167 65.3474 38.6965C65.5408 38.6763 65.7362 38.6945 65.9225 38.75C66.0934 38.7993 66.2518 38.8844 66.3872 38.9997C66.5225 39.1151 66.6317 39.258 66.7074 39.4189C66.7831 39.5798 66.8237 39.755 66.8263 39.9328C66.8289 40.1106 66.7935 40.287 66.7225 40.45L62.9725 50.75L65.3225 51.6L69.085 41.25C69.3042 40.618 69.3549 39.9398 69.2321 39.2822C69.1094 38.6247 68.8174 38.0104 68.385 37.5C68.0683 37.1436 67.6865 36.8509 67.26 36.6375L64.085 29.5C63.9387 29.1625 63.9285 28.7815 64.0567 28.4367C64.1848 28.0919 64.4413 27.81 64.7725 27.65C65.0952 27.4901 65.4677 27.4632 65.81 27.575Z" fill="#FE6035"/>
<path d="M25.335 22.5H35.335V47.5C35.335 47.8315 35.4667 48.1495 35.7011 48.3839C35.9355 48.6183 36.2534 48.75 36.585 48.75H44.085C44.4165 48.75 44.7344 48.6183 44.9688 48.3839C45.2033 48.1495 45.335 47.8315 45.335 47.5V22.5H55.335C55.6665 22.5 55.9844 22.3683 56.2188 22.1339C56.4533 21.8995 56.585 21.5815 56.585 21.25V13.75C56.585 13.4185 56.4533 13.1005 56.2188 12.8661C55.9844 12.6317 55.6665 12.5 55.335 12.5H45.335V3.75C45.335 3.41848 45.2033 3.10054 44.9688 2.86612C44.7344 2.6317 44.4165 2.5 44.085 2.5H36.585C36.2534 2.5 35.9355 2.6317 35.7011 2.86612C35.4667 3.10054 35.335 3.41848 35.335 3.75V12.5H25.335C25.0034 12.5 24.6855 12.6317 24.4511 12.8661C24.2167 13.1005 24.085 13.4185 24.085 13.75V21.25C24.085 21.5815 24.2167 21.8995 24.4511 22.1339C24.6855 22.3683 25.0034 22.5 25.335 22.5ZM26.585 15H36.585C36.9165 15 37.2344 14.8683 37.4688 14.6339C37.7033 14.3995 37.835 14.0815 37.835 13.75V5H42.835V13.75C42.835 14.0815 42.9667 14.3995 43.2011 14.6339C43.4355 14.8683 43.7534 15 44.085 15H54.085V20H44.085C43.7534 20 43.4355 20.1317 43.2011 20.3661C42.9667 20.6005 42.835 20.9185 42.835 21.25V46.25H37.835V21.25C37.835 20.9185 37.7033 20.6005 37.4688 20.3661C37.2344 20.1317 36.9165 20 36.585 20H26.585V15Z" fill="#FE6035"/>
<path d="M20.6892 35.3657L30.6844 25.3705L32.4519 27.138L22.4567 37.1332L20.6892 35.3657Z" fill="#FE6035"/>
<path d="M48.1941 27.1367L49.9616 25.3692L59.9568 35.3644L58.1893 37.1319L48.1941 27.1367Z" fill="#FE6035"/>
<path d="M48.335 7.76245L53.335 4.01245L54.835 6.01245L49.835 9.76245L48.335 7.76245Z" fill="#FE6035"/>
<path d="M25.835 6L27.335 4L32.335 7.75L30.835 9.75L25.835 6Z" fill="#FE6035"/>
<path d="M59.085 16.25H66.585V18.75H59.085V16.25Z" fill="#FE6035"/>
<path d="M14.085 16.25H21.585V18.75H14.085V16.25Z" fill="#FE6035"/>
</svg>
