<svg width="24" height="25" viewBox="0 0 24 25" fill="none" xmlns="http://www.w3.org/2000/svg">
<g clip-path="url(#clip0_113_5112)">
<path d="M10.4516 8.47884C10.6654 8.47884 10.8387 8.30554 10.8387 8.09175C10.8387 7.87796 10.6654 7.70465 10.4516 7.70465C10.2378 7.70465 10.0645 7.87796 10.0645 8.09175C10.0645 8.30554 10.2378 8.47884 10.4516 8.47884Z" fill="#FE6035"/>
<path d="M13.5484 8.47884C13.7622 8.47884 13.9355 8.30554 13.9355 8.09175C13.9355 7.87796 13.7622 7.70465 13.5484 7.70465C13.3346 7.70465 13.1613 7.87796 13.1613 8.09175C13.1613 8.30554 13.3346 8.47884 13.5484 8.47884Z" fill="#FE6035"/>
<path d="M24 4.6079C24 3.75396 23.3055 3.05951 22.4516 3.05951C21.5977 3.05951 20.9032 3.75396 20.9032 4.6079V4.67912C20.4538 4.83938 20.129 5.26519 20.129 5.76919V6.67615C20.129 7.19293 20.3307 7.67912 20.6961 8.04454L20.8889 8.2377C20.6888 10.1705 19.471 11.7936 17.8003 12.5918C17.7852 12.3316 17.705 12.0808 17.5599 11.8629L17.1817 11.2958C17.0841 11.1487 17.0323 10.978 17.0323 10.8014C17.0323 10.6249 17.0841 10.4542 17.1821 10.3071L17.3535 10.0497C17.6501 9.60532 17.8065 9.08777 17.8065 8.55357C17.8065 8.1959 17.7364 7.84674 17.599 7.51615L16.4837 4.84015C16.0335 3.75861 14.9849 3.05951 13.8128 3.05951C13.1446 3.05951 12.5114 3.28403 12 3.69706C11.4879 3.28403 10.855 3.05951 10.1872 3.05951C9.0151 3.05951 7.96645 3.75861 7.51626 4.84054L6.40103 7.51693C6.26361 7.84712 6.19355 8.19628 6.19355 8.55357C6.19355 9.08777 6.34994 9.60493 6.64645 10.0497L6.81794 10.3067C6.91587 10.4542 6.96774 10.6249 6.96774 10.8014C6.96774 10.978 6.91587 11.1487 6.81794 11.2958L6.43974 11.8629C6.29458 12.0808 6.21445 12.3316 6.19935 12.5918C4.52864 11.7936 3.31084 10.1705 3.11071 8.2377L3.30348 8.04454C3.66929 7.67912 3.87097 7.19293 3.87097 6.67615V5.76919C3.87097 5.26519 3.54619 4.83938 3.09677 4.67912V4.6079C3.09677 3.75396 2.40232 3.05951 1.54839 3.05951C0.694452 3.05951 0 3.75396 0 4.6079V8.09177C0 9.00764 0.142839 9.9088 0.415742 10.774C0.147484 11.5183 0 12.3092 0 13.124C0 14.9747 0.720774 16.7147 2.02955 18.0231L2.35974 18.3537C2.57497 19.7736 3.80013 20.866 5.27923 20.866C5.68413 20.866 6.08942 20.7703 6.45135 20.5892L7.48877 20.0705L6.4889 24.7369H17.5525L16.2581 20.422V19.9439L17.5486 20.5892C17.911 20.7703 18.3159 20.866 18.7208 20.866C20.1999 20.866 21.4246 19.7736 21.6403 18.3537L21.9705 18.0235C23.2792 16.7147 24 14.9747 24 13.124C24 12.3092 23.8525 11.5183 23.5843 10.774C23.8572 9.9088 24 9.00764 24 8.09177V4.6079ZM15.7692 5.13822L16.8844 7.81422C16.9823 8.04996 17.0323 8.29886 17.0323 8.55357C17.0323 8.93448 16.9208 9.30338 16.7094 9.62003L16.5379 9.87783C16.3548 10.1523 16.2581 10.4716 16.2581 10.8014C16.2581 11.1313 16.3548 11.4506 16.5379 11.7254L16.9161 12.2929C16.992 12.4067 17.0323 12.5395 17.0323 12.6769C17.0323 12.7559 17.0141 12.8325 16.9877 12.9065C16.5046 13.0478 15.9952 13.124 15.4699 13.124H15.1351C14.4677 13.124 13.853 12.7857 13.481 12.2531C14.6326 11.9411 15.4839 10.8897 15.4839 9.64015V7.41164C15.4839 6.29254 14.5734 5.38209 13.4547 5.38209C13.0703 5.38209 12.7053 5.4928 12.3871 5.69099V4.39422C12.7785 4.03577 13.2786 3.8337 13.8128 3.8337C14.671 3.8337 15.4394 4.34583 15.7692 5.13822ZM15.4839 20.0918H13.0134C13.2155 19.8425 13.4044 19.5835 13.5844 19.3176H15.4839V20.0918ZM8.08606 22.7353L7.67652 22.8913L8.052 21.1385L8.20413 21.0843C10.8043 20.156 12.883 18.1532 13.908 15.5902L13.1892 15.3026C12.2868 17.5598 10.4942 19.3416 8.24477 20.2385L8.47239 19.1759L8.62452 19.0849C10.8174 17.7688 12.5806 15.7807 13.6483 13.4593C13.9599 13.6559 14.3075 13.7953 14.6772 13.8576C14.3934 17.8435 11.8432 21.3042 8.08606 22.7353ZM12 7.09073L12.5675 6.52403C12.804 6.28674 13.1191 6.15628 13.4547 6.15628C14.1468 6.15628 14.7097 6.71951 14.7097 7.41164V9.64015C14.7097 10.1612 14.5003 10.6331 14.1643 10.9811L14.0381 10.2235C13.9444 9.66145 13.4628 9.25306 12.8926 9.25306H11.1077C10.5372 9.25306 10.0556 9.66145 9.96232 10.2235L9.83574 10.9814C9.49974 10.6331 9.29032 10.1612 9.29032 9.64015V7.41164C9.29032 6.71951 9.85316 6.15628 10.5453 6.15628C10.8809 6.15628 11.196 6.28674 11.4329 6.52403L12 7.09073ZM10.7257 10.3505C10.7566 10.1631 10.9173 10.0273 11.1074 10.0273H12.8923C13.0823 10.0273 13.243 10.1631 13.2739 10.3509L13.4563 11.4452C13.2437 11.5261 13.0154 11.5756 12.7742 11.5756H11.2258C10.9846 11.5756 10.7563 11.5261 10.5434 11.4452L10.7257 10.3505ZM11.3578 12.3498H12.6422C12.7494 12.5639 12.8818 12.7602 13.0374 12.9367C12.8938 13.2649 12.7343 13.5847 12.5621 13.8982H11.0563C10.8782 13.8982 10.7241 13.7774 10.6804 13.6052L10.5995 13.2816C10.9138 13.0319 11.1739 12.7168 11.3578 12.3498ZM6.96774 12.6769C6.96774 12.5399 7.008 12.4067 7.08426 12.2925L7.46245 11.7251C7.64516 11.4506 7.74194 11.1313 7.74194 10.8014C7.74194 10.4716 7.64516 10.1523 7.46206 9.87745L7.29058 9.62041C7.07923 9.30338 6.96774 8.93448 6.96774 8.55357C6.96774 8.29848 7.01768 8.04957 7.11561 7.81422L8.23084 5.13783C8.56065 4.34583 9.32903 3.8337 10.1872 3.8337C10.721 3.8337 11.2208 4.03577 11.6129 4.39461V5.69099C11.2947 5.4928 10.9297 5.38209 10.5453 5.38209C9.42658 5.38209 8.51613 6.29254 8.51613 7.41164V9.64015C8.51613 10.8897 9.36735 11.9411 10.5194 12.2531C10.147 12.7857 9.53226 13.124 8.86529 13.124H8.53045C8.00516 13.124 7.49574 13.0478 7.01264 12.9065C6.98594 12.8325 6.96774 12.7559 6.96774 12.6769ZM0.774194 8.09177V4.6079C0.774194 4.18093 1.12142 3.8337 1.54839 3.8337C1.97535 3.8337 2.32258 4.18093 2.32258 4.6079V4.67912C1.87316 4.83938 1.54839 5.26519 1.54839 5.76919V6.15628H2.32258V5.76919C2.32258 5.5559 2.496 5.38209 2.70968 5.38209C2.92335 5.38209 3.09677 5.5559 3.09677 5.76919V6.67615C3.09677 6.98196 2.9729 7.28119 2.75652 7.49719L2.31097 7.94312V7.94351L2.02955 8.22493C1.59523 8.65925 1.23213 9.14467 0.932129 9.66261C0.831097 9.14699 0.774194 8.62248 0.774194 8.09177ZM6.83961 19.5293C5.94929 18.8507 5.41935 17.8017 5.41935 16.6733V13.8982H4.64516V16.6733C4.64516 17.9182 5.17471 19.0849 6.08052 19.9071C5.83161 20.0271 5.55523 20.0918 5.27923 20.0918C4.07574 20.0918 3.09677 19.1128 3.09677 17.9093V12.3498H2.32258V17.1955C1.32503 16.0698 0.774194 14.6411 0.774194 13.124C0.774194 11.5482 1.368 10.0663 2.44064 8.92209C3.02555 11.7684 5.556 13.8982 8.53006 13.8982H8.8649C9.228 13.8982 9.57755 13.8193 9.9031 13.6876L9.92942 13.7929C10.0587 14.3105 10.5225 14.6724 11.0563 14.6724H12.0979C11.1298 16.1558 9.84 17.4254 8.32761 18.3545C7.93897 17.2462 7.74194 16.09 7.74194 14.9105V14.6724H6.96774V14.9105C6.96774 16.3025 7.22477 17.6639 7.72684 18.9599L7.69664 19.1008L6.83961 19.5293ZM16.512 23.9627H7.44658L7.48297 23.7936L8.36206 23.4587C9.888 22.8773 11.2277 21.9827 12.3232 20.866H15.5981L16.512 23.9627ZM21.6774 17.1959V12.3498H20.9032V17.9093C20.9032 19.1128 19.9243 20.0918 18.7208 20.0918C18.4444 20.0918 18.1684 20.0271 17.9191 19.9071C18.8253 19.0849 19.3548 17.9182 19.3548 16.6733V13.8982H18.5806V16.6733C18.5806 17.8017 18.0507 18.8507 17.1604 19.5293L16.2581 19.0783V19.0002C16.7706 17.6918 17.0323 16.3164 17.0323 14.9101V14.6724H16.2581V14.9105C16.2581 16.1577 16.0359 17.3778 15.6023 18.5434H14.0621C14.849 17.1429 15.3333 15.5643 15.4494 13.8982H15.4699C18.4444 13.8982 20.9745 11.7684 21.5594 8.92209C22.632 10.0663 23.2258 11.5482 23.2258 13.124C23.2258 14.6411 22.675 16.0698 21.6774 17.1959ZM21.9705 8.22454L21.689 7.94312L21.2435 7.49719C21.0271 7.28119 20.9032 6.98196 20.9032 6.67615V5.76919C20.9032 5.5559 21.0766 5.38209 21.2903 5.38209C21.504 5.38209 21.6774 5.5559 21.6774 5.76919V6.15628H22.4516V5.76919C22.4516 5.26519 22.1268 4.83938 21.6774 4.67912V4.6079C21.6774 4.18093 22.0246 3.8337 22.4516 3.8337C22.8786 3.8337 23.2258 4.18093 23.2258 4.6079V8.09177C23.2258 8.62248 23.1689 9.14699 23.0679 9.66222C22.7679 9.14428 22.4048 8.65886 21.9705 8.22454Z" fill="#FE6035"/>
<path d="M11.6129 0.736938H12.3871V3.05952H11.6129V0.736938Z" fill="#FE6035"/>
<path d="M5.91913 1.3985L6.46648 0.851144L8.40166 2.78632L7.8543 3.33367L5.91913 1.3985Z" fill="#FE6035"/>
<path d="M4.64517 5.38208H6.19356V6.15627H4.64517V5.38208Z" fill="#FE6035"/>
<path d="M5.22589 3.89404L5.61 3.22185L6.7712 3.8854L6.3871 4.55759L5.22589 3.89404Z" fill="#FE6035"/>
<path d="M3.67801 3.00891L4.06212 2.33672L4.83648 2.77921L4.45237 3.4514L3.67801 3.00891Z" fill="#FE6035"/>
<path d="M9.31311 1.24872L10.0473 1.00425L10.434 2.16556L9.69981 2.41003L9.31311 1.24872Z" fill="#FE6035"/>
<path d="M15.5954 2.78735L17.5306 0.852181L18.0779 1.39954L16.1428 3.33471L15.5954 2.78735Z" fill="#FE6035"/>
<path d="M17.8065 5.38208H19.3548V6.15627H17.8065V5.38208Z" fill="#FE6035"/>
<path d="M17.2227 3.88684L18.3839 3.22329L18.768 3.89548L17.6068 4.55903L17.2227 3.88684Z" fill="#FE6035"/>
<path d="M19.1577 2.78113L19.9321 2.33864L20.3162 3.01082L19.5418 3.45332L19.1577 2.78113Z" fill="#FE6035"/>
<path d="M13.575 2.15735L13.963 0.995772L14.6974 1.24107L14.3094 2.40265L13.575 2.15735Z" fill="#FE6035"/>
</g>
<defs>
<clipPath id="clip0_113_5112">
<rect width="24" height="24" fill="white" transform="translate(0 0.736938)"/>
</clipPath>
</defs>
</svg>
