<svg width="51" height="52" viewBox="0 0 51 52" fill="none" xmlns="http://www.w3.org/2000/svg">
<g clip-path="url(#clip0_143_2012)">
<path d="M36.4548 39.4946C35.9051 39.4946 35.459 39.9407 35.459 40.4904C35.459 41.0401 35.9051 41.4862 36.4548 41.4862C37.0045 41.4862 37.4506 41.0401 37.4506 40.4904C37.4506 39.9407 37.0045 39.4946 36.4548 39.4946Z" fill="white"/>
<path d="M38.9074 36.2744L34.1743 34.697L32.4751 31.2986C34.0059 29.7405 35.0688 27.679 35.4272 25.5287L35.6391 24.2585H37.4514C39.0986 24.2585 40.4388 22.9184 40.4388 21.2711V14.9974C40.4388 6.76099 33.7379 0.0601196 25.5015 0.0601196C17.244 0.0601196 10.5642 6.74177 10.5642 14.9974V21.2711C10.5642 22.5692 11.3968 23.6762 12.5559 24.0873V25.2544C12.5559 26.9016 13.896 28.2418 15.5433 28.2418H16.4178C16.8495 29.1796 17.4083 30.0481 18.0882 30.8284C18.2292 30.9905 18.3763 31.1476 18.527 31.3005L16.8287 34.697L12.0955 36.2745C6.59209 38.1096 2.59766 43.9032 2.59766 50.0503C2.59766 50.6003 3.04348 51.0461 3.59348 51.0461H47.4096C47.9594 51.0461 48.4054 50.6003 48.4054 50.0503C48.4054 43.9032 44.411 38.1096 38.9074 36.2744ZM38.4472 21.2711C38.4472 21.8202 38.0005 22.2669 37.4514 22.2669H35.9315C36.1847 20.3061 36.3534 18.2196 36.4212 16.1645C36.4232 16.1066 36.4248 16.0502 36.4266 15.9932H38.4472V21.2711ZM13.5517 22.2669C13.0026 22.2669 12.5559 21.8202 12.5559 21.2711V15.9932H14.5772C14.5805 16.0971 14.5839 16.2015 14.5878 16.3065C14.5879 16.3101 14.5881 16.3136 14.5882 16.3172C14.5882 16.3175 14.5882 16.3178 14.5882 16.3181C14.6579 18.3169 14.8244 20.3493 15.0718 22.2668H13.5517V22.2669ZM15.5433 26.2502C14.9942 26.2502 14.5475 25.8035 14.5475 25.2544V24.2585H15.3639L15.5758 25.5291C15.6162 25.7706 15.6659 26.0112 15.7234 26.2502H15.5433ZM14.5492 14.0016H12.5937C13.0981 7.32751 18.6679 2.05176 25.5015 2.05176C32.3048 2.05176 37.8991 7.32682 38.4092 14.0016H36.4539C36.3822 8.50198 31.9037 4.0434 26.3929 4.0434H24.6104C19.0996 4.0434 14.6208 8.50198 14.5492 14.0016ZM24.6103 6.03504H26.3928C30.8549 6.03504 34.4665 9.68482 34.4639 14.142C34.4639 14.4554 34.4614 14.7282 34.4561 14.9765C34.4561 14.9797 34.456 14.983 34.456 14.9863L33.2105 14.8083C29.8267 14.3251 26.6317 12.7276 24.214 10.31C24.0272 10.1233 23.774 10.0183 23.5099 10.0183C20.8355 10.0183 18.2754 11.2368 16.5832 13.2954C17.0002 9.24048 20.4281 6.03504 24.6103 6.03504ZM17.7879 26.2502C17.2894 24.5918 16.719 19.7123 16.5929 16.5855L17.9332 14.7984C19.1641 13.1576 21.0792 12.1382 23.1163 12.0212C25.7968 14.5721 29.2644 16.2566 32.9288 16.7798L34.3949 16.9894C34.2969 19.0691 34.0966 21.1562 33.8097 23.0756C33.8096 23.0762 33.8095 23.0769 33.8094 23.0776C33.7182 23.6947 33.6463 24.0918 33.4627 25.2011C32.9353 28.3643 30.575 31.2248 27.4592 32.0038C26.1769 32.324 24.826 32.3239 23.5443 32.0038C21.5988 31.5175 19.8149 30.1713 18.6636 28.2418H20.6937C21.1048 29.4009 22.2116 30.2335 23.5099 30.2335H25.5015C27.1521 30.2335 28.489 28.8967 28.489 27.246C28.489 25.5987 27.1488 24.2585 25.5015 24.2585H23.5099C22.1827 24.2585 21.0922 25.1157 20.692 26.2502H17.7879ZM23.4261 34.0192C24.1092 34.1631 24.8055 34.2367 25.5015 34.2367C26.0463 34.2367 26.5912 34.1911 27.13 34.1026L25.3704 35.9635L23.4261 34.0192ZM24.0013 37.4112L20.8428 40.7514C19.9732 39.087 19.2261 37.3548 18.6132 35.5814L19.7994 33.2092L24.0013 37.4112ZM31.0349 32.8718L32.3896 35.5813C31.7758 37.3577 31.0284 39.0905 30.1598 40.7529L26.7792 37.3723L31.0349 32.8718ZM22.5141 27.246C22.5141 26.6962 22.96 26.2502 23.5099 26.2502H25.5015C26.0506 26.2502 26.4973 26.6969 26.4973 27.246C26.4973 27.7959 26.0513 28.2418 25.5015 28.2418H23.5099C22.9608 28.2418 22.5141 27.7951 22.5141 27.246ZM4.62913 49.0545C5.02377 44.1213 8.30689 39.6373 12.7253 38.1639L16.9171 36.7669C17.6851 38.8905 18.6365 40.9546 19.7516 42.9151C19.7534 42.9185 19.7552 42.9219 19.7571 42.9252L19.7572 42.9254C20.5719 44.3583 21.4889 45.7585 22.483 47.0878L23.708 49.0545H4.62913ZM25.5015 48.1668L24.151 45.9986C24.1358 45.9743 24.1197 45.9507 24.1026 45.9278C23.2962 44.8521 22.5439 43.7271 21.8588 42.5757L25.4102 38.82L29.1523 42.5621C28.4626 43.7219 27.7078 44.8516 26.9006 45.9276C26.8518 45.9926 26.9211 45.8901 25.5015 48.1668ZM27.295 49.0545L28.5199 47.0879C29.5185 45.7535 30.442 44.342 31.2648 42.8923C31.2698 42.8836 31.2745 42.8746 31.2795 42.8658C31.2801 42.8647 31.2807 42.8637 31.2813 42.8627C32.3821 40.9208 33.3236 38.8747 34.0859 36.7669L38.2776 38.1639C42.6961 39.6373 45.9793 44.1213 46.3739 49.0545H27.295Z" fill="white"/>
<path d="M43.3811 45.0245C42.7156 43.6924 41.7408 42.5089 40.562 41.6021C40.1261 41.2666 39.5009 41.3482 39.1656 41.7842C38.8302 42.2201 38.9118 42.8453 39.3476 43.1807C40.2891 43.905 41.0676 44.8503 41.5993 45.9145C41.8456 46.4074 42.444 46.6057 42.9352 46.3604C43.4271 46.1146 43.6268 45.5165 43.3811 45.0245Z" fill="white"/>
</g>
<defs>
<clipPath id="clip0_143_2012">
<rect width="50.986" height="50.986" fill="white" transform="translate(0.0078125 0.0601196)"/>
</clipPath>
</defs>
</svg>
