<svg width="47" height="47" viewBox="0 0 47 47" fill="none" xmlns="http://www.w3.org/2000/svg">
<path fill-rule="evenodd" clip-rule="evenodd" d="M46.7478 25.0077L35.8283 26.872L44.271 35.7637L28.5907 46.3944L23.7372 36.1767L19.0371 46.5169L3.35455 35.8847L11.6156 26.9052L0.757812 25.1252L6.65604 7.43056L16.2058 12.6395L14.2661 0.03125H33.2261L31.2981 12.651L40.7102 7.29736L46.7478 25.0077ZM28.6973 16.4312L30.8973 2.03125H16.5973L18.7973 16.3313L7.79733 10.3313L3.39733 23.5313L15.5973 25.5312L6.39733 35.5312L18.1973 43.5313L23.6973 31.4313L29.3973 43.4313L41.1973 35.4313L31.7973 25.5312L44.0973 23.4312L39.5973 10.2313L28.6973 16.4312Z" fill="#FE6035" fill-opacity="0.5"/>
</svg>
