<svg width="40" height="52" viewBox="0 0 40 52" fill="none" xmlns="http://www.w3.org/2000/svg">
<path d="M2.78125 41.5078C2.78125 44.5967 5.2854 47.1009 8.37431 47.1009C8.37454 44.012 5.87039 41.5078 2.78125 41.5078Z" fill="white"/>
<path d="M0 49.2397C2.18421 51.4239 5.72558 51.4239 7.90979 49.2397C5.72558 47.0555 2.18421 47.0555 0 49.2397Z" fill="white"/>
<path d="M37.2181 41.5078C34.1292 41.5078 31.625 44.012 31.625 47.1009C34.7141 47.1009 37.2181 44.5967 37.2181 41.5078Z" fill="white"/>
<path d="M32.0938 49.2397C34.278 51.4239 37.8193 51.4239 40.0038 49.2397C37.8196 47.0555 34.2782 47.0555 32.0938 49.2397Z" fill="white"/>
<path d="M11.2812 41.2385V51.1664H16.4969V46.6383C16.4969 43.8177 17.7376 41.0897 19.9961 38.9433C22.2546 41.0897 23.4953 43.8177 23.4953 46.6383V51.1664H28.7109V41.2385L19.9961 32.5469L11.2812 41.2385Z" fill="white"/>
<path d="M19.9973 41.5078C18.7282 42.7137 18.0312 44.2467 18.0312 45.8315V51.1397H21.9633V45.8315C21.9633 44.2467 21.2662 42.7137 19.9973 41.5078Z" fill="white"/>
<path d="M25.2359 33.164V22.245L20.0002 15.5234L14.7647 22.245V33.164L6.875 41.0059H9.12832L20.0002 30.1998L30.872 41.0059H33.1253L25.2359 33.164ZM19.0645 21.1172C19.0645 20.6004 19.4836 20.1815 20.0004 20.1815C20.5172 20.1815 20.9363 20.6004 20.9363 21.1172V24.2747H19.0647L19.0645 21.1172Z" fill="white"/>
<path d="M19.5229 11.2745L10.9922 22.2261H13.1627L19.996 13.4533L26.8293 22.2261H28.9998L20.4693 11.2745V6.16825H22.3033L23.5911 7.45606L25.3522 5.69496L23.5911 3.93387L22.3033 5.22168H20.4693V3.40828L21.7571 2.12047L19.996 0.359375L18.2349 2.12047L19.5227 3.40828V5.22168H17.6889L16.4011 3.93387L14.64 5.69496L16.4011 7.45606L17.6889 6.16825H19.5227V11.2745H19.5229ZM23.5911 5.27256L24.0135 5.69496L23.5911 6.11737L23.1687 5.69496L23.5911 5.27256ZM19.9962 1.69806L20.4186 2.12047L19.9962 2.54288L19.5738 2.12047L19.9962 1.69806ZM16.4011 6.11714L15.9787 5.69473L16.4011 5.27232L16.8235 5.69473L16.4011 6.11714Z" fill="white"/>
</svg>
