<svg width="155" height="40" viewBox="0 0 155 40" fill="none" xmlns="http://www.w3.org/2000/svg">
<path d="M155 39.9639H149.687L144.916 33.1686L140.144 39.9639H134.831L142.241 29.3734L134.831 18.7468H140.144L144.916 25.542L147.373 22.036L149.687 18.7468H155L150.048 25.8312L147.59 29.3734L155 39.9639Z" fill="#FE6035"/>
<path d="M131.827 18.783V39.9639H127.49V18.783H131.827Z" fill="#FE6035"/>
<path d="M108.157 28.0361V33.3132V39.9639H103.819V29.6987V24.4216V18.783L118.241 30.7108V18.783H122.615V34.3253V39.9639L108.157 28.0361Z" fill="#FE6035"/>
<path d="M84.058 23.1565V18.783H88.3954H99.2027V23.1565H88.3954V24.0601V26.7348V27.2047H99.2027V31.5783H88.3954V32.012V34.6867V35.6265H99.2027V39.9639H88.3954H87.8532H87.311H86.7689H86.2267H85.6845H85.1423H84.6002H84.058V35.6265V34.6867V32.012V31.5783V27.2047V26.7348V24.0601V23.1565Z" fill="white"/>
<path d="M75.8736 34.0722L73.7049 39.9639H69.0422L66.7289 33.6023L64.4157 27.2047L61.3433 18.7468H65.9699L68.6808 26.1565L71.3916 33.6023L73.5242 27.6746L76.7772 18.7468H81.4399L75.8736 34.0722Z" fill="white"/>
<path d="M51.5397 25.1083L46.118 40L41.4914 39.9639L49.1903 18.7468H53.853L61.588 39.9639L56.9253 40L51.5397 25.1083Z" fill="white"/>
<path d="M2.18686 32.4004C2.18686 34.8322 4.15834 36.8037 6.59019 36.8037C6.59038 34.3719 4.61889 32.4004 2.18686 32.4004Z" fill="#FE6035"/>
<path d="M0 38.4872C1.7196 40.2068 4.50766 40.2068 6.22726 38.4872C4.50766 36.7676 1.7196 36.7676 0 38.4872Z" fill="#FE6035"/>
<path d="M29.3044 32.4004C26.8725 32.4004 24.901 34.3719 24.901 36.8037C27.3331 36.8037 29.3044 34.8322 29.3044 32.4004Z" fill="#FE6035"/>
<path d="M25.264 38.4872C26.9836 40.2068 29.7716 40.2068 31.4914 38.4872C29.7718 36.7676 26.9838 36.7676 25.264 38.4872Z" fill="#FE6035"/>
<path d="M8.88472 32.1839V40H12.9909V36.4351C12.9909 34.2145 13.9677 32.0668 15.7458 30.377C17.5239 32.0668 18.5007 34.2145 18.5007 36.4351V40H22.6069V32.1839L15.7458 25.3411L8.88472 32.1839Z" fill="#FE6035"/>
<path d="M15.7458 32.4004C14.7467 33.3498 14.198 34.5567 14.198 35.8044V39.9834H17.2936V35.8044C17.2936 34.5567 16.7448 33.3498 15.7458 32.4004Z" fill="#FE6035"/>
<path d="M19.8676 25.8251V17.2288L15.7456 11.937L11.6238 17.2288V25.8251L5.41237 31.9989H7.18637L15.7456 23.4914L24.3049 31.9989H26.0789L19.8676 25.8251ZM15.009 16.3408C15.009 15.934 15.3389 15.6042 15.7458 15.6042C16.1527 15.6042 16.4826 15.934 16.4826 16.3408V18.8267H15.0092L15.009 16.3408Z" fill="#FE6035"/>
<path d="M15.3732 8.59335L8.65706 17.2154H10.3659L15.7456 10.3087L21.1254 17.2154H22.8342L16.1182 8.59335V4.57324H17.5621L18.576 5.58712L19.9625 4.20063L18.576 2.81415L17.5621 3.82802H16.1182V2.40036L17.1321 1.38649L15.7456 0L14.3591 1.38649L15.373 2.40036V3.82802H13.9293L12.9154 2.81415L11.529 4.20063L12.9154 5.58712L13.9293 4.57324H15.373V8.59335H15.3732ZM18.576 3.86808L18.9085 4.20063L18.576 4.53319L18.2434 4.20063L18.576 3.86808ZM15.7458 1.05393L16.0784 1.38649L15.7458 1.71904L15.4132 1.38649L15.7458 1.05393ZM12.9154 4.533L12.5829 4.20045L12.9154 3.86789L13.248 4.20045L12.9154 4.533Z" fill="#FE6035"/>
</svg>
