<svg width="174" height="60" viewBox="0 0 174 60" fill="none" xmlns="http://www.w3.org/2000/svg">
<path d="M7.19287 30.5176C6.62321 30.9733 5.79313 31.1686 4.70264 31.1035C3.61214 31.0384 2.62744 30.721 1.74854 30.1514C0.869629 29.5817 0.462728 28.7516 0.527832 27.6611C0.820801 25.6917 2.22868 23.6979 4.75146 21.6797C7.29053 19.6615 10.3586 17.7897 13.9556 16.0645C17.5526 14.3229 21.0926 12.8988 24.5757 11.792C28.0588 10.6689 30.9152 10.0179 33.145 9.83887C35.3423 9.67611 37.2222 9.86328 38.7847 10.4004C40.3472 10.9375 41.4051 11.8896 41.9585 13.2568C42.5119 14.624 42.3817 16.4632 41.5679 18.7744C40.5099 21.5576 38.8254 24.1618 36.5142 26.5869C34.203 29.012 31.6476 31.1442 28.8481 32.9834C26.0649 34.8226 23.3957 36.263 20.8403 37.3047C20.7752 37.321 20.7183 37.3372 20.6694 37.3535C20.3927 37.4512 20.2381 37.5407 20.2056 37.6221C20.1893 37.6872 20.3195 37.8092 20.5962 37.9883C21.4588 38.6068 22.4761 39.3717 23.6479 40.2832C25.1616 41.4714 26.7974 42.6921 28.5552 43.9453C30.313 45.1986 32.0301 46.2646 33.7065 47.1436C35.3993 48.0225 36.9048 48.4863 38.2231 48.5352C38.4836 48.5352 38.6626 48.6003 38.7603 48.7305C38.8579 48.8607 38.866 48.9909 38.7847 49.1211C38.7033 49.2513 38.5161 49.3164 38.2231 49.3164C36.7095 49.2676 35.0168 48.7874 33.145 47.876C31.2733 46.9645 29.3853 45.8577 27.481 44.5557C25.5767 43.2699 23.8107 42.0247 22.1831 40.8203C21.1414 40.0553 20.2137 39.388 19.3999 38.8184C19.2209 38.6882 19.0744 38.5824 18.9604 38.501C18.8302 38.387 18.7244 38.3057 18.6431 38.2568C18.5617 38.2243 18.464 38.208 18.3501 38.208C18.2524 38.2243 18.1141 38.2568 17.9351 38.3057C17.8211 38.3382 17.6828 38.3708 17.52 38.4033C16.1366 38.6637 15.2251 38.5661 14.7856 38.1104C14.3625 37.6546 14.2648 37.1419 14.4927 36.5723C14.7205 35.9863 15.1356 35.6527 15.7378 35.5713C16.0959 35.5713 16.4702 35.6527 16.8608 35.8154C17.2677 35.9619 17.6177 36.1247 17.9106 36.3037C18.0083 36.3688 18.0978 36.4176 18.1792 36.4502C18.342 36.5479 18.464 36.613 18.5454 36.6455C18.6268 36.6781 18.7082 36.6862 18.7896 36.6699C18.8709 36.6536 18.9849 36.613 19.1313 36.5479C19.229 36.5153 19.3674 36.4583 19.5464 36.377C22.769 35.1562 25.9836 33.4066 29.1899 31.1279C32.4126 28.833 35.1063 26.3346 37.271 23.6328C38.9637 21.4844 40.103 19.4255 40.689 17.4561C41.2912 15.4704 41.0389 13.8753 39.9321 12.6709C38.8416 11.4665 36.6118 10.9619 33.2427 11.1572C31.1756 11.3363 28.4494 11.971 25.064 13.0615C21.6948 14.1357 18.2443 15.5029 14.7124 17.1631C11.1968 18.807 8.19385 20.5648 5.70361 22.4365C3.22965 24.3083 1.84619 26.123 1.55322 27.8809C1.53695 28.2878 1.70785 28.6377 2.06592 28.9307C2.42399 29.2236 2.84717 29.4515 3.33545 29.6143C3.84001 29.7607 4.2876 29.8177 4.67822 29.7852C5.06885 29.7526 5.28857 29.6224 5.3374 29.3945C5.38623 29.2155 5.47575 29.0934 5.60596 29.0283C5.75244 28.9632 5.90706 28.9388 6.06982 28.9551C6.33024 29.0039 6.59066 29.1016 6.85107 29.248C7.12777 29.3783 7.31494 29.5492 7.4126 29.7607C7.51025 29.9723 7.43701 30.2246 7.19287 30.5176ZM16.2993 37.2559C16.3807 37.2559 16.4539 37.2559 16.519 37.2559C16.6004 37.2559 16.6655 37.2559 16.7144 37.2559C16.7632 37.2559 16.7795 37.2477 16.7632 37.2314C16.7469 37.1989 16.6899 37.1582 16.5923 37.1094C16.5597 37.0931 16.5109 37.0687 16.4458 37.0361C16.3319 36.971 16.2017 36.9141 16.0552 36.8652C15.925 36.8001 15.811 36.7757 15.7134 36.792C15.632 36.792 15.6076 36.8734 15.6401 37.0361C15.6727 37.1012 15.7297 37.1501 15.811 37.1826C15.8924 37.2152 15.9819 37.2396 16.0796 37.2559C16.1772 37.2559 16.2505 37.2559 16.2993 37.2559ZM14.3706 28.5156C14.5008 28.304 14.631 28.0843 14.7612 27.8564C15.6564 26.4242 16.5028 24.9512 17.3003 23.4375C17.3817 23.291 17.4224 23.1771 17.4224 23.0957C17.4224 23.0143 17.3573 22.9574 17.2271 22.9248C16.9341 22.8271 16.7876 22.6888 16.7876 22.5098C16.7876 22.3145 16.8608 22.0947 17.0073 21.8506C17.1701 21.5576 17.4631 21.1751 17.8862 20.7031C18.3094 20.2311 18.757 19.8568 19.229 19.5801C19.7173 19.2871 20.1323 19.279 20.4741 19.5557C20.6043 19.6859 20.6694 19.8568 20.6694 20.0684C20.6694 20.2799 20.6287 20.459 20.5474 20.6055C19.6522 22.2168 18.7163 23.8037 17.7397 25.3662C17.5444 25.6755 17.3491 25.9928 17.1538 26.3184C16.812 26.8555 16.2017 27.8239 15.3228 29.2236C13.9556 31.3558 12.3524 33.8949 10.5132 36.8408C8.67399 39.7868 7.03011 42.4805 5.58154 44.9219C4.14925 47.3796 3.35173 48.9502 3.18896 49.6338C3.17269 49.7965 3.12386 49.9512 3.04248 50.0977C2.9611 50.2441 2.81462 50.3092 2.60303 50.293C2.44027 50.2604 2.35075 50.1628 2.33447 50C2.3182 49.8372 2.33447 49.6745 2.3833 49.5117C2.3833 49.4629 2.3833 49.4222 2.3833 49.3896C2.54606 48.5596 3.20524 47.1029 4.36084 45.0195C5.51644 42.9362 6.84294 40.6738 8.34033 38.2324C9.83773 35.791 11.1886 33.61 12.3931 31.6895C13.3045 30.2572 13.9637 29.1992 14.3706 28.5156ZM38.8091 38.4033C37.6698 39.5101 36.5955 39.917 35.5864 39.624C34.5936 39.3311 34.1134 38.4684 34.146 37.0361C34.1785 35.5876 35.1958 33.6995 37.1978 31.3721C37.9627 30.542 38.5731 30.0618 39.0288 29.9316C39.4032 29.8014 39.688 29.8177 39.8833 29.9805C40.0786 30.127 40.0868 30.4281 39.9077 30.8838C39.5659 31.2419 39.2892 31.4616 39.0776 31.543C38.866 31.6243 38.6951 31.6569 38.5649 31.6406C38.4998 31.6406 38.4347 31.6488 38.3696 31.665C38.3208 31.665 38.272 31.6976 38.2231 31.7627C36.6769 33.6019 35.7329 35.083 35.3911 36.2061C35.0656 37.3291 35.1144 38.0859 35.5376 38.4766C35.9608 38.8835 36.5304 38.8997 37.2466 38.5254C37.5721 38.3301 37.9383 37.9639 38.3452 37.4268C38.7521 36.8896 39.0858 36.3607 39.3462 35.8398C39.395 35.7585 39.4357 35.6934 39.4683 35.6445C39.5171 35.5794 39.5415 35.5225 39.5415 35.4736C39.5415 35.4248 39.5008 35.3678 39.4194 35.3027C39.1265 35.0098 38.8742 34.6273 38.6626 34.1553C38.451 33.667 38.4103 33.2275 38.5405 32.8369C38.6707 32.5765 38.9149 32.4626 39.2729 32.4951C39.631 32.5277 39.9728 32.7148 40.2983 33.0566C40.6239 33.3984 40.7948 33.9111 40.811 34.5947C40.8436 35.083 41.0145 35.4248 41.3237 35.6201C41.633 35.7992 41.9748 35.8643 42.3491 35.8154C42.7235 35.7503 43.0327 35.6038 43.2769 35.376C43.4884 35.1807 43.6349 35.1318 43.7163 35.2295C43.814 35.3109 43.8058 35.4574 43.6919 35.6689C43.578 35.8805 43.3257 36.0758 42.9351 36.2549C42.3166 36.499 41.8364 36.5885 41.4946 36.5234C41.1691 36.4583 40.925 36.3688 40.7622 36.2549C40.6483 36.1572 40.5425 36.1165 40.4448 36.1328C40.3472 36.1328 40.2495 36.2305 40.1519 36.4258C39.9891 36.7188 39.7775 37.0605 39.5171 37.4512C39.2729 37.8418 39.0369 38.1592 38.8091 38.4033ZM47.3052 31.9092C47.3377 31.8766 47.3784 31.8441 47.4272 31.8115C48.0132 31.3558 48.7293 30.8594 49.5757 30.3223C50.4383 29.7852 51.3091 29.4271 52.188 29.248C53.0832 29.0527 53.8644 29.248 54.5317 29.834C55.3781 30.7454 55.3618 31.8604 54.4829 33.1787C53.604 34.4971 52.2043 35.791 50.2837 37.0605C48.3794 38.3138 46.2961 39.3229 44.0337 40.0879C41.7876 40.8691 39.7205 41.1865 37.8325 41.04C37.5396 40.9912 37.3442 40.9017 37.2466 40.7715C37.1326 40.6576 37.1245 40.5518 37.2222 40.4541C37.3198 40.3564 37.5233 40.3158 37.8325 40.332C39.509 40.4785 41.3156 40.2018 43.2524 39.502C45.1893 38.8021 47.0041 37.8988 48.6968 36.792C50.3895 35.6852 51.7241 34.5866 52.7007 33.4961C53.6772 32.3893 54.0435 31.5023 53.7993 30.835C53.4575 30.2002 52.7739 30.1025 51.7485 30.542C50.7231 30.9814 49.592 31.6813 48.355 32.6416C47.118 33.5856 45.995 34.5215 44.9858 35.4492C43.9767 36.377 43.3013 37.0036 42.9595 37.3291C42.9432 37.3454 42.9351 37.3617 42.9351 37.3779C42.9188 37.3942 42.9106 37.4023 42.9106 37.4023C42.8944 37.4023 42.8862 37.4023 42.8862 37.4023C42.7397 37.5163 42.5851 37.557 42.4224 37.5244C42.2433 37.4919 42.0887 37.4023 41.9585 37.2559C41.8771 37.1094 41.8446 36.9629 41.8608 36.8164C41.8608 36.6536 41.9259 36.5153 42.0562 36.4014L42.2515 36.2061C42.3654 36.0758 42.7235 35.5713 43.3257 34.6924C43.9279 33.7972 44.9126 32.2184 46.2798 29.9561C47.647 27.6937 49.5594 24.4466 52.0171 20.2148C55.4513 14.3229 57.7137 10.9212 58.8042 10.0098C59.1134 9.7168 59.4064 9.57031 59.6831 9.57031C59.9761 9.57031 60.2284 9.61914 60.4399 9.7168C60.6841 9.79818 60.8306 9.94466 60.8794 10.1562C60.9445 10.3516 60.9445 10.6283 60.8794 10.9863C60.7004 12.0605 60.0981 13.5742 59.0728 15.5273C57.966 17.4967 56.3547 19.8324 54.2388 22.5342C52.1392 25.236 50.2349 27.5065 48.5259 29.3457C48.1515 29.9642 47.8667 30.4281 47.6714 30.7373C47.5575 30.9489 47.4354 31.1686 47.3052 31.3965C47.2726 31.4453 47.2401 31.5023 47.2075 31.5674C47.0122 31.8604 46.9064 32.0394 46.8901 32.1045C46.8901 32.1696 47.0285 32.1045 47.3052 31.9092ZM53.6772 19.9951C53.189 20.8577 52.7495 21.6227 52.3589 22.29C51.3986 23.9014 50.9347 24.7477 50.9673 24.8291C50.9998 24.8942 51.8381 23.8037 53.4819 21.5576C55.4025 18.9535 56.8836 16.7318 57.9253 14.8926C58.7065 13.4277 59.1704 12.4837 59.3169 12.0605C59.4797 11.6374 59.4227 11.5885 59.146 11.9141C58.8693 12.2233 58.4624 12.7604 57.9253 13.5254C57.4045 14.2741 56.8429 15.096 56.2407 15.9912C55.6548 16.8864 55.1177 17.7083 54.6294 18.457C54.1574 19.2057 53.84 19.7184 53.6772 19.9951ZM62.8325 30.0781C63.744 30.2734 64.1102 30.6641 63.9312 31.25C63.7521 31.8359 63.2801 32.4463 62.5151 33.0811C61.7502 33.7158 60.9526 34.196 60.1226 34.5215C59.3088 34.8307 58.7147 34.8145 58.3403 34.4727C58.0799 34.7982 57.7788 35.2295 57.437 35.7666C57.1115 36.2874 56.9243 36.7513 56.8755 37.1582C56.8755 37.7767 57.2987 38.0452 58.145 37.9639C58.9914 37.8825 60.0005 37.6139 61.1724 37.1582C62.3442 36.7025 63.4185 36.2386 64.395 35.7666C65.3716 35.2783 65.9901 34.9447 66.2505 34.7656C66.4458 34.6354 66.6248 34.5785 66.7876 34.5947C66.9666 34.611 67.0399 34.7005 67.0073 34.8633C66.991 35.026 66.7795 35.2539 66.3726 35.5469C65.8843 35.8887 65.0542 36.377 63.8823 37.0117C62.7267 37.6302 61.4979 38.1673 60.1958 38.623C58.8937 39.0788 57.7869 39.2334 56.8755 39.0869C55.964 38.9404 55.5246 38.2731 55.5571 37.085C55.6385 36.2874 56.0942 35.3353 56.9243 34.2285C57.7544 33.1217 58.7147 32.1533 59.8052 31.3232C60.9119 30.4769 61.9211 30.0618 62.8325 30.0781ZM62.3442 31.4209C62.1978 31.4697 61.9455 31.6081 61.5874 31.8359C61.2293 32.0475 60.8468 32.2917 60.4399 32.5684C60.0493 32.8451 59.7075 33.1055 59.4146 33.3496C59.1216 33.5938 58.9507 33.7728 58.9019 33.8867C58.853 34.0007 58.9995 34.0007 59.3413 33.8867C59.8133 33.7077 60.3911 33.3984 61.0747 32.959C61.7583 32.5033 62.2791 32.0882 62.6372 31.7139C62.8 31.5348 62.8651 31.4209 62.8325 31.3721C62.8162 31.3232 62.6535 31.3395 62.3442 31.4209ZM70.5474 27.6123C70.0916 27.0589 69.8312 26.5218 69.7661 26.001C69.7336 25.2197 69.9696 24.6663 70.4741 24.3408C70.9787 24.0153 71.5809 24.1211 72.2808 24.6582C72.5412 24.9512 72.7039 25.3174 72.769 25.7568C72.8504 26.1963 72.7772 26.7008 72.5493 27.2705C72.4517 27.4658 72.411 27.6204 72.4272 27.7344C72.4598 27.832 72.5819 27.9297 72.7935 28.0273C74.0793 28.597 74.9663 29.2562 75.4546 30.0049C75.9429 30.7536 75.7231 31.7383 74.7954 32.959C74.3071 33.5938 73.8433 34.375 73.4038 35.3027C72.9644 36.2142 72.826 37.0199 72.9888 37.7197C73.1841 38.1755 73.6968 38.2812 74.5269 38.0371C75.3732 37.8092 76.3009 37.4105 77.3101 36.8408C78.3192 36.2712 79.1899 35.7178 79.9224 35.1807C80.1502 34.9854 80.3293 34.8958 80.4595 34.9121C80.5897 34.9121 80.6548 34.9772 80.6548 35.1074C80.6711 35.2376 80.606 35.376 80.4595 35.5225C78.2948 37.4268 76.3498 38.5742 74.6245 38.9648C72.8993 39.3555 71.8657 38.9893 71.5239 37.8662C71.1821 36.7432 71.9959 34.8714 73.9653 32.251C74.5187 31.486 74.6001 30.8675 74.2095 30.3955C73.8188 29.9072 73.2248 29.4434 72.4272 29.0039C72.3947 28.9876 72.3703 28.9714 72.354 28.9551C72.1912 28.8411 72.0448 28.8005 71.9146 28.833C71.8006 28.8493 71.646 28.9958 71.4507 29.2725C71.2554 29.5329 71.1089 29.7201 71.0112 29.834C70.7508 30.1595 70.5229 30.3385 70.3276 30.3711C70.1323 30.3874 69.9858 30.3223 69.8882 30.1758C69.8068 30.0293 69.7824 29.8665 69.8149 29.6875C69.8638 29.5247 69.9451 29.4352 70.0591 29.4189C70.173 29.4027 70.409 29.1911 70.7671 28.7842C70.9299 28.5563 70.9705 28.3529 70.8892 28.1738C70.8241 27.9785 70.7101 27.7913 70.5474 27.6123ZM71.7192 26.6602C71.7843 26.2533 71.7437 25.8952 71.5972 25.5859C71.4507 25.2767 71.2879 25.1221 71.1089 25.1221C70.9299 25.1058 70.8485 25.3581 70.8647 25.8789C70.881 25.9603 70.9299 26.0986 71.0112 26.2939C71.0926 26.473 71.1821 26.6439 71.2798 26.8066C71.3937 26.9694 71.4995 27.0508 71.5972 27.0508C71.6297 27.0508 71.646 27.0345 71.646 27.002C71.6623 26.9531 71.6704 26.9043 71.6704 26.8555C71.6867 26.7904 71.703 26.7253 71.7192 26.6602ZM79.1655 21.5576C79.133 21.7041 79.0109 21.7855 78.7993 21.8018C78.5877 21.8018 78.3599 21.7529 78.1157 21.6553C77.8716 21.5576 77.6925 21.4355 77.5786 21.2891C77.4647 21.1263 77.4972 20.9554 77.6763 20.7764C77.8553 20.5973 78.2541 20.4264 78.8726 20.2637C81.9487 19.7428 84.9679 19.2952 87.9302 18.9209C88.4998 18.8558 88.9312 18.7907 89.2241 18.7256C89.5334 18.6605 89.7694 18.5547 89.9321 18.4082C90.1112 18.2454 90.2902 17.9932 90.4692 17.6514C90.7622 17.1468 91.0633 16.6423 91.3726 16.1377C91.4377 16.0238 91.5028 15.9098 91.5679 15.7959C94.0907 11.5804 95.7996 9.06576 96.6948 8.25195C98.0946 6.96615 98.6968 7.17773 98.5015 8.88672C98.1759 11.1165 97.0366 13.8835 95.0835 17.1875C95.0835 17.2038 95.0754 17.2282 95.0591 17.2607C94.7661 17.7165 94.6278 17.9932 94.644 18.0908C94.6603 18.1885 94.8475 18.2129 95.2056 18.1641C95.2707 18.1641 95.3276 18.1641 95.3765 18.1641C95.5555 18.1478 95.7345 18.1396 95.9136 18.1396C99.9663 17.8792 104.133 17.7653 108.414 17.7979C108.69 17.7979 108.869 17.863 108.951 17.9932C109.032 18.1071 109.024 18.221 108.926 18.335C108.829 18.4326 108.633 18.4733 108.34 18.457C103.75 18.3757 99.299 18.5872 94.9858 19.0918C94.8394 19.1081 94.7091 19.1243 94.5952 19.1406C94.3511 19.1406 94.1558 19.1732 94.0093 19.2383C93.8628 19.3034 93.7082 19.4661 93.5454 19.7266C91.5109 22.8516 89.3787 25.7894 87.1489 28.54C84.9354 31.2907 83.0881 33.3415 81.6069 34.6924C81.5256 34.7738 81.4604 34.8307 81.4116 34.8633C81.3628 34.8958 81.3221 34.9202 81.2896 34.9365C81.257 34.9528 81.2244 34.9772 81.1919 35.0098C81.1593 35.0423 81.1187 35.0911 81.0698 35.1562C81.021 35.2214 80.9559 35.3271 80.8745 35.4736C77.2612 41.2354 73.6235 46.9808 69.9614 52.71C70.2544 52.71 70.3927 52.8158 70.3765 53.0273C70.3439 53.2552 70.2137 53.4587 69.9858 53.6377C69.2697 54.1748 68.7733 54.3376 68.4966 54.126C68.2199 53.9144 68.2362 53.4505 68.5454 52.7344C69.3918 51.3997 70.2381 50.0732 71.0845 48.7549C76.9927 39.5752 82.8032 30.2979 88.5161 20.9229C88.5812 20.7926 88.6463 20.6787 88.7114 20.5811C88.9067 20.3044 88.9963 20.1172 88.98 20.0195C88.98 19.9056 88.7847 19.8812 88.394 19.9463C85.3667 20.3857 82.2905 20.874 79.1655 21.4111C79.1655 21.46 79.1655 21.5088 79.1655 21.5576ZM91.9097 17.5537C91.7469 17.8304 91.633 18.0583 91.5679 18.2373C91.5028 18.4163 91.5435 18.4977 91.6899 18.4814C91.9341 18.4489 92.1782 18.4245 92.4224 18.4082C92.5851 18.4082 92.7153 18.3919 92.813 18.3594C92.9106 18.3268 93.0002 18.2617 93.0815 18.1641C93.1629 18.0501 93.2687 17.8874 93.3989 17.6758C95.2056 14.5833 96.4588 11.849 97.1587 9.47266C96.2798 10.4492 94.758 12.7604 92.5933 16.4062C92.4956 16.569 92.3979 16.7318 92.3003 16.8945C92.1701 17.1061 92.0399 17.3258 91.9097 17.5537ZM90.3716 20.1172C89.8182 21.0286 89.2404 21.9889 88.6382 22.998C87.1896 25.5046 85.6434 28.0111 83.9995 30.5176C83.1532 31.7871 83.2101 31.8929 84.1704 30.835C86.6281 27.9704 89.1753 24.4629 91.812 20.3125C91.991 20.0033 92.1131 19.7917 92.1782 19.6777C92.2433 19.5475 92.2433 19.4743 92.1782 19.458C92.1294 19.4255 92.0236 19.4173 91.8608 19.4336C91.8446 19.4336 91.8201 19.4336 91.7876 19.4336C91.755 19.4499 91.7144 19.458 91.6655 19.458C91.3888 19.4743 91.1447 19.5231 90.9331 19.6045C90.7215 19.6696 90.5343 19.8405 90.3716 20.1172ZM118.35 27.3438C117.748 27.181 117.203 26.9043 116.714 26.5137C116.226 26.123 115.892 25.6185 115.713 25C115.404 23.5026 116.031 21.9076 117.593 20.2148C119.172 18.5059 121.198 16.8864 123.672 15.3564C126.146 13.8102 128.58 12.5407 130.972 11.5479C133.365 10.555 135.236 10.026 136.587 9.96094C138.671 9.94466 140.103 10.4736 140.884 11.5479C141.682 12.6221 142.032 13.973 141.934 15.6006C141.853 17.2282 141.552 18.8721 141.031 20.5322C140.51 22.1924 139.973 23.6003 139.419 24.7559C139.24 25.0651 139.306 25.236 139.615 25.2686C139.924 25.3011 140.339 25.2767 140.86 25.1953C140.974 25.179 141.096 25.1628 141.226 25.1465C141.47 25.1465 141.657 25.2279 141.788 25.3906C141.934 25.5371 141.983 25.6999 141.934 25.8789C141.902 26.0417 141.722 26.1475 141.397 26.1963C141.088 26.2288 140.778 26.2695 140.469 26.3184C140.062 26.3835 139.647 26.4323 139.224 26.4648C138.882 26.4974 138.654 26.5625 138.541 26.6602C138.427 26.7415 138.313 26.9043 138.199 27.1484C138.15 27.2461 138.093 27.3519 138.028 27.4658C136.14 30.8838 133.755 34.2367 130.875 37.5244C127.994 40.7959 124.755 43.5954 121.158 45.9229C117.561 48.2503 113.76 49.6908 109.756 50.2441C108.926 50.3743 107.925 50.4395 106.753 50.4395C105.598 50.4395 104.499 50.2767 103.458 49.9512C102.432 49.6257 101.692 49.0153 101.236 48.1201C100.634 46.6227 100.91 45.0358 102.066 43.3594C103.238 41.6829 104.833 40.0635 106.851 38.501C108.886 36.9385 110.904 35.5713 112.906 34.3994C114.908 33.2275 116.438 32.3893 117.496 31.8848C123.599 29.0039 129.963 26.9531 136.587 25.7324C136.734 25.7161 136.856 25.6999 136.954 25.6836C137.149 25.651 137.295 25.6185 137.393 25.5859C137.507 25.5371 137.597 25.4639 137.662 25.3662C137.743 25.2523 137.841 25.0651 137.955 24.8047C138.768 23.0794 139.444 21.2972 139.981 19.458C140.323 18.2861 140.542 17.0736 140.64 15.8203C140.738 14.5508 140.502 13.4766 139.932 12.5977C139.362 11.7188 138.256 11.2793 136.612 11.2793C135.619 11.3281 134.219 11.7106 132.413 12.4268C130.606 13.1266 128.685 14.0299 126.651 15.1367C124.616 16.2435 122.753 17.4316 121.06 18.7012C119.384 19.9544 118.163 21.167 117.398 22.3389C116.649 23.5107 116.649 24.5036 117.398 25.3174C117.512 25.3988 117.601 25.4557 117.667 25.4883C117.748 25.5046 117.813 25.5046 117.862 25.4883C117.911 25.4557 117.951 25.4232 117.984 25.3906C118.049 25.3418 118.106 25.3092 118.155 25.293C118.22 25.2767 118.309 25.293 118.423 25.3418C118.537 25.3906 118.676 25.5046 118.838 25.6836C119.278 26.1393 119.457 26.5706 119.375 26.9775C119.31 27.3682 118.969 27.4902 118.35 27.3438ZM136.514 27.4414C136.563 27.3438 136.612 27.2624 136.661 27.1973C136.807 27.002 136.856 26.8962 136.807 26.8799C136.758 26.8473 136.571 26.8636 136.246 26.9287C129.833 28.1331 123.697 30.1676 117.837 33.0322C116.991 33.4391 115.648 34.196 113.809 35.3027C111.986 36.4095 110.098 37.6953 108.145 39.1602C106.192 40.625 104.621 42.1061 103.433 43.6035C102.245 45.1009 101.879 46.4355 102.334 47.6074C102.676 48.2585 103.287 48.6816 104.166 48.877C105.061 49.0885 105.988 49.1781 106.949 49.1455C107.925 49.113 108.707 49.056 109.292 48.9746C113.085 48.4375 116.698 47.0622 120.132 44.8486C123.583 42.6351 126.708 39.9821 129.507 36.8896C132.307 33.7972 134.642 30.6478 136.514 27.4414ZM143.79 38.4033C142.65 39.5101 141.576 39.917 140.567 39.624C139.574 39.3311 139.094 38.4684 139.126 37.0361C139.159 35.5876 140.176 33.6995 142.178 31.3721C142.943 30.542 143.554 30.0618 144.009 29.9316C144.384 29.8014 144.668 29.8177 144.864 29.9805C145.059 30.127 145.067 30.4281 144.888 30.8838C144.546 31.2419 144.27 31.4616 144.058 31.543C143.847 31.6243 143.676 31.6569 143.545 31.6406C143.48 31.6406 143.415 31.6488 143.35 31.665C143.301 31.665 143.252 31.6976 143.204 31.7627C141.657 33.6019 140.713 35.083 140.372 36.2061C140.046 37.3291 140.095 38.0859 140.518 38.4766C140.941 38.8835 141.511 38.8997 142.227 38.5254C142.553 38.3301 142.919 37.9639 143.326 37.4268C143.733 36.8896 144.066 36.3607 144.327 35.8398C144.375 35.7585 144.416 35.6934 144.449 35.6445C144.498 35.5794 144.522 35.5225 144.522 35.4736C144.522 35.4248 144.481 35.3678 144.4 35.3027C144.107 35.0098 143.855 34.6273 143.643 34.1553C143.431 33.667 143.391 33.2275 143.521 32.8369C143.651 32.5765 143.895 32.4626 144.253 32.4951C144.611 32.5277 144.953 32.7148 145.279 33.0566C145.604 33.3984 145.775 33.9111 145.792 34.5947C145.824 35.083 145.995 35.4248 146.304 35.6201C146.613 35.7992 146.955 35.8643 147.33 35.8154C147.704 35.7503 148.013 35.6038 148.257 35.376C148.469 35.1807 148.615 35.1318 148.697 35.2295C148.794 35.3109 148.786 35.4574 148.672 35.6689C148.558 35.8805 148.306 36.0758 147.916 36.2549C147.297 36.499 146.817 36.5885 146.475 36.5234C146.15 36.4583 145.905 36.3688 145.743 36.2549C145.629 36.1572 145.523 36.1165 145.425 36.1328C145.328 36.1328 145.23 36.2305 145.132 36.4258C144.97 36.7188 144.758 37.0605 144.498 37.4512C144.253 37.8418 144.017 38.1592 143.79 38.4033ZM146.5 38.1104C146.825 37.3128 147.321 36.3444 147.989 35.2051C148.64 34.0658 149.275 32.9753 149.893 31.9336C150.235 31.3802 150.528 30.9001 150.772 30.4932C150.674 30.363 150.625 30.2246 150.625 30.0781C150.625 29.9316 150.674 29.8014 150.772 29.6875C151.195 29.2318 151.504 28.9795 151.7 28.9307L151.749 28.9062C151.895 28.8574 152.025 28.8574 152.139 28.9062C152.383 28.9876 152.538 29.1423 152.603 29.3701C152.603 29.3864 152.603 29.4108 152.603 29.4434C152.603 29.4596 152.603 29.4759 152.603 29.4922C152.603 29.6387 152.562 29.7852 152.481 29.9316C151.879 30.9082 151.203 32.0231 150.455 33.2764C149.722 34.5133 149.071 35.6364 148.501 36.6455C148.892 36.2712 149.519 35.734 150.381 35.0342C151.26 34.318 152.131 33.6589 152.994 33.0566C153.873 32.4382 154.499 32.1126 154.874 32.0801C155.459 32.0964 155.793 32.3324 155.875 32.7881C155.956 33.2275 155.956 33.724 155.875 34.2773C155.826 34.7005 155.818 35.0667 155.85 35.376C155.883 35.6689 156.045 35.8154 156.338 35.8154C156.648 35.8154 157.168 35.5713 157.901 35.083C158.112 34.9528 158.259 34.9202 158.34 34.9854C158.438 35.0505 158.471 35.1644 158.438 35.3271C158.405 35.4736 158.316 35.5957 158.169 35.6934C156.705 36.6211 155.736 36.8001 155.264 36.2305C154.792 35.6445 154.67 34.6517 154.898 33.252C154.556 33.2845 154.043 33.5775 153.36 34.1309C152.676 34.668 151.936 35.2946 151.138 36.0107C150.438 36.6292 149.771 37.1989 149.136 37.7197C148.501 38.2406 147.964 38.6149 147.525 38.8428C147.199 38.9893 146.923 38.9893 146.695 38.8428C146.467 38.6963 146.402 38.4521 146.5 38.1104ZM164.151 30.0781C165.062 30.2734 165.429 30.6641 165.25 31.25C165.07 31.8359 164.598 32.4463 163.833 33.0811C163.069 33.7158 162.271 34.196 161.441 34.5215C160.627 34.8307 160.033 34.8145 159.659 34.4727C159.398 34.7982 159.097 35.2295 158.755 35.7666C158.43 36.2874 158.243 36.7513 158.194 37.1582C158.194 37.7767 158.617 38.0452 159.463 37.9639C160.31 37.8825 161.319 37.6139 162.491 37.1582C163.663 36.7025 164.737 36.2386 165.713 35.7666C166.69 35.2783 167.308 34.9447 167.569 34.7656C167.764 34.6354 167.943 34.5785 168.106 34.5947C168.285 34.611 168.358 34.7005 168.326 34.8633C168.309 35.026 168.098 35.2539 167.691 35.5469C167.203 35.8887 166.373 36.377 165.201 37.0117C164.045 37.6302 162.816 38.1673 161.514 38.623C160.212 39.0788 159.105 39.2334 158.194 39.0869C157.282 38.9404 156.843 38.2731 156.875 37.085C156.957 36.2874 157.413 35.3353 158.243 34.2285C159.073 33.1217 160.033 32.1533 161.124 31.3232C162.23 30.4769 163.239 30.0618 164.151 30.0781ZM163.663 31.4209C163.516 31.4697 163.264 31.6081 162.906 31.8359C162.548 32.0475 162.165 32.2917 161.758 32.5684C161.368 32.8451 161.026 33.1055 160.733 33.3496C160.44 33.5938 160.269 33.7728 160.22 33.8867C160.171 34.0007 160.318 34.0007 160.66 33.8867C161.132 33.7077 161.709 33.3984 162.393 32.959C163.077 32.5033 163.597 32.0882 163.956 31.7139C164.118 31.5348 164.183 31.4209 164.151 31.3721C164.135 31.3232 163.972 31.3395 163.663 31.4209ZM166.543 38.2812C166.674 38.1999 166.828 37.972 167.007 37.5977C167.186 37.2233 167.39 36.7676 167.618 36.2305C168.041 35.1562 168.537 34.1064 169.107 33.0811C169.677 32.0557 170.319 31.4779 171.036 31.3477C171.264 31.3965 171.434 31.5104 171.548 31.6895C171.662 31.8522 171.63 32.0475 171.451 32.2754C171.174 32.6497 170.93 32.9508 170.718 33.1787C170.523 33.3903 170.319 33.6019 170.108 33.8135C169.896 34.0251 169.636 34.2936 169.327 34.6191C169.115 35.1562 168.912 35.6934 168.716 36.2305C168.635 36.4909 168.545 36.7432 168.448 36.9873C168.399 37.1663 168.366 37.2965 168.35 37.3779C168.35 37.443 168.375 37.4756 168.423 37.4756C168.488 37.4756 168.57 37.4593 168.667 37.4268C168.684 37.4105 168.7 37.4023 168.716 37.4023C169.042 37.3047 169.27 37.3128 169.4 37.4268C169.53 37.5244 169.571 37.6546 169.522 37.8174C169.473 37.9801 169.351 38.1185 169.156 38.2324C168.977 38.3301 168.798 38.387 168.619 38.4033C168.407 38.4359 168.204 38.5173 168.008 38.6475C167.894 38.7288 167.78 38.8509 167.667 39.0137C167.553 39.1764 167.455 39.3311 167.374 39.4775C166.755 40.6657 165.876 41.7806 164.737 42.8223C163.597 43.8639 162.247 44.4906 160.684 44.7021C159.463 44.8161 158.869 44.6615 158.902 44.2383C158.934 43.8151 159.366 43.2373 160.196 42.5049C161.01 41.7887 162.002 41.0482 163.174 40.2832C164.346 39.5182 165.469 38.8509 166.543 38.2812ZM165.298 40.6006C165.38 40.5029 165.469 40.389 165.567 40.2588C165.665 40.1449 165.746 40.0309 165.811 39.917C165.876 39.8031 165.909 39.7135 165.909 39.6484C165.909 39.5996 165.86 39.5915 165.762 39.624C165.404 39.7868 164.916 40.0798 164.297 40.5029C163.663 40.9424 163.02 41.4062 162.369 41.8945C161.718 42.3991 161.197 42.8304 160.806 43.1885C160.399 43.5465 160.245 43.7337 160.342 43.75C160.879 43.7826 161.653 43.4814 162.662 42.8467C163.671 42.2282 164.55 41.4795 165.298 40.6006Z" fill="black"/>
</svg>
